WorkSans-SemiBold.ufo
<glyph name="exclam" format="2">
  <advance width="291"/>
  <unicode hex="0021"/>
  <outline>
    <contour>
      <point x="73" y="660" type="line"/>
      <point x="73" y="420" type="line"/>
      <point x="90" y="213" type="line"/>
      <point x="200" y="213" type="line"/>
      <point x="217" y="420" type="line"/>
      <point x="217" y="660" type="line"/>
    </contour>
    <contour>
      <point x="60" y="68" type="curve" smooth="yes"/>
      <point x="60" y="21"/>
      <point x="93" y="-9"/>
      <point x="145" y="-9" type="curve" smooth="yes"/>
      <point x="197" y="-9"/>
      <point x="230" y="21"/>
      <point x="230" y="68" type="curve" smooth="yes"/>
      <point x="230" y="115"/>
      <point x="197" y="145"/>
      <point x="145" y="145" type="curve" smooth="yes"/>
      <point x="93" y="145"/>
      <point x="60" y="115"/>
    </contour>
  </outline>
</glyph>
<glyph name="dollar" format="2">
  <advance width="629"/>
  <unicode hex="0024"/>
  <outline>
    <contour>
      <point x="365" y="-92" type="line"/>
      <point x="365" y="2" type="line"/>
      <point x="496" y="13"/>
      <point x="587" y="81"/>
      <point x="587" y="188" type="curve" smooth="yes"/>
      <point x="587" y="319"/>
      <point x="472" y="351"/>
      <point x="365" y="373" type="curve"/>
      <point x="365" y="559" type="line"/>
      <point x="433" y="551"/>
      <point x="476" y="519"/>
      <point x="513" y="453" type="curve"/>
      <point x="590" y="532" type="line"/>
      <point x="539" y="605"/>
      <point x="478" y="650"/>
      <point x="365" y="658" type="curve"/>
      <point x="365" y="752" type="line"/>
      <point x="279" y="752" type="line"/>
      <point x="279" y="658" type="line"/>
      <point x="138" y="645"/>
      <point x="57" y="565"/>
      <point x="57" y="462" type="curve" smooth="yes"/>
      <point x="57" y="334"/>
      <point x="172" y="303"/>
      <point x="279" y="282" type="curve"/>
      <point x="279" y="100" type="line"/>
      <point x="203" y="112"/>
      <point x="139" y="154"/>
      <point x="114" y="219" type="curve"/>
      <point x="33" y="143" type="line"/>
      <point x="80" y="59"/>
      <point x="158" y="10"/>
      <point x="279" y="1" type="curve"/>
      <point x="279" y="-92" type="line"/>
    </contour>
    <contour>
      <point x="365" y="263" type="line"/>
      <point x="419" y="249"/>
      <point x="462" y="229"/>
      <point x="462" y="181" type="curve" smooth="yes"/>
      <point x="462" y="132"/>
      <point x="426" y="107"/>
      <point x="365" y="100" type="curve"/>
    </contour>
    <contour>
      <point x="183" y="471" type="curve" smooth="yes"/>
      <point x="183" y="518"/>
      <point x="216" y="549"/>
      <point x="279" y="558" type="curve"/>
      <point x="279" y="391" type="line"/>
      <point x="225" y="405"/>
      <point x="183" y="424"/>
    </contour>
  </outline>
</glyph>
<glyph name="percent" format="2">
  <advance width="908"/>
  <unicode hex="0025"/>
  <outline>
    <contour>
      <point x="522" y="176" type="curve" smooth="yes"/>
      <point x="522" y="64"/>
      <point x="591" y="-10"/>
      <point x="698" y="-10" type="curve" smooth="yes"/>
      <point x="804" y="-10"/>
      <point x="874" y="64"/>
      <point x="874" y="176" type="curve" smooth="yes"/>
      <point x="874" y="288"/>
      <point x="804" y="362"/>
      <point x="698" y="362" type="curve" smooth="yes"/>
      <point x="591" y="362"/>
      <point x="522" y="288"/>
    </contour>
    <contour>
      <point x="34" y="484" type="curve" smooth="yes"/>
      <point x="34" y="372"/>
      <point x="104" y="298"/>
      <point x="210" y="298" type="curve" smooth="yes"/>
      <point x="317" y="298"/>
      <point x="386" y="372"/>
      <point x="386" y="484" type="curve" smooth="yes"/>
      <point x="386" y="596"/>
      <point x="317" y="670"/>
      <point x="210" y="670" type="curve" smooth="yes"/>
      <point x="104" y="670"/>
      <point x="34" y="596"/>
    </contour>
    <contour>
      <point x="280" y="484" type="curve" smooth="yes"/>
      <point x="280" y="427"/>
      <point x="255" y="394"/>
      <point x="210" y="394" type="curve" smooth="yes"/>
      <point x="165" y="394"/>
      <point x="140" y="427"/>
      <point x="140" y="484" type="curve" smooth="yes"/>
      <point x="140" y="541"/>
      <point x="165" y="575"/>
      <point x="210" y="575" type="curve" smooth="yes"/>
      <point x="255" y="575"/>
      <point x="280" y="541"/>
    </contour>
    <contour>
      <point x="768" y="176" type="curve" smooth="yes"/>
      <point x="768" y="119"/>
      <point x="743" y="85"/>
      <point x="698" y="85" type="curve" smooth="yes"/>
      <point x="652" y="85"/>
      <point x="628" y="119"/>
      <point x="628" y="176" type="curve" smooth="yes"/>
      <point x="628" y="233"/>
      <point x="652" y="266"/>
      <point x="698" y="266" type="curve" smooth="yes"/>
      <point x="743" y="266"/>
      <point x="768" y="233"/>
    </contour>
    <contour>
      <point x="287" y="0" type="line"/>
      <point x="732" y="660" type="line"/>
      <point x="622" y="660" type="line"/>
      <point x="177" y="0" type="line"/>
    </contour>
  </outline>
</glyph>
<glyph name="quotesingle" format="2">
  <advance width="244"/>
  <unicode hex="0027"/>
  <outline>
    <contour>
      <point x="70" y="682" type="line"/>
      <point x="70" y="416" type="line"/>
      <point x="164" y="416" type="line"/>
      <point x="192" y="682" type="line"/>
    </contour>
  </outline>
</glyph>
<glyph name="asterisk" format="2">
  <advance width="582"/>
  <unicode hex="002A"/>
  <outline>
    <contour>
      <point x="291" y="486" type="line"/>
      <point x="268" y="469" type="line"/>
      <point x="318" y="366" type="line"/>
      <point x="394" y="259" type="line"/>
      <point x="475" y="318" type="line"/>
      <point x="397" y="423" type="line"/>
      <point x="314" y="503" type="line"/>
    </contour>
    <contour>
      <point x="186" y="423" type="line"/>
      <point x="107" y="318" type="line"/>
      <point x="188" y="259" type="line"/>
      <point x="264" y="366" type="line"/>
      <point x="314" y="469" type="line"/>
      <point x="291" y="486" type="line"/>
      <point x="268" y="503" type="line"/>
    </contour>
    <contour>
      <point x="44" y="514" type="line"/>
      <point x="169" y="475" type="line"/>
      <point x="282" y="458" type="line"/>
      <point x="291" y="486" type="line"/>
      <point x="300" y="514" type="line"/>
      <point x="199" y="567" type="line"/>
      <point x="74" y="609" type="line"/>
    </contour>
    <contour>
      <point x="240" y="730" type="line"/>
      <point x="243" y="599" type="line"/>
      <point x="262" y="486" type="line"/>
      <point x="291" y="486" type="line"/>
      <point x="320" y="486" type="line"/>
      <point x="339" y="599" type="line"/>
      <point x="341" y="730" type="line"/>
    </contour>
    <contour>
      <point x="383" y="567" type="line"/>
      <point x="282" y="514" type="line"/>
      <point x="291" y="486" type="line"/>
      <point x="300" y="458" type="line"/>
      <point x="413" y="475" type="line"/>
      <point x="538" y="514" type="line"/>
      <point x="508" y="609" type="line"/>
    </contour>
  </outline>
</glyph>
<glyph name="comma" format="2">
  <advance width="281"/>
  <unicode hex="002C"/>
  <outline>
    <contour>
      <point x="52" y="69" type="curve" smooth="yes"/>
      <point x="52" y="16"/>
      <point x="91" y="-8"/>
      <point x="125" y="-8" type="curve" smooth="yes"/>
      <point x="139" y="-8"/>
      <point x="148" y="-4"/>
      <point x="154" y="2" type="curve"/>
      <point x="158" y="-1" type="line"/>
      <point x="144" y="-47"/>
      <point x="102" y="-84"/>
      <point x="44" y="-106" type="curve"/>
      <point x="107" y="-154" type="line"/>
      <point x="193" y="-115"/>
      <point x="235" y="-42"/>
      <point x="235" y="36" type="curve" smooth="yes"/>
      <point x="235" y="102"/>
      <point x="202" y="153"/>
      <point x="139" y="153" type="curve" smooth="yes"/>
      <point x="88" y="153"/>
      <point x="52" y="121"/>
    </contour>
  </outline>
</glyph>
<glyph name="zero" format="2">
  <advance width="636"/>
  <unicode hex="0030"/>
  <outline>
    <contour>
      <point x="582" y="330" type="curve" smooth="yes"/>
      <point x="582" y="553"/>
      <point x="493" y="670"/>
      <point x="318" y="670" type="curve" smooth="yes"/>
      <point x="143" y="670"/>
      <point x="54" y="553"/>
      <point x="54" y="330" type="curve" smooth="yes"/>
      <point x="54" y="107"/>
      <point x="143" y="-10"/>
      <point x="318" y="-10" type="curve" smooth="yes"/>
      <point x="493" y="-10"/>
      <point x="582" y="107"/>
    </contour>
    <contour>
      <point x="192" y="330" type="curve" smooth="yes"/>
      <point x="192" y="487"/>
      <point x="233" y="559"/>
      <point x="318" y="559" type="curve" smooth="yes"/>
      <point x="403" y="559"/>
      <point x="444" y="487"/>
      <point x="444" y="330" type="curve" smooth="yes"/>
      <point x="444" y="173"/>
      <point x="403" y="101"/>
      <point x="318" y="101" type="curve" smooth="yes"/>
      <point x="233" y="101"/>
      <point x="192" y="173"/>
    </contour>
  </outline>
</glyph>
<glyph name="one" format="2">
  <advance width="428"/>
  <unicode hex="0031"/>
  <outline>
    <contour>
      <point x="343" y="660" type="line"/>
      <point x="231" y="660" type="line"/>
      <point x="218" y="609"/>
      <point x="209" y="540"/>
      <point x="209" y="492" type="curve" smooth="yes"/>
      <point x="209" y="0" type="line"/>
      <point x="343" y="0" type="line"/>
      <point x="343" y="506" type="line"/>
    </contour>
    <contour>
      <point x="292" y="628" type="curve"/>
      <point x="231" y="660" type="line"/>
      <point x="197" y="611"/>
      <point x="91" y="553"/>
      <point x="31" y="546" type="curve"/>
      <point x="49" y="430" type="line"/>
      <point x="155" y="450"/>
      <point x="257" y="545"/>
    </contour>
  </outline>
</glyph>
<glyph name="two" format="2">
  <advance width="591"/>
  <unicode hex="0032"/>
  <outline>
    <contour>
      <point x="541" y="0" type="line"/>
      <point x="541" y="111" type="line"/>
      <point x="359" y="111" type="line" smooth="yes"/>
      <point x="325" y="111"/>
      <point x="267" y="109"/>
      <point x="238" y="107" type="curve"/>
      <point x="238" y="108" type="line"/>
      <point x="438" y="231"/>
      <point x="531" y="333"/>
      <point x="531" y="460" type="curve" smooth="yes"/>
      <point x="531" y="570"/>
      <point x="453" y="670"/>
      <point x="293" y="670" type="curve" smooth="yes"/>
      <point x="150" y="670"/>
      <point x="53" y="591"/>
      <point x="44" y="456" type="curve"/>
      <point x="163" y="411" type="line"/>
      <point x="167" y="504"/>
      <point x="211" y="557"/>
      <point x="285" y="557" type="curve" smooth="yes"/>
      <point x="353" y="557"/>
      <point x="392" y="513"/>
      <point x="392" y="452" type="curve" smooth="yes"/>
      <point x="392" y="351"/>
      <point x="305" y="254"/>
      <point x="65" y="94" type="curve"/>
      <point x="65" y="0" type="line"/>
    </contour>
  </outline>
</glyph>
<glyph name="three" format="2">
  <advance width="589"/>
  <unicode hex="0033"/>
  <outline>
    <contour>
      <point x="58" y="510" type="curve"/>
      <point x="181" y="465" type="line"/>
      <point x="190" y="527"/>
      <point x="229" y="559"/>
      <point x="290" y="559" type="curve" smooth="yes"/>
      <point x="350" y="559"/>
      <point x="385" y="527"/>
      <point x="384" y="466" type="curve" smooth="yes"/>
      <point x="384" y="407"/>
      <point x="348" y="378"/>
      <point x="276" y="378" type="curve" smooth="yes"/>
      <point x="248" y="378" type="line"/>
      <point x="248" y="282" type="line"/>
      <point x="281" y="282" type="line" smooth="yes"/>
      <point x="360" y="282"/>
      <point x="398" y="259"/>
      <point x="399" y="197" type="curve" smooth="yes"/>
      <point x="400" y="139"/>
      <point x="358" y="101"/>
      <point x="288" y="101" type="curve" smooth="yes"/>
      <point x="215" y="101"/>
      <point x="178" y="136"/>
      <point x="164" y="208" type="curve"/>
      <point x="39" y="152" type="line"/>
      <point x="77" y="41"/>
      <point x="158" y="-10"/>
      <point x="287" y="-10" type="curve" smooth="yes"/>
      <point x="433" y="-10"/>
      <point x="534" y="67"/>
      <point x="534" y="179" type="curve" smooth="yes"/>
      <point x="534" y="284"/>
      <point x="458" y="331"/>
      <point x="397" y="331" type="curve"/>
      <point x="397" y="334" type="line"/>
      <point x="445" y="334"/>
      <point x="521" y="385"/>
      <point x="521" y="490" type="curve" smooth="yes"/>
      <point x="521" y="594"/>
      <point x="441" y="670"/>
      <point x="296" y="670" type="curve" smooth="yes"/>
      <point x="178" y="670"/>
      <point x="84" y="619"/>
    </contour>
  </outline>
</glyph>
<glyph name="six" format="2">
  <advance width="617"/>
  <unicode hex="0036"/>
  <outline>
    <contour>
      <point x="58" y="330" type="curve" smooth="yes"/>
      <point x="58" y="117"/>
      <point x="153" y="-10"/>
      <point x="325" y="-10" type="curve" smooth="yes"/>
      <point x="478" y="-10"/>
      <point x="569" y="74"/>
      <point x="569" y="205" type="curve" smooth="yes"/>
      <point x="569" y="332"/>
      <point x="480" y="413"/>
      <point x="353" y="413" type="curve" smooth="yes"/>
      <point x="277" y="413"/>
      <point x="207" y="382"/>
      <point x="185" y="314" type="curve"/>
      <point x="182" y="314" type="line"/>
      <point x="182" y="323"/>
      <point x="182" y="327"/>
      <point x="182" y="331" type="curve" smooth="yes"/>
      <point x="182" y="465"/>
      <point x="242" y="556"/>
      <point x="327" y="556" type="curve" smooth="yes"/>
      <point x="391" y="556"/>
      <point x="426" y="524"/>
      <point x="442" y="472" type="curve"/>
      <point x="558" y="526" type="line"/>
      <point x="520" y="630"/>
      <point x="442" y="670"/>
      <point x="336" y="670" type="curve" smooth="yes"/>
      <point x="178" y="670"/>
      <point x="58" y="559"/>
    </contour>
    <contour>
      <point x="439" y="207" type="curve" smooth="yes"/>
      <point x="439" y="139"/>
      <point x="398" y="100"/>
      <point x="327" y="100" type="curve" smooth="yes"/>
      <point x="259" y="100"/>
      <point x="214" y="141"/>
      <point x="214" y="207" type="curve" smooth="yes"/>
      <point x="214" y="270"/>
      <point x="259" y="312"/>
      <point x="327" y="312" type="curve" smooth="yes"/>
      <point x="398" y="312"/>
      <point x="439" y="272"/>
    </contour>
  </outline>
</glyph>
<glyph name="seven" format="2">
  <advance width="595"/>
  <unicode hex="0037"/>
  <outline>
    <contour>
      <point x="41" y="547" type="line"/>
      <point x="490" y="547" type="line"/>
      <point x="462" y="583" type="line"/>
      <point x="283" y="413"/>
      <point x="202" y="220"/>
      <point x="202" y="0" type="curve"/>
      <point x="340" y="0" type="line"/>
      <point x="340" y="210"/>
      <point x="398" y="389"/>
      <point x="564" y="555" type="curve"/>
      <point x="564" y="660" type="line"/>
      <point x="41" y="660" type="line"/>
    </contour>
  </outline>
</glyph>
<glyph name="less" format="2">
  <advance width="604"/>
  <unicode hex="003C"/>
  <outline>
    <contour>
      <point x="551" y="449" type="line"/>
      <point x="551" y="582" type="line"/>
      <point x="66" y="361" type="line"/>
      <point x="66" y="260" type="line"/>
    </contour>
    <contour>
      <point x="66" y="335" type="line"/>
      <point x="66" y="234" type="line"/>
      <point x="551" y="14" type="line"/>
      <point x="551" y="146" type="line"/>
    </contour>
  </outline>
</glyph>
<glyph name="equal" format="2">
  <advance width="604"/>
  <unicode hex="003D"/>
  <outline>
    <contour>
      <point x="64" y="468" type="line"/>
      <point x="64" y="366" type="line"/>
      <point x="540" y="366" type="line"/>
      <point x="540" y="468" type="line"/>
    </contour>
    <contour>
      <point x="64" y="257" type="line"/>
      <point x="64" y="156" type="line"/>
      <point x="540" y="156" type="line"/>
      <point x="540" y="257" type="line"/>
    </contour>
  </outline>
</glyph>
<glyph name="A" format="2">
  <advance width="671"/>
  <unicode hex="0041"/>
  <anchor x="335" y="660" name="top"/>
  <anchor x="659" y="0" name="ogonek"/>
  <anchor x="335" y="0" name="bottom"/>
  <anchor x="598" y="0" name="bottomC"/>
  <outline>
    <contour>
      <point x="153" y="0" type="line"/>
      <point x="305" y="451" type="line"/>
      <point x="333" y="549" type="line"/>
      <point x="335" y="549" type="line"/>
      <point x="365" y="449" type="line"/>
      <point x="516" y="0" type="line"/>
      <point x="659" y="0" type="line"/>
      <point x="418" y="660" type="line"/>
      <point x="253" y="660" type="line"/>
      <point x="12" y="0" type="line"/>
    </contour>
    <contour>
      <point x="516" y="161" type="line"/>
      <point x="516" y="263" type="line"/>
      <point x="154" y="263" type="line"/>
      <point x="154" y="161" type="line"/>
    </contour>
  </outline>
</glyph>
<glyph name="D" format="2">
  <advance width="719"/>
  <unicode hex="0044"/>
  <anchor x="327" y="0" name="bottom"/>
  <anchor x="327" y="660" name="top"/>
  <anchor x="341" y="0" name="ogonek"/>
  <anchor x="233" y="210" name="center"/>
  <anchor x="324" y="0" name="bottomC"/>
  <outline>
    <contour>
      <point x="175" y="660" type="line"/>
      <point x="175" y="550" type="line"/>
      <point x="334" y="550" type="line" smooth="yes"/>
      <point x="460" y="550"/>
      <point x="523" y="472"/>
      <point x="523" y="330" type="curve" smooth="yes"/>
      <point x="523" y="188"/>
      <point x="460" y="110"/>
      <point x="334" y="110" type="curve" smooth="yes"/>
      <point x="175" y="110" type="line"/>
      <point x="175" y="0" type="line"/>
      <point x="341" y="0" type="line" smooth="yes"/>
      <point x="548" y="0"/>
      <point x="666" y="119"/>
      <point x="666" y="330" type="curve" smooth="yes"/>
      <point x="666" y="541"/>
      <point x="548" y="660"/>
      <point x="341" y="660" type="curve" smooth="yes"/>
    </contour>
    <contour>
      <point x="86" y="660" type="line"/>
      <point x="86" y="0" type="line"/>
      <point x="224" y="0" type="line"/>
      <point x="224" y="660" type="line"/>
    </contour>
  </outline>
</glyph>
<glyph name="E" format="2">
  <advance width="633"/>
  <unicode hex="0045"/>
  <anchor x="329" y="660" name="top"/>
  <anchor x="596" y="0" name="ogonek"/>
  <anchor x="335" y="0" name="bottom"/>
  <anchor x="335" y="0" name="bottomC"/>
  <outline>
    <contour>
      <point x="86" y="660" type="line"/>
      <point x="86" y="0" type="line"/>
      <point x="224" y="0" type="line"/>
      <point x="224" y="660" type="line"/>
    </contour>
    <contour>
      <point x="155" y="111" type="line"/>
      <point x="155" y="0" type="line"/>
      <point x="595" y="0" type="line"/>
      <point x="595" y="111" type="line"/>
    </contour>
    <contour>
      <point x="155" y="385" type="line"/>
      <point x="155" y="279" type="line"/>
      <point x="505" y="279" type="line"/>
      <point x="505" y="385" type="line"/>
    </contour>
    <contour>
      <point x="155" y="660" type="line"/>
      <point x="155" y="549" type="line"/>
      <point x="581" y="549" type="line"/>
      <point x="581" y="660" type="line"/>
    </contour>
  </outline>
</glyph>
<glyph name="F" format="2">
  <advance width="612"/>
  <unicode hex="0046"/>
  <anchor x="324" y="660" name="top"/>
  <anchor x="224" y="0" name="ogonek"/>
  <anchor x="155" y="0" name="bottom"/>
  <anchor x="168" y="0" name="bottomC"/>
  <outline>
    <contour>
      <point x="86" y="660" type="line"/>
      <point x="86" y="0" type="line"/>
      <point x="224" y="0" type="line"/>
      <point x="224" y="660" type="line"/>
    </contour>
    <contour>
      <point x="155" y="382" type="line"/>
      <point x="155" y="270" type="line"/>
      <point x="505" y="270" type="line"/>
      <point x="505" y="382" type="line"/>
    </contour>
    <contour>
      <point x="155" y="660" type="line"/>
      <point x="155" y="549" type="line"/>
      <point x="580" y="549" type="line"/>
      <point x="580" y="660" type="line"/>
    </contour>
  </outline>
</glyph>
<glyph name="I" format="2">
  <advance width="310"/>
  <unicode hex="0049"/>
  <anchor x="155" y="660" name="top"/>
  <anchor x="224" y="0" name="ogonek"/>
  <anchor x="155" y="0" name="bottom"/>
  <anchor x="155" y="0" name="bottomC"/>
  <outline>
    <contour>
      <point x="86" y="660" type="line"/>
      <point x="86" y="0" type="line"/>
      <point x="224" y="0" type="line"/>
      <point x="224" y="660" type="line"/>
    </contour>
  </outline>
</glyph>
<glyph name="K" format="2">
  <advance width="679"/>
  <unicode hex="004B"/>
  <anchor x="355" y="660" name="top"/>
  <anchor x="663" y="0" name="ogonek"/>
  <anchor x="367" y="0" name="bottom"/>
  <anchor x="594" y="0" name="bottomC"/>
  <outline>
    <contour>
      <point x="495" y="660" type="line"/>
      <point x="156" y="269" type="line"/>
      <point x="177" y="141" type="line"/>
      <point x="342" y="328" type="line"/>
      <point x="353" y="317" type="line"/>
      <point x="655" y="660" type="line"/>
    </contour>
    <contour>
      <point x="86" y="660" type="line"/>
      <point x="86" y="0" type="line"/>
      <point x="224" y="0" type="line"/>
      <point x="224" y="660" type="line"/>
    </contour>
    <contour>
      <point x="285" y="355" type="line"/>
      <point x="505" y="0" type="line"/>
      <point x="663" y="0" type="line"/>
      <point x="391" y="432" type="line"/>
    </contour>
  </outline>
</glyph>
<glyph name="M" format="2">
  <advance width="890"/>
  <unicode hex="004D"/>
  <anchor x="445" y="660" name="top"/>
  <anchor x="804" y="0" name="ogonek"/>
  <anchor x="445" y="0" name="bottom"/>
  <anchor x="467" y="0" name="bottomC"/>
  <outline>
    <contour>
      <point x="610" y="660" type="line"/>
      <point x="492" y="299" type="line"/>
      <point x="449" y="151" type="line"/>
      <point x="447" y="151" type="line"/>
      <point x="405" y="300" type="line"/>
      <point x="286" y="660" type="line"/>
      <point x="86" y="660" type="line"/>
      <point x="86" y="0" type="line"/>
      <point x="211" y="0" type="line"/>
      <point x="211" y="344" type="line"/>
      <point x="204" y="537" type="line"/>
      <point x="206" y="537" type="line"/>
      <point x="388" y="0" type="line"/>
      <point x="501" y="0" type="line"/>
      <point x="684" y="537" type="line"/>
      <point x="686" y="537" type="line"/>
      <point x="680" y="344" type="line"/>
      <point x="680" y="0" type="line"/>
      <point x="804" y="0" type="line"/>
      <point x="804" y="660" type="line"/>
    </contour>
  </outline>
</glyph>
<glyph name="O" format="2">
  <advance width="741"/>
  <unicode hex="004F"/>
  <anchor x="371" y="660" name="top"/>
  <anchor x="452" y="0" name="ogonek"/>
  <anchor x="371" y="0" name="bottom"/>
  <anchor x="371" y="0" name="bottomC"/>
  <outline>
    <contour>
      <point x="53" y="330" type="curve" smooth="yes"/>
      <point x="53" y="118"/>
      <point x="175" y="-10"/>
      <point x="371" y="-10" type="curve" smooth="yes"/>
      <point x="567" y="-10"/>
      <point x="688" y="118"/>
      <point x="688" y="330" type="curve" smooth="yes"/>
      <point x="688" y="542"/>
      <point x="567" y="670"/>
      <point x="371" y="670" type="curve" smooth="yes"/>
      <point x="175" y="670"/>
      <point x="53" y="542"/>
    </contour>
    <contour>
      <point x="545" y="330" type="curve" smooth="yes"/>
      <point x="545" y="183"/>
      <point x="481" y="103"/>
      <point x="371" y="103" type="curve" smooth="yes"/>
      <point x="260" y="103"/>
      <point x="196" y="183"/>
      <point x="196" y="330" type="curve" smooth="yes"/>
      <point x="196" y="477"/>
      <point x="260" y="557"/>
      <point x="371" y="557" type="curve" smooth="yes"/>
      <point x="481" y="557"/>
      <point x="545" y="477"/>
    </contour>
  </outline>
</glyph>
<glyph name="Q" format="2">
  <advance width="741"/>
  <unicode hex="0051"/>
  <anchor x="371" y="660" name="top"/>
  <anchor x="574" y="-195" name="ogonek"/>
  <anchor x="371" y="-210" name="bottom"/>
  <anchor x="530" y="-195" name="bottomC"/>
  <outline>
    <contour>
      <point x="322" y="20" type="line"/>
      <point x="308" y="-128"/>
      <point x="390" y="-201"/>
      <point x="523" y="-201" type="curve" smooth="yes"/>
      <point x="589" y="-201"/>
      <point x="651" y="-183"/>
      <point x="685" y="-154" type="curve"/>
      <point x="649" y="-48" type="line"/>
      <point x="623" y="-72"/>
      <point x="580" y="-86"/>
      <point x="528" y="-86" type="curve" smooth="yes"/>
      <point x="457" y="-86"/>
      <point x="408" y="-66"/>
      <point x="418" y="34" type="curve"/>
    </contour>
    <component base="O"/>
  </outline>
</glyph>
<glyph name="S" format="2">
  <advance width="643"/>
  <unicode hex="0053"/>
  <anchor x="328" y="660" name="top"/>
  <anchor x="414" y="0" name="ogonek"/>
  <anchor x="351" y="0" name="bottom"/>
  <anchor x="329" y="0" name="bottomC"/>
  <outline>
    <contour>
      <point x="57" y="462" type="curve" smooth="yes"/>
      <point x="57" y="338"/>
      <point x="156" y="293"/>
      <point x="307" y="267" type="curve" smooth="yes"/>
      <point x="414" y="248"/>
      <point x="457" y="225"/>
      <point x="457" y="180" type="curve" smooth="yes"/>
      <point x="457" y="130"/>
      <point x="408" y="101"/>
      <point x="324" y="101" type="curve" smooth="yes"/>
      <point x="224" y="101"/>
      <point x="157" y="141"/>
      <point x="114" y="209" type="curve"/>
      <point x="34" y="114" type="line"/>
      <point x="93" y="41"/>
      <point x="179" y="-10"/>
      <point x="329" y="-10" type="curve" smooth="yes"/>
      <point x="486" y="-10"/>
      <point x="599" y="64"/>
      <point x="599" y="188" type="curve" smooth="yes"/>
      <point x="599" y="299"/>
      <point x="531" y="358"/>
      <point x="347" y="390" type="curve" smooth="yes"/>
      <point x="241" y="408"/>
      <point x="199" y="430"/>
      <point x="199" y="475" type="curve" smooth="yes"/>
      <point x="199" y="522"/>
      <point x="247" y="559"/>
      <point x="330" y="559" type="curve" smooth="yes"/>
      <point x="418" y="559"/>
      <point x="471" y="529"/>
      <point x="519" y="453" type="curve"/>
      <point x="600" y="543" type="line"/>
      <point x="533" y="631"/>
      <point x="449" y="670"/>
      <point x="326" y="670" type="curve" smooth="yes"/>
      <point x="156" y="670"/>
      <point x="57" y="579"/>
    </contour>
  </outline>
</glyph>
<glyph name="T" format="2">
  <advance width="635"/>
  <unicode hex="0054"/>
  <anchor x="318" y="0" name="bottom"/>
  <anchor x="318" y="660" name="top"/>
  <anchor x="387" y="0" name="ogonek"/>
  <anchor x="318" y="330" name="center"/>
  <anchor x="347" y="0" name="bottomC"/>
  <outline>
    <contour>
      <point x="249" y="660" type="line"/>
      <point x="249" y="0" type="line"/>
      <point x="387" y="0" type="line"/>
      <point x="387" y="660" type="line"/>
    </contour>
    <contour>
      <point x="27" y="660" type="line"/>
      <point x="27" y="549" type="line"/>
      <point x="608" y="549" type="line"/>
      <point x="608" y="660" type="line"/>
    </contour>
  </outline>
</glyph>
<glyph name="Z" format="2">
  <advance width="633"/>
  <unicode hex="005A"/>
  <anchor x="315" y="660" name="top"/>
  <anchor x="593" y="0" name="ogonek"/>
  <anchor x="306" y="0" name="bottom"/>
  <anchor x="306" y="0" name="bottomC"/>
  <outline>
    <contour>
      <point x="581" y="556" type="line"/>
      <point x="581" y="660" type="line"/>
      <point x="52" y="660" type="line"/>
      <point x="52" y="550" type="line"/>
      <point x="494" y="550" type="line"/>
      <point x="470" y="598" type="line"/>
      <point x="44" y="104" type="line"/>
      <point x="44" y="0" type="line"/>
      <point x="593" y="0" type="line"/>
      <point x="593" y="110" type="line"/>
      <point x="131" y="110" type="line"/>
      <point x="156" y="62" type="line"/>
    </contour>
  </outline>
</glyph>
<glyph name="bracketleft" format="2">
  <advance width="375"/>
  <unicode hex="005B"/>
  <outline>
    <contour>
      <point x="86" y="719" type="line"/>
      <point x="86" y="-168" type="line"/>
      <point x="206" y="-168" type="line"/>
      <point x="206" y="719" type="line"/>
    </contour>
    <contour>
      <point x="148" y="-67" type="line"/>
      <point x="148" y="-168" type="line"/>
      <point x="347" y="-168" type="line"/>
      <point x="347" y="-67" type="line"/>
    </contour>
    <contour>
      <point x="148" y="719" type="line"/>
      <point x="148" y="618" type="line"/>
      <point x="347" y="618" type="line"/>
      <point x="347" y="719" type="line"/>
    </contour>
  </outline>
</glyph>
<glyph name="b" format="2">
  <advance width="629"/>
  <unicode hex="0062"/>
  <anchor x="141" y="719" name="top"/>
  <anchor x="463" y="14" name="ogonek"/>
  <anchor x="320" y="0" name="bottom"/>
  <anchor x="367" y="0" name="bottomC"/>
  <outline>
    <contour>
      <point x="72" y="719" type="line"/>
      <point x="72" y="156" type="line"/>
      <point x="72" y="0" type="line"/>
      <point x="193" y="0" type="line"/>
      <point x="200" y="135" type="line"/>
      <point x="209" y="186" type="line"/>
      <point x="209" y="719" type="line"/>
    </contour>
    <component base="bowl" xScale="-1.0" xOffset="660"/>
  </outline>
</glyph>
<glyph name="d" format="2">
  <advance width="629"/>
  <unicode hex="0064"/>
  <anchor x="318" y="250" name="center"/>
  <anchor x="309" y="0" name="bottom"/>
  <anchor x="488" y="719" name="top"/>
  <anchor x="276" y="0" name="bottomC"/>
  <anchor x="625" y="719" name="topright"/>
  <anchor x="353" y="14" name="ogonek"/>
  <outline>
    <contour>
      <point x="419" y="719" type="line"/>
      <point x="419" y="159" type="line"/>
      <point x="425" y="134" type="line"/>
      <point x="434" y="0" type="line"/>
      <point x="556" y="0" type="line"/>
      <point x="556" y="156" type="line"/>
      <point x="556" y="719" type="line"/>
    </contour>
    <component base="bowl" xOffset="-31"/>
  </outline>
</glyph>
<glyph name="e" format="2">
  <advance width="582"/>
  <unicode hex="0065"/>
  <anchor x="295" y="500" name="top"/>
  <anchor x="367" y="38" name="ogonek"/>
  <anchor x="295" y="0" name="bottom"/>
  <anchor x="300" y="0" name="bottomC"/>
  <outline>
    <contour>
      <point x="528" y="113" type="curve"/>
      <point x="416" y="154" type="line"/>
      <point x="402" y="114"/>
      <point x="364" y="92"/>
      <point x="306" y="92" type="curve" smooth="yes"/>
      <point x="225" y="92"/>
      <point x="177" y="142"/>
      <point x="177" y="248" type="curve" smooth="yes"/>
      <point x="177" y="355"/>
      <point x="219" y="409"/>
      <point x="298" y="409" type="curve" smooth="yes"/>
      <point x="373" y="409"/>
      <point x="409" y="351"/>
      <point x="410" y="255" type="curve"/>
      <point x="474" y="291" type="line"/>
      <point x="135" y="291" type="line"/>
      <point x="135" y="215" type="line"/>
      <point x="533" y="215" type="line"/>
      <point x="536" y="228"/>
      <point x="538" y="250"/>
      <point x="538" y="272" type="curve" smooth="yes"/>
      <point x="538" y="408"/>
      <point x="454" y="510"/>
      <point x="298" y="510" type="curve" smooth="yes"/>
      <point x="137" y="510"/>
      <point x="46" y="414"/>
      <point x="46" y="250" type="curve" smooth="yes"/>
      <point x="46" y="86"/>
      <point x="140" y="-10"/>
      <point x="306" y="-10" type="curve" smooth="yes"/>
      <point x="419" y="-10"/>
      <point x="496" y="33"/>
    </contour>
  </outline>
</glyph>
<glyph name="g" format="2">
  <advance width="549"/>
  <unicode hex="0067"/>
  <anchor x="262" y="500" name="top"/>
  <anchor x="409" y="-196" name="ogonek"/>
  <anchor x="279" y="-210" name="bottom"/>
  <anchor x="279" y="-210" name="bottomC"/>
  <outline>
    <contour>
      <point x="379" y="465" type="curve"/>
      <point x="435" y="445" type="line"/>
      <point x="434" y="496"/>
      <point x="475" y="528"/>
      <point x="549" y="521" type="curve"/>
      <point x="531" y="619" type="line"/>
      <point x="433" y="624"/>
      <point x="378" y="551"/>
    </contour>
    <component base="gbase" xOffset="-8"/>
  </outline>
</glyph>
<glyph name="h" format="2">
  <advance width="619"/>
  <unicode hex="0068"/>
  <anchor x="141" y="719" name="top"/>
  <anchor x="550" y="0" name="ogonek"/>
  <anchor x="327" y="0" name="bottom"/>
  <anchor x="482" y="0" name="bottomC"/>
  <outline>
    <contour>
      <point x="72" y="719" type="line"/>
      <point x="72" y="0" type="line"/>
      <point x="209" y="0" type="line"/>
      <point x="209" y="719" type="line"/>
    </contour>
    <contour>
      <point x="182" y="278" type="curve"/>
      <point x="209" y="264" type="line"/>
      <point x="209" y="364"/>
      <point x="266" y="402"/>
      <point x="324" y="402" type="curve" smooth="yes"/>
      <point x="376" y="402"/>
      <point x="413" y="374"/>
      <point x="413" y="288" type="curve" smooth="yes"/>
      <point x="413" y="0" type="line"/>
      <point x="550" y="0" type="line"/>
      <point x="550" y="328" type="line" smooth="yes"/>
      <point x="550" y="449"/>
      <point x="474" y="510"/>
      <point x="370" y="510" type="curve" smooth="yes"/>
      <point x="260" y="510"/>
      <point x="182" y="437"/>
    </contour>
  </outline>
</glyph>
<glyph name="i" format="2">
  <advance width="282"/>
  <unicode hex="0069"/>
  <anchor x="141" y="709" name="top"/>
  <anchor x="202" y="4" name="ogonek"/>
  <anchor x="141" y="0" name="bottom"/>
  <anchor x="141" y="0" name="bottomC"/>
  <outline>
    <contour>
      <point x="226" y="645" type="curve" smooth="yes"/>
      <point x="226" y="694"/>
      <point x="198" y="719"/>
      <point x="141" y="719" type="curve" smooth="yes"/>
      <point x="84" y="719"/>
      <point x="56" y="694"/>
      <point x="56" y="645" type="curve" smooth="yes"/>
      <point x="56" y="596"/>
      <point x="84" y="572"/>
      <point x="141" y="572" type="curve" smooth="yes"/>
      <point x="198" y="572"/>
      <point x="226" y="596"/>
    </contour>
    <component base="idotless"/>
  </outline>
</glyph>
<glyph name="n" format="2">
  <advance width="619"/>
  <unicode hex="006E"/>
  <anchor x="315" y="500" name="top"/>
  <anchor x="550" y="0" name="ogonek"/>
  <anchor x="327" y="0" name="bottom"/>
  <anchor x="482" y="0" name="bottomC"/>
  <outline>
    <contour>
      <point x="173" y="280" type="curve"/>
      <point x="209" y="264" type="line"/>
      <point x="209" y="364"/>
      <point x="266" y="402"/>
      <point x="324" y="402" type="curve" smooth="yes"/>
      <point x="376" y="402"/>
      <point x="413" y="374"/>
      <point x="413" y="288" type="curve" smooth="yes"/>
      <point x="413" y="0" type="line"/>
      <point x="550" y="0" type="line"/>
      <point x="550" y="328" type="line" smooth="yes"/>
      <point x="550" y="449"/>
      <point x="474" y="510"/>
      <point x="370" y="510" type="curve" smooth="yes"/>
      <point x="257" y="510"/>
      <point x="173" y="438"/>
    </contour>
    <contour>
      <point x="72" y="500" type="line"/>
      <point x="72" y="344" type="line"/>
      <point x="72" y="0" type="line"/>
      <point x="209" y="0" type="line"/>
      <point x="209" y="341" type="line"/>
      <point x="202" y="366" type="line"/>
      <point x="195" y="500" type="line"/>
    </contour>
  </outline>
</glyph>
<glyph name="p" format="2">
  <advance width="629"/>
  <unicode hex="0070"/>
  <anchor x="320" y="500" name="top"/>
  <anchor x="463" y="14" name="ogonek"/>
  <anchor x="141" y="-210" name="bottom"/>
  <anchor x="367" y="0" name="bottomC"/>
  <outline>
    <contour>
      <point x="72" y="500" type="line"/>
      <point x="72" y="344" type="line"/>
      <point x="72" y="-210" type="line"/>
      <point x="209" y="-210" type="line"/>
      <point x="209" y="340" type="line"/>
      <point x="200" y="366" type="line"/>
      <point x="193" y="500" type="line"/>
    </contour>
    <component base="bowl" xScale="-1.0" yScale="-1.0" xOffset="660" yOffset="500"/>
  </outline>
</glyph>
<glyph name="s" format="2">
  <advance width="531"/>
  <unicode hex="0073"/>
  <anchor x="271" y="500" name="top"/>
  <anchor x="395" y="14" name="ogonek"/>
  <anchor x="277" y="0" name="bottom"/>
  <anchor x="271" y="0" name="bottomC"/>
  <outline>
    <contour>
      <point x="494" y="150" type="curve" smooth="yes"/>
      <point x="494" y="236"/>
      <point x="437" y="281"/>
      <point x="292" y="304" type="curve" smooth="yes"/>
      <point x="212" y="316"/>
      <point x="185" y="332"/>
      <point x="185" y="362" type="curve" smooth="yes"/>
      <point x="185" y="388"/>
      <point x="221" y="414"/>
      <point x="277" y="414" type="curve" smooth="yes"/>
      <point x="334" y="414"/>
      <point x="382" y="396"/>
      <point x="409" y="341" type="curve"/>
      <point x="487" y="408" type="line"/>
      <point x="455" y="472"/>
      <point x="388" y="510"/>
      <point x="273" y="510" type="curve" smooth="yes"/>
      <point x="125" y="510"/>
      <point x="48" y="432"/>
      <point x="48" y="351" type="curve" smooth="yes"/>
      <point x="48" y="268"/>
      <point x="103" y="224"/>
      <point x="247" y="197" type="curve" smooth="yes"/>
      <point x="330" y="182"/>
      <point x="356" y="165"/>
      <point x="356" y="137" type="curve" smooth="yes"/>
      <point x="356" y="108"/>
      <point x="324" y="86"/>
      <point x="265" y="86" type="curve" smooth="yes"/>
      <point x="197" y="86"/>
      <point x="139" y="112"/>
      <point x="111" y="162" type="curve"/>
      <point x="32" y="88" type="line"/>
      <point x="78" y="20"/>
      <point x="163" y="-10"/>
      <point x="266" y="-10" type="curve" smooth="yes"/>
      <point x="415" y="-10"/>
      <point x="494" y="60"/>
    </contour>
  </outline>
</glyph>
<glyph name="t" format="2">
  <advance width="429"/>
  <unicode hex="0074"/>
  <anchor x="161" y="250" name="center"/>
  <anchor x="254" y="0" name="bottom"/>
  <anchor x="179" y="719" name="top"/>
  <anchor x="294" y="0" name="bottomC"/>
  <anchor x="321" y="767" name="topright"/>
  <anchor x="386" y="14" name="ogonek"/>
  <outline>
    <contour>
      <point x="111" y="615" type="line"/>
      <point x="111" y="141" type="line" smooth="yes"/>
      <point x="111" y="31"/>
      <point x="179" y="-10"/>
      <point x="278" y="-10" type="curve" smooth="yes"/>
      <point x="331" y="-10"/>
      <point x="383" y="5"/>
      <point x="415" y="31" type="curve"/>
      <point x="394" y="122" type="line"/>
      <point x="373" y="104"/>
      <point x="350" y="94"/>
      <point x="317" y="94" type="curve" smooth="yes"/>
      <point x="274" y="94"/>
      <point x="248" y="115"/>
      <point x="248" y="163" type="curve" smooth="yes"/>
      <point x="248" y="653" type="line"/>
    </contour>
    <contour>
      <point x="20" y="500" type="line"/>
      <point x="20" y="398" type="line"/>
      <point x="410" y="398" type="line"/>
      <point x="410" y="500" type="line"/>
    </contour>
  </outline>
</glyph>
<glyph name="u" format="2">
  <advance width="619"/>
  <unicode hex="0075"/>
  <anchor x="306" y="500" name="top"/>
  <anchor x="547" y="0" name="ogonek"/>
  <anchor x="306" y="0" name="bottom"/>
  <anchor x="496" y="0" name="bottomC"/>
  <outline>
    <contour>
      <point x="69" y="500" type="line"/>
      <point x="69" y="169" type="line" smooth="yes"/>
      <point x="69" y="41"/>
      <point x="144" y="-10"/>
      <point x="245" y="-10" type="curve" smooth="yes"/>
      <point x="368" y="-10"/>
      <point x="447" y="61"/>
      <point x="447" y="220" type="curve"/>
      <point x="410" y="232" type="line"/>
      <point x="410" y="139"/>
      <point x="358" y="98"/>
      <point x="293" y="98" type="curve" smooth="yes"/>
      <point x="239" y="98"/>
      <point x="206" y="123"/>
      <point x="206" y="204" type="curve" smooth="yes"/>
      <point x="206" y="500" type="line"/>
    </contour>
    <contour>
      <point x="410" y="500" type="line"/>
      <point x="410" y="159" type="line"/>
      <point x="417" y="134" type="line"/>
      <point x="425" y="0" type="line"/>
      <point x="547" y="0" type="line"/>
      <point x="547" y="500" type="line"/>
    </contour>
  </outline>
</glyph>
<glyph name="y" format="2">
  <advance width="557"/>
  <unicode hex="0079"/>
  <anchor x="292" y="500" name="top"/>
  <anchor x="182" y="-210" name="ogonek"/>
  <anchor x="177" y="-210" name="bottom"/>
  <anchor x="140" y="-210" name="bottomC"/>
  <outline>
    <contour>
      <point x="412" y="500" type="line"/>
      <point x="320" y="206" type="line"/>
      <point x="290" y="100" type="line"/>
      <point x="263" y="200" type="line"/>
      <point x="169" y="500" type="line"/>
      <point x="17" y="500" type="line"/>
      <point x="170" y="123" type="line"/>
      <point x="225" y="-7" type="line"/>
      <point x="207" y="-50" type="line" smooth="yes"/>
      <point x="189" y="-98"/>
      <point x="163" y="-110"/>
      <point x="125" y="-110" type="curve" smooth="yes"/>
      <point x="89" y="-110"/>
      <point x="63" y="-104"/>
      <point x="41" y="-79" type="curve"/>
      <point x="7" y="-176" type="line"/>
      <point x="39" y="-203"/>
      <point x="79" y="-215"/>
      <point x="134" y="-215" type="curve" smooth="yes"/>
      <point x="242" y="-215"/>
      <point x="300" y="-167"/>
      <point x="349" y="-31" type="curve" smooth="yes"/>
      <point x="551" y="500" type="line"/>
    </contour>
  </outline>
</glyph>
<glyph name="asciitilde" format="2">
  <advance width="576"/>
  <unicode hex="007E"/>
  <outline>
    <contour>
      <point x="421" y="410" type="line"/>
      <point x="415" y="368"/>
      <point x="399" y="345"/>
      <point x="369" y="345" type="curve" smooth="yes"/>
      <point x="315" y="345"/>
      <point x="284" y="413"/>
      <point x="193" y="413" type="curve" smooth="yes"/>
      <point x="99" y="413"/>
      <point x="50" y="352"/>
      <point x="43" y="235" type="curve"/>
      <point x="155" y="235" type="line"/>
      <point x="161" y="277"/>
      <point x="177" y="300"/>
      <point x="208" y="300" type="curve" smooth="yes"/>
      <point x="262" y="300"/>
      <point x="291" y="232"/>
      <point x="384" y="232" type="curve" smooth="yes"/>
      <point x="476" y="232"/>
      <point x="526" y="294"/>
      <point x="533" y="410" type="curve"/>
    </contour>
  </outline>
</glyph>
<glyph name="sterling" format="2">
  <advance width="624"/>
  <unicode hex="00A3"/>
  <outline>
    <contour>
      <point x="65" y="351" type="line"/>
      <point x="65" y="264" type="line"/>
      <point x="489" y="264" type="line"/>
      <point x="489" y="351" type="line"/>
    </contour>
    <component base="sterling.part" xOffset="13"/>
  </outline>
</glyph>
<glyph name="currency" format="2">
  <advance width="653"/>
  <unicode hex="00A4"/>
  <outline>
    <contour>
      <point x="114" y="329" type="curve" smooth="yes"/>
      <point x="114" y="207"/>
      <point x="202" y="120"/>
      <point x="327" y="120" type="curve" smooth="yes"/>
      <point x="452" y="120"/>
      <point x="539" y="207"/>
      <point x="539" y="329" type="curve" smooth="yes"/>
      <point x="539" y="452"/>
      <point x="452" y="538"/>
      <point x="327" y="538" type="curve" smooth="yes"/>
      <point x="202" y="538"/>
      <point x="114" y="452"/>
    </contour>
    <contour>
      <point x="427" y="329" type="curve" smooth="yes"/>
      <point x="427" y="266"/>
      <point x="386" y="223"/>
      <point x="327" y="223" type="curve" smooth="yes"/>
      <point x="268" y="223"/>
      <point x="226" y="266"/>
      <point x="226" y="329" type="curve" smooth="yes"/>
      <point x="226" y="392"/>
      <point x="268" y="435"/>
      <point x="327" y="435" type="curve" smooth="yes"/>
      <point x="386" y="435"/>
      <point x="427" y="392"/>
    </contour>
    <contour>
      <point x="49" y="526" type="line"/>
      <point x="186" y="401" type="line"/>
      <point x="256" y="471" type="line"/>
      <point x="129" y="607" type="line"/>
    </contour>
    <contour>
      <point x="49" y="132" type="line"/>
      <point x="129" y="51" type="line"/>
      <point x="254" y="188" type="line"/>
      <point x="184" y="258" type="line"/>
    </contour>
    <contour>
      <point x="399" y="184" type="line"/>
      <point x="523" y="51" type="line"/>
      <point x="605" y="132" type="line"/>
      <point x="470" y="255" type="line"/>
    </contour>
    <contour>
      <point x="401" y="472" type="line"/>
      <point x="472" y="401" type="line"/>
      <point x="605" y="526" type="line"/>
      <point x="523" y="607" type="line"/>
    </contour>
  </outline>
</glyph>
<glyph name="brokenbar" format="2">
  <advance width="266"/>
  <unicode hex="00A6"/>
  <outline>
    <contour>
      <point x="73" y="719" type="line"/>
      <point x="73" y="345" type="line"/>
      <point x="193" y="345" type="line"/>
      <point x="193" y="719" type="line"/>
    </contour>
    <contour>
      <point x="73" y="206" type="line"/>
      <point x="73" y="-168" type="line"/>
      <point x="193" y="-168" type="line"/>
      <point x="193" y="206" type="line"/>
    </contour>
  </outline>
</glyph>
<glyph name="degree" format="2">
  <advance width="482"/>
  <unicode hex="00B0"/>
  <outline>
    <contour>
      <point x="432" y="492" type="curve" smooth="yes"/>
      <point x="432" y="598"/>
      <point x="356" y="670"/>
      <point x="241" y="670" type="curve" smooth="yes"/>
      <point x="127" y="670"/>
      <point x="51" y="598"/>
      <point x="51" y="492" type="curve" smooth="yes"/>
      <point x="51" y="385"/>
      <point x="127" y="313"/>
      <point x="241" y="313" type="curve" smooth="yes"/>
      <point x="356" y="313"/>
      <point x="432" y="385"/>
    </contour>
    <contour>
      <point x="155" y="492" type="curve" smooth="yes"/>
      <point x="155" y="542"/>
      <point x="191" y="578"/>
      <point x="241" y="578" type="curve" smooth="yes"/>
      <point x="292" y="578"/>
      <point x="328" y="542"/>
      <point x="328" y="492" type="curve" smooth="yes"/>
      <point x="328" y="442"/>
      <point x="292" y="406"/>
      <point x="241" y="406" type="curve" smooth="yes"/>
      <point x="191" y="406"/>
      <point x="155" y="442"/>
    </contour>
  </outline>
</glyph>
<glyph name="plusminus" format="2">
  <advance width="604"/>
  <unicode hex="00B1"/>
  <outline>
    <contour>
      <point x="250" y="648" type="line"/>
      <point x="250" y="174" type="line"/>
      <point x="355" y="174" type="line"/>
      <point x="355" y="648" type="line"/>
    </contour>
    <contour>
      <point x="54" y="461" type="line"/>
      <point x="54" y="359" type="line"/>
      <point x="550" y="359" type="line"/>
      <point x="550" y="461" type="line"/>
    </contour>
    <contour>
      <point x="54" y="100" type="line"/>
      <point x="54" y="0" type="line"/>
      <point x="550" y="0" type="line"/>
      <point x="550" y="100" type="line"/>
    </contour>
  </outline>
</glyph>
<glyph name="twosuperior" format="2">
  <advance width="382"/>
  <unicode hex="00B2"/>
  <anchor x="192" y="517" name="_indexring"/>
  <outline>
    <contour>
      <point x="357" y="333" type="line"/>
      <point x="357" y="415" type="line"/>
      <point x="250" y="415" type="line" smooth="yes"/>
      <point x="225" y="415"/>
      <point x="186" y="413"/>
      <point x="168" y="412" type="curve"/>
      <point x="168" y="413" type="line"/>
      <point x="193" y="424"/>
      <point x="216" y="436"/>
      <point x="236" y="450" type="curve" smooth="yes"/>
      <point x="314" y="503"/>
      <point x="351" y="553"/>
      <point x="351" y="606" type="curve" smooth="yes"/>
      <point x="351" y="670"/>
      <point x="303" y="735"/>
      <point x="187" y="735" type="curve" smooth="yes"/>
      <point x="88" y="735"/>
      <point x="23" y="686"/>
      <point x="20" y="600" type="curve"/>
      <point x="118" y="571" type="line"/>
      <point x="119" y="624"/>
      <point x="142" y="654"/>
      <point x="184" y="654" type="curve" smooth="yes"/>
      <point x="222" y="654"/>
      <point x="242" y="631"/>
      <point x="242" y="598" type="curve" smooth="yes"/>
      <point x="242" y="558"/>
      <point x="211" y="521"/>
      <point x="123" y="457" type="curve" smooth="yes"/>
      <point x="94" y="437"/>
      <point x="64" y="419"/>
      <point x="33" y="400" type="curve"/>
      <point x="33" y="333" type="line"/>
    </contour>
  </outline>
</glyph>
<glyph name="cedilla" format="2">
  <advance width="500"/>
  <unicode hex="00B8"/>
  <anchor x="260" y="0" name="_bottomC"/>
  <outline>
    <contour>
      <point x="294" y="-83" type="curve" smooth="yes"/>
      <point x="294" y="-116"/>
      <point x="271" y="-136"/>
      <point x="239" y="-136" type="curve" smooth="yes"/>
      <point x="209" y="-136"/>
      <point x="184" y="-123"/>
      <point x="168" y="-106" type="curve"/>
      <point x="132" y="-177" type="line"/>
      <point x="158" y="-201"/>
      <point x="194" y="-215"/>
      <point x="251" y="-215" type="curve" smooth="yes"/>
      <point x="330" y="-215"/>
      <point x="384" y="-172"/>
      <point x="384" y="-101" type="curve" smooth="yes"/>
      <point x="384" y="-41"/>
      <point x="333" y="15"/>
      <point x="232" y="34" type="curve"/>
      <point x="190" y="3" type="line"/>
      <point x="273" y="-23"/>
      <point x="294" y="-46"/>
    </contour>
  </outline>
</glyph>
<glyph name="ordmasculine" format="2">
  <advance width="400"/>
  <unicode hex="00BA"/>
  <outline>
    <contour>
      <point x="372" y="488" type="curve" smooth="yes"/>
      <point x="372" y="598"/>
      <point x="310" y="663"/>
      <point x="200" y="663" type="curve" smooth="yes"/>
      <point x="90" y="663"/>
      <point x="27" y="598"/>
      <point x="27" y="488" type="curve" smooth="yes"/>
      <point x="27" y="379"/>
      <point x="90" y="314"/>
      <point x="200" y="314" type="curve" smooth="yes"/>
      <point x="310" y="314"/>
      <point x="372" y="379"/>
    </contour>
    <contour>
      <point x="364" y="169" type="line"/>
      <point x="364" y="245" type="line"/>
      <point x="36" y="245" type="line"/>
      <point x="36" y="169" type="line"/>
    </contour>
    <contour>
      <point x="133" y="488" type="curve" smooth="yes"/>
      <point x="133" y="557"/>
      <point x="154" y="592"/>
      <point x="200" y="592" type="curve" smooth="yes"/>
      <point x="246" y="592"/>
      <point x="267" y="557"/>
      <point x="267" y="488" type="curve" smooth="yes"/>
      <point x="267" y="420"/>
      <point x="246" y="386"/>
      <point x="200" y="386" type="curve" smooth="yes"/>
      <point x="154" y="386"/>
      <point x="133" y="420"/>
    </contour>
  </outline>
</glyph>
<glyph name="Aring" format="2">
  <advance width="671"/>
  <unicode hex="00C5"/>
  <anchor x="336" y="848" name="top"/>
  <anchor x="659" y="0" name="ogonek"/>
  <anchor x="335" y="0" name="bottom"/>
  <anchor x="598" y="0" name="bottomC"/>
  <outline>
    <contour>
      <point x="195" y="732" type="curve" smooth="yes"/>
      <point x="195" y="657"/>
      <point x="250" y="612"/>
      <point x="336" y="612" type="curve" smooth="yes"/>
      <point x="419" y="612"/>
      <point x="477" y="657"/>
      <point x="477" y="732" type="curve" smooth="yes"/>
      <point x="477" y="807"/>
      <point x="423" y="858"/>
      <point x="336" y="858" type="curve" smooth="yes"/>
      <point x="250" y="858"/>
      <point x="195" y="807"/>
    </contour>
    <contour>
      <point x="399" y="729" type="curve" smooth="yes"/>
      <point x="399" y="693"/>
      <point x="373" y="668"/>
      <point x="336" y="668" type="curve" smooth="yes"/>
      <point x="298" y="668"/>
      <point x="273" y="693"/>
      <point x="273" y="729" type="curve" smooth="yes"/>
      <point x="273" y="765"/>
      <point x="298" y="790"/>
      <point x="336" y="790" type="curve" smooth="yes"/>
      <point x="373" y="790"/>
      <point x="399" y="765"/>
    </contour>
    <contour>
      <point x="153" y="0" type="line"/>
      <point x="305" y="451" type="line"/>
      <point x="333" y="549" type="line"/>
      <point x="336" y="549" type="line"/>
      <point x="365" y="449" type="line"/>
      <point x="516" y="0" type="line"/>
      <point x="659" y="0" type="line"/>
      <point x="414" y="660" type="line"/>
      <point x="257" y="660" type="line"/>
      <point x="12" y="0" type="line"/>
    </contour>
    <contour>
      <point x="516" y="161" type="line"/>
      <point x="516" y="263" type="line"/>
      <point x="154" y="263" type="line"/>
      <point x="154" y="161" type="line"/>
    </contour>
  </outline>
</glyph>
<glyph name="AE" format="2">
  <advance width="935"/>
  <unicode hex="00C6"/>
  <anchor x="497" y="660" name="top"/>
  <anchor x="897" y="0" name="ogonek"/>
  <anchor x="497" y="0" name="bottom"/>
  <anchor x="523" y="0" name="bottomC"/>
  <outline>
    <contour>
      <point x="321" y="660" type="line"/>
      <point x="0" y="0" type="line"/>
      <point x="141" y="0" type="line"/>
      <point x="439" y="660" type="line"/>
    </contour>
    <contour>
      <point x="192" y="301" type="line"/>
      <point x="148" y="202" type="line"/>
      <point x="495" y="202" type="line"/>
      <point x="495" y="301" type="line"/>
    </contour>
    <contour>
      <point x="491" y="108" type="line"/>
      <point x="491" y="0" type="line"/>
      <point x="897" y="0" type="line"/>
      <point x="897" y="108" type="line"/>
    </contour>
    <contour>
      <point x="432" y="660" type="line"/>
      <point x="432" y="0" type="line"/>
      <point x="563" y="0" type="line"/>
      <point x="563" y="660" type="line"/>
    </contour>
    <contour>
      <point x="491" y="384" type="line"/>
      <point x="491" y="281" type="line"/>
      <point x="807" y="281" type="line"/>
      <point x="807" y="384" type="line"/>
    </contour>
    <contour>
      <point x="368" y="660" type="line"/>
      <point x="328" y="555" type="line"/>
      <point x="484" y="555" type="line"/>
      <point x="512" y="552" type="line"/>
      <point x="883" y="552" type="line"/>
      <point x="883" y="660" type="line"/>
    </contour>
  </outline>
</glyph>
<glyph name="Oslash" format="2">
  <advance width="741"/>
  <unicode hex="00D8"/>
  <anchor x="371" y="660" name="top"/>
  <anchor x="452" y="0" name="ogonek"/>
  <anchor x="371" y="0" name="bottom"/>
  <anchor x="371" y="0" name="bottomC"/>
  <outline>
    <contour>
      <point x="588" y="682" type="line"/>
      <point x="505" y="565" type="line"/>
      <point x="552" y="520" type="line"/>
      <point x="668" y="682" type="line"/>
    </contour>
    <contour>
      <point x="191" y="125" type="line"/>
      <point x="241" y="82" type="line"/>
      <point x="551" y="523" type="line"/>
      <point x="501" y="567" type="line"/>
    </contour>
    <contour>
      <point x="153" y="-31" type="line"/>
      <point x="235" y="84" type="line"/>
      <point x="187" y="129" type="line"/>
      <point x="73" y="-31" type="line"/>
    </contour>
    <component base="O"/>
  </outline>
</glyph>
<glyph name="Thorn" format="2">
  <advance width="652"/>
  <unicode hex="00DE"/>
  <anchor x="155" y="660" name="top"/>
  <anchor x="224" y="0" name="ogonek"/>
  <anchor x="155" y="0" name="bottom"/>
  <anchor x="155" y="0" name="bottomC"/>
  <outline>
    <contour>
      <point x="155" y="553" type="line"/>
      <point x="155" y="444" type="line"/>
      <point x="342" y="444" type="line" smooth="yes"/>
      <point x="425" y="444"/>
      <point x="467" y="410"/>
      <point x="467" y="337" type="curve" smooth="yes"/>
      <point x="467" y="264"/>
      <point x="425" y="230"/>
      <point x="342" y="230" type="curve" smooth="yes"/>
      <point x="155" y="230" type="line"/>
      <point x="155" y="121" type="line"/>
      <point x="352" y="121" type="line" smooth="yes"/>
      <point x="518" y="121"/>
      <point x="608" y="197"/>
      <point x="607" y="337" type="curve" smooth="yes"/>
      <point x="608" y="478"/>
      <point x="518" y="553"/>
      <point x="352" y="553" type="curve" smooth="yes"/>
    </contour>
    <contour>
      <point x="86" y="660" type="line"/>
      <point x="86" y="0" type="line"/>
      <point x="224" y="0" type="line"/>
      <point x="224" y="660" type="line"/>
    </contour>
  </outline>
</glyph>
<glyph name="germandbls" format="2">
  <advance width="637"/>
  <unicode hex="00DF"/>
  <anchor x="333" y="719" name="top"/>
  <anchor x="485" y="14" name="ogonek"/>
  <anchor x="333" y="0" name="bottom"/>
  <anchor x="372" y="0" name="bottomC"/>
  <outline>
    <contour>
      <point x="411" y="376" type="line"/>
      <point x="522" y="376"/>
      <point x="574" y="459"/>
      <point x="574" y="533" type="curve" smooth="yes"/>
      <point x="574" y="630"/>
      <point x="502" y="724"/>
      <point x="337" y="724" type="curve" smooth="yes"/>
      <point x="141" y="724"/>
      <point x="72" y="625"/>
      <point x="72" y="474" type="curve" smooth="yes"/>
      <point x="72" y="0" type="line"/>
      <point x="209" y="0" type="line"/>
      <point x="209" y="457" type="line" smooth="yes"/>
      <point x="209" y="566"/>
      <point x="239" y="618"/>
      <point x="332" y="618" type="curve" smooth="yes"/>
      <point x="400" y="618"/>
      <point x="439" y="586"/>
      <point x="439" y="522" type="curve" smooth="yes"/>
      <point x="439" y="463"/>
      <point x="399" y="420"/>
      <point x="330" y="420" type="curve" smooth="yes"/>
      <point x="296" y="420" type="line"/>
      <point x="285" y="316" type="line"/>
      <point x="330" y="316" type="line" smooth="yes"/>
      <point x="415" y="316"/>
      <point x="462" y="278"/>
      <point x="462" y="207" type="curve" smooth="yes"/>
      <point x="462" y="140"/>
      <point x="424" y="94"/>
      <point x="356" y="94" type="curve" smooth="yes"/>
      <point x="322" y="94"/>
      <point x="300" y="102"/>
      <point x="282" y="118" type="curve"/>
      <point x="256" y="23" type="line"/>
      <point x="280" y="4"/>
      <point x="323" y="-10"/>
      <point x="373" y="-10" type="curve" smooth="yes"/>
      <point x="523" y="-10"/>
      <point x="594" y="86"/>
      <point x="594" y="189" type="curve" smooth="yes"/>
      <point x="594" y="284"/>
      <point x="536" y="374"/>
      <point x="411" y="374" type="curve"/>
    </contour>
  </outline>
</glyph>
<glyph name="ae" format="2">
  <advance width="880"/>
  <unicode hex="00E6"/>
  <anchor x="425" y="500" name="top"/>
  <anchor x="696" y="4" name="ogonek"/>
  <anchor x="425" y="0" name="bottom"/>
  <anchor x="613" y="0" name="bottomC"/>
  <outline>
    <contour>
      <point x="826" y="113" type="curve"/>
      <point x="714" y="154" type="line"/>
      <point x="700" y="114"/>
      <point x="672" y="92"/>
      <point x="614" y="92" type="curve" smooth="yes"/>
      <point x="541" y="92"/>
      <point x="488" y="142"/>
      <point x="488" y="248" type="curve" smooth="yes"/>
      <point x="488" y="355"/>
      <point x="531" y="409"/>
      <point x="602" y="409" type="curve" smooth="yes"/>
      <point x="677" y="409"/>
      <point x="707" y="351"/>
      <point x="708" y="255" type="curve"/>
      <point x="772" y="289" type="line"/>
      <point x="433" y="289" type="line"/>
      <point x="433" y="215" type="line"/>
      <point x="831" y="215" type="line"/>
      <point x="834" y="228"/>
      <point x="836" y="250"/>
      <point x="836" y="272" type="curve" smooth="yes"/>
      <point x="836" y="408"/>
      <point x="759" y="510"/>
      <point x="606" y="510" type="curve" smooth="yes"/>
      <point x="474" y="510"/>
      <point x="390" y="407"/>
      <point x="390" y="250" type="curve" smooth="yes"/>
      <point x="390" y="74"/>
      <point x="473" y="-10"/>
      <point x="610" y="-10" type="curve" smooth="yes"/>
      <point x="723" y="-10"/>
      <point x="794" y="33"/>
    </contour>
    <contour>
      <point x="436" y="179" type="curve"/>
      <point x="361" y="184" type="line"/>
      <point x="361" y="114"/>
      <point x="305" y="77"/>
      <point x="245" y="77" type="curve" smooth="yes"/>
      <point x="198" y="77"/>
      <point x="173" y="97"/>
      <point x="173" y="132" type="curve" smooth="yes"/>
      <point x="173" y="173"/>
      <point x="201" y="193"/>
      <point x="269" y="205" type="curve" smooth="yes"/>
      <point x="406" y="230" type="line"/>
      <point x="393" y="295" type="line"/>
      <point x="227" y="270" type="line" smooth="yes"/>
      <point x="101" y="249"/>
      <point x="41" y="199"/>
      <point x="41" y="118" type="curve" smooth="yes"/>
      <point x="41" y="41"/>
      <point x="99" y="-10"/>
      <point x="204" y="-10" type="curve" smooth="yes"/>
      <point x="347" y="-10"/>
      <point x="436" y="65"/>
    </contour>
    <contour>
      <point x="475" y="173" type="line"/>
      <point x="475" y="295" type="line" smooth="yes"/>
      <point x="475" y="433"/>
      <point x="391" y="510"/>
      <point x="266" y="510" type="curve" smooth="yes"/>
      <point x="147" y="510"/>
      <point x="71" y="454"/>
      <point x="49" y="366" type="curve"/>
      <point x="158" y="328" type="line"/>
      <point x="176" y="385"/>
      <point x="214" y="410"/>
      <point x="267" y="410" type="curve" smooth="yes"/>
      <point x="329" y="410"/>
      <point x="361" y="377"/>
      <point x="361" y="323" type="curve" smooth="yes"/>
      <point x="361" y="155" type="line"/>
    </contour>
  </outline>
</glyph>
<glyph name="eth" format="2">
  <advance width="610"/>
  <unicode hex="00F0"/>
  <anchor x="302" y="719" name="top"/>
  <anchor x="420" y="14" name="ogonek"/>
  <anchor x="302" y="0" name="bottom"/>
  <anchor x="302" y="0" name="bottomC"/>
  <outline>
    <contour>
      <point x="186" y="725" type="line"/>
      <point x="373" y="613"/>
      <point x="441" y="520"/>
      <point x="455" y="320" type="curve"/>
      <point x="426" y="241" type="line"/>
      <point x="426" y="154"/>
      <point x="383" y="92"/>
      <point x="304" y="92" type="curve" smooth="yes"/>
      <point x="230" y="92"/>
      <point x="188" y="143"/>
      <point x="188" y="241" type="curve" smooth="yes"/>
      <point x="188" y="343"/>
      <point x="230" y="395"/>
      <point x="307" y="395" type="curve" smooth="yes"/>
      <point x="383" y="395"/>
      <point x="426" y="343"/>
      <point x="426" y="241" type="curve"/>
      <point x="481" y="248" type="line"/>
      <point x="481" y="393"/>
      <point x="434" y="491"/>
      <point x="289" y="491" type="curve" smooth="yes"/>
      <point x="149" y="491"/>
      <point x="49" y="398"/>
      <point x="49" y="241" type="curve" smooth="yes"/>
      <point x="49" y="83"/>
      <point x="143" y="-10"/>
      <point x="295" y="-10" type="curve" smooth="yes"/>
      <point x="476" y="-10"/>
      <point x="556" y="99"/>
      <point x="556" y="298" type="curve" smooth="yes"/>
      <point x="556" y="511"/>
      <point x="458" y="651"/>
      <point x="326" y="725" type="curve"/>
    </contour>
    <contour>
      <point x="182" y="598" type="line"/>
      <point x="192" y="545" type="line"/>
      <point x="394" y="591" type="line"/>
      <point x="361" y="630" type="line"/>
    </contour>
    <contour>
      <point x="394" y="637" type="line"/>
      <point x="421" y="600" type="line"/>
      <point x="559" y="621" type="line"/>
      <point x="545" y="675" type="line"/>
    </contour>
  </outline>
</glyph>
<glyph name="oslash" format="2">
  <advance width="605"/>
  <unicode hex="00F8"/>
  <anchor x="302" y="500" name="top"/>
  <anchor x="421" y="14" name="ogonek"/>
  <anchor x="302" y="0" name="bottom"/>
  <anchor x="302" y="0" name="bottomC"/>
  <outline>
    <contour>
      <point x="46" y="250" type="curve" smooth="yes"/>
      <point x="46" y="165"/>
      <point x="72" y="98"/>
      <point x="119" y="54" type="curve"/>
      <point x="55" y="-31" type="line"/>
      <point x="122" y="-31" type="line"/>
      <point x="162" y="22" type="line"/>
      <point x="200" y="1"/>
      <point x="247" y="-10"/>
      <point x="302" y="-10" type="curve" smooth="yes"/>
      <point x="463" y="-10"/>
      <point x="558" y="87"/>
      <point x="558" y="250" type="curve" smooth="yes"/>
      <point x="558" y="331"/>
      <point x="535" y="395"/>
      <point x="492" y="439" type="curve"/>
      <point x="557" y="522" type="line"/>
      <point x="490" y="522" type="line"/>
      <point x="451" y="472" type="line"/>
      <point x="411" y="497"/>
      <point x="362" y="510"/>
      <point x="302" y="510" type="curve" smooth="yes"/>
      <point x="141" y="510"/>
      <point x="46" y="413"/>
    </contour>
    <contour>
      <point x="183" y="250" type="curve" smooth="yes"/>
      <point x="183" y="356"/>
      <point x="225" y="408"/>
      <point x="302" y="408" type="curve" smooth="yes"/>
      <point x="333" y="408"/>
      <point x="357" y="400"/>
      <point x="376" y="383" type="curve"/>
      <point x="235" y="196" type="line"/>
      <point x="207" y="156" type="line"/>
      <point x="206" y="156" type="line"/>
      <point x="191" y="181"/>
      <point x="183" y="212"/>
    </contour>
    <contour>
      <point x="236" y="111" type="curve"/>
      <point x="376" y="296" type="line"/>
      <point x="401" y="333" type="line"/>
      <point x="402" y="333" type="line"/>
      <point x="415" y="311"/>
      <point x="421" y="283"/>
      <point x="421" y="250" type="curve" smooth="yes"/>
      <point x="421" y="144"/>
      <point x="379" y="92"/>
      <point x="302" y="92" type="curve" smooth="yes"/>
      <point x="276" y="92"/>
      <point x="253" y="98"/>
    </contour>
  </outline>
</glyph>
<glyph name="dcroat" format="2">
  <advance width="628"/>
  <unicode hex="0111"/>
  <anchor x="318" y="250" name="center"/>
  <anchor x="309" y="0" name="bottom"/>
  <anchor x="488" y="719" name="top"/>
  <anchor x="276" y="0" name="bottomC"/>
  <anchor x="625" y="719" name="topright"/>
  <anchor x="353" y="14" name="ogonek"/>
  <outline>
    <contour>
      <point x="279" y="632" type="line"/>
      <point x="279" y="548" type="line"/>
      <point x="633" y="548" type="line"/>
      <point x="633" y="632" type="line"/>
    </contour>
    <component base="d"/>
  </outline>
</glyph>
<glyph name="gbreve" format="2">
  <advance width="549"/>
  <unicode hex="011F"/>
  <outline>
    <contour>
      <point x="398" y="458" type="curve"/>
      <point x="451" y="437" type="line"/>
      <point x="449" y="498"/>
      <point x="492" y="524"/>
      <point x="557" y="521" type="curve"/>
      <point x="538" y="619" type="line"/>
      <point x="453" y="619"/>
      <point x="389" y="548"/>
    </contour>
    <component base="gbase" xOffset="-8"/>
    <component base="breve" xOffset="32"/>
  </outline>
</glyph>
<glyph name="oe" format="2">
  <advance width="967"/>
  <unicode hex="0153"/>
  <anchor x="492" y="500" name="top"/>
  <anchor x="810" y="14" name="ogonek"/>
  <anchor x="492" y="0" name="bottom"/>
  <anchor x="692" y="0" name="bottomC"/>
  <outline>
    <contour>
      <point x="46" y="250" type="curve" smooth="yes"/>
      <point x="46" y="87"/>
      <point x="142" y="-10"/>
      <point x="299" y="-10" type="curve" smooth="yes"/>
      <point x="451" y="-10"/>
      <point x="537" y="87"/>
      <point x="537" y="250" type="curve" smooth="yes"/>
      <point x="537" y="413"/>
      <point x="451" y="510"/>
      <point x="299" y="510" type="curve" smooth="yes"/>
      <point x="142" y="510"/>
      <point x="46" y="413"/>
    </contour>
    <contour>
      <point x="423" y="250" type="curve" smooth="yes"/>
      <point x="423" y="144"/>
      <point x="381" y="92"/>
      <point x="304" y="92" type="curve" smooth="yes"/>
      <point x="227" y="92"/>
      <point x="186" y="144"/>
      <point x="186" y="250" type="curve" smooth="yes"/>
      <point x="186" y="356"/>
      <point x="227" y="408"/>
      <point x="304" y="408" type="curve" smooth="yes"/>
      <point x="381" y="408"/>
      <point x="423" y="356"/>
    </contour>
    <contour>
      <point x="912" y="113" type="curve"/>
      <point x="800" y="154" type="line"/>
      <point x="787" y="114"/>
      <point x="748" y="92"/>
      <point x="690" y="92" type="curve" smooth="yes"/>
      <point x="609" y="92"/>
      <point x="561" y="142"/>
      <point x="561" y="248" type="curve" smooth="yes"/>
      <point x="561" y="355"/>
      <point x="603" y="409"/>
      <point x="682" y="409" type="curve" smooth="yes"/>
      <point x="757" y="409"/>
      <point x="793" y="351"/>
      <point x="794" y="255" type="curve"/>
      <point x="858" y="291" type="line"/>
      <point x="519" y="291" type="line"/>
      <point x="519" y="215" type="line"/>
      <point x="917" y="215" type="line"/>
      <point x="920" y="228"/>
      <point x="922" y="250"/>
      <point x="922" y="272" type="curve" smooth="yes"/>
      <point x="922" y="408"/>
      <point x="839" y="510"/>
      <point x="682" y="510" type="curve" smooth="yes"/>
      <point x="537" y="510"/>
      <point x="455" y="414"/>
      <point x="455" y="250" type="curve" smooth="yes"/>
      <point x="455" y="86"/>
      <point x="540" y="-10"/>
      <point x="690" y="-10" type="curve" smooth="yes"/>
      <point x="803" y="-10"/>
      <point x="880" y="33"/>
    </contour>
  </outline>
</glyph>
<glyph name="uni0163" format="2">
  <advance width="441"/>
  <unicode hex="0163"/>
  <anchor x="161" y="250" name="center"/>
  <anchor x="254" y="-210" name="bottom"/>
  <anchor x="179" y="730" name="top"/>
  <anchor x="258" y="-210" name="bottomC"/>
  <anchor x="321" y="767" name="topright"/>
  <anchor x="282" y="-210" name="ogonek"/>
  <outline>
    <contour>
      <point x="288" y="-83" type="curve" smooth="yes"/>
      <point x="288" y="-116"/>
      <point x="265" y="-136"/>
      <point x="231" y="-136" type="curve" smooth="yes"/>
      <point x="202" y="-136"/>
      <point x="177" y="-123"/>
      <point x="162" y="-106" type="curve"/>
      <point x="126" y="-177" type="line"/>
      <point x="152" y="-201"/>
      <point x="188" y="-215"/>
      <point x="245" y="-215" type="curve" smooth="yes"/>
      <point x="324" y="-215"/>
      <point x="378" y="-172"/>
      <point x="378" y="-101" type="curve" smooth="yes"/>
      <point x="378" y="-41"/>
      <point x="328" y="13"/>
      <point x="228" y="37" type="curve"/>
      <point x="190" y="6" type="line"/>
      <point x="266" y="-23"/>
      <point x="288" y="-44"/>
    </contour>
    <component base="t"/>
  </outline>
</glyph>
<glyph name="uogonek" format="2">
  <advance width="619"/>
  <unicode hex="0173"/>
  <anchor x="306" y="500" name="top"/>
  <anchor x="492" y="-210" name="ogonek"/>
  <anchor x="306" y="-80" name="bottom"/>
  <anchor x="482" y="-210" name="bottomC"/>
  <outline>
    <contour>
      <point x="69" y="500" type="line"/>
      <point x="69" y="169" type="line" smooth="yes"/>
      <point x="69" y="41"/>
      <point x="144" y="-10"/>
      <point x="245" y="-10" type="curve" smooth="yes"/>
      <point x="355" y="-10"/>
      <point x="447" y="73"/>
      <point x="447" y="220" type="curve"/>
      <point x="410" y="237" type="line"/>
      <point x="410" y="148"/>
      <point x="355" y="98"/>
      <point x="290" y="98" type="curve" smooth="yes"/>
      <point x="239" y="98"/>
      <point x="206" y="123"/>
      <point x="206" y="204" type="curve" smooth="yes"/>
      <point x="206" y="500" type="line"/>
    </contour>
    <contour>
      <point x="547" y="0" type="curve"/>
      <point x="480" y="23" type="line"/>
      <point x="388" y="-4"/>
      <point x="336" y="-44"/>
      <point x="336" y="-112" type="curve" smooth="yes"/>
      <point x="336" y="-178"/>
      <point x="384" y="-215"/>
      <point x="460" y="-215" type="curve" smooth="yes"/>
      <point x="497" y="-215"/>
      <point x="531" y="-208"/>
      <point x="555" y="-193" type="curve"/>
      <point x="535" y="-123" type="line"/>
      <point x="521" y="-131"/>
      <point x="502" y="-134"/>
      <point x="485" y="-134" type="curve" smooth="yes"/>
      <point x="453" y="-134"/>
      <point x="433" y="-119"/>
      <point x="433" y="-89" type="curve" smooth="yes"/>
      <point x="433" y="-54"/>
      <point x="469" y="-27"/>
    </contour>
    <contour>
      <point x="410" y="500" type="line"/>
      <point x="410" y="183" type="line"/>
      <point x="416" y="134" type="line"/>
      <point x="428" y="0" type="line"/>
      <point x="547" y="0" type="line"/>
      <point x="547" y="130" type="line"/>
      <point x="547" y="500" type="line"/>
    </contour>
  </outline>
</glyph>
<glyph name="florin" format="2">
  <advance width="506"/>
  <unicode hex="0192"/>
  <outline>
    <contour>
      <point x="223" y="563" type="curve" smooth="yes"/>
      <point x="138" y="53" type="line" smooth="yes"/>
      <point x="130" y="1"/>
      <point x="102" y="-27"/>
      <point x="58" y="-27" type="curve" smooth="yes"/>
      <point x="34" y="-27"/>
      <point x="14" y="-21"/>
      <point x="-4" y="-8" type="curve"/>
      <point x="-22" y="-102" type="line"/>
      <point x="10" y="-122"/>
      <point x="34" y="-128"/>
      <point x="80" y="-128" type="curve" smooth="yes"/>
      <point x="179" y="-128"/>
      <point x="241" y="-70"/>
      <point x="259" y="38" type="curve" smooth="yes"/>
      <point x="344" y="548" type="line" smooth="yes"/>
      <point x="353" y="602"/>
      <point x="380" y="629"/>
      <point x="424" y="629" type="curve" smooth="yes"/>
      <point x="449" y="629"/>
      <point x="468" y="623"/>
      <point x="486" y="610" type="curve"/>
      <point x="505" y="704" type="line"/>
      <point x="472" y="724"/>
      <point x="449" y="730"/>
      <point x="403" y="730" type="curve" smooth="yes"/>
      <point x="303" y="730"/>
      <point x="241" y="672"/>
    </contour>
    <contour>
      <point x="44" y="411" type="line"/>
      <point x="44" y="310" type="line"/>
      <point x="461" y="310" type="line"/>
      <point x="461" y="411" type="line"/>
    </contour>
  </outline>
</glyph>
<glyph name="uni02C9" format="2">
  <advance width="500"/>
  <unicode hex="02C9"/>
  <outline>
    <contour>
      <point x="68" y="670" type="line"/>
      <point x="68" y="579" type="line"/>
      <point x="432" y="579" type="line"/>
      <point x="432" y="670" type="line"/>
    </contour>
  </outline>
</glyph>
<glyph name="dotaccent" format="2">
  <advance width="500"/>
  <unicode hex="02D9"/>
  <anchor x="250" y="500" name="_top"/>
  <outline>
    <contour>
      <point x="170" y="647" type="curve" smooth="yes"/>
      <point x="170" y="601"/>
      <point x="199" y="574"/>
      <point x="250" y="574" type="curve" smooth="yes"/>
      <point x="302" y="574"/>
      <point x="331" y="601"/>
      <point x="331" y="647" type="curve" smooth="yes"/>
      <point x="331" y="693"/>
      <point x="302" y="720"/>
      <point x="250" y="720" type="curve" smooth="yes"/>
      <point x="199" y="720"/>
      <point x="170" y="693"/>
    </contour>
  </outline>
</glyph>
<glyph name="ogonek" format="2">
  <advance width="519"/>
  <unicode hex="02DB"/>
  <anchor x="352" y="14" name="_ogonek"/>
  <outline>
    <contour>
      <point x="293" y="38" type="line"/>
      <point x="193" y="9"/>
      <point x="131" y="-32"/>
      <point x="131" y="-108" type="curve" smooth="yes"/>
      <point x="131" y="-176"/>
      <point x="187" y="-215"/>
      <point x="263" y="-215" type="curve" smooth="yes"/>
      <point x="300" y="-215"/>
      <point x="334" y="-209"/>
      <point x="358" y="-194" type="curve"/>
      <point x="338" y="-123" type="line"/>
      <point x="324" y="-132"/>
      <point x="305" y="-134"/>
      <point x="288" y="-134" type="curve" smooth="yes"/>
      <point x="253" y="-134"/>
      <point x="230" y="-116"/>
      <point x="230" y="-86" type="curve" smooth="yes"/>
      <point x="230" y="-52"/>
      <point x="262" y="-19"/>
      <point x="352" y="14" type="curve"/>
    </contour>
  </outline>
</glyph>
<glyph name="tilde" format="2">
  <advance width="500"/>
  <unicode hex="02DC"/>
  <anchor x="251" y="500" name="_top"/>
  <outline>
    <contour>
      <point x="358" y="718" type="line"/>
      <point x="353" y="678"/>
      <point x="341" y="657"/>
      <point x="316" y="657" type="curve" smooth="yes"/>
      <point x="277" y="657"/>
      <point x="259" y="718"/>
      <point x="184" y="718" type="curve" smooth="yes"/>
      <point x="105" y="718"/>
      <point x="63" y="668"/>
      <point x="58" y="568" type="curve"/>
      <point x="142" y="568" type="line"/>
      <point x="147" y="608"/>
      <point x="159" y="629"/>
      <point x="184" y="629" type="curve" smooth="yes"/>
      <point x="224" y="629"/>
      <point x="241" y="568"/>
      <point x="317" y="568" type="curve" smooth="yes"/>
      <point x="394" y="568"/>
      <point x="437" y="618"/>
      <point x="442" y="718" type="curve"/>
    </contour>
  </outline>
</glyph>
<glyph name="commaaccent" format="2">
  <advance width="190"/>
  <unicode hex="0326"/>
  <anchor x="0" y="0" name="_bottom"/>
  <outline>
    <contour>
      <point x="-65" y="-66" type="line"/>
      <point x="-101" y="-239" type="line"/>
      <point x="-8" y="-239" type="line"/>
      <point x="60" y="-66" type="line"/>
    </contour>
  </outline>
</glyph>
<glyph name="pi" format="2">
  <advance width="769"/>
  <unicode hex="03C0"/>
  <outline>
    <contour>
      <point x="734" y="500" type="line"/>
      <point x="25" y="500" type="line"/>
      <point x="25" y="401" type="line"/>
      <point x="734" y="401" type="line"/>
    </contour>
    <contour>
      <point x="152" y="500" type="line"/>
      <point x="152" y="0" type="line"/>
      <point x="289" y="0" type="line"/>
      <point x="289" y="500" type="line"/>
    </contour>
    <contour>
      <point x="458" y="500" type="line"/>
      <point x="458" y="140" type="line" smooth="yes"/>
      <point x="458" y="34"/>
      <point x="510" y="-10"/>
      <point x="680" y="-2" type="curve"/>
      <point x="696" y="96" type="line"/>
      <point x="625" y="92"/>
      <point x="595" y="113"/>
      <point x="595" y="166" type="curve" smooth="yes"/>
      <point x="595" y="500" type="line"/>
    </contour>
  </outline>
</glyph>
<glyph name="endash" format="2">
  <advance width="681"/>
  <unicode hex="2013"/>
  <outline>
    <contour>
      <point x="79" y="322" type="line"/>
      <point x="79" y="209" type="line"/>
      <point x="602" y="209" type="line"/>
      <point x="602" y="322" type="line"/>
    </contour>
  </outline>
</glyph>
<glyph name="emdash" format="2">
  <advance width="1009"/>
  <unicode hex="2014"/>
  <outline>
    <contour>
      <point x="79" y="322" type="line"/>
      <point x="79" y="209" type="line"/>
      <point x="929" y="209" type="line"/>
      <point x="929" y="322" type="line"/>
    </contour>
  </outline>
</glyph>
<glyph name="dagger" format="2">
  <advance width="565"/>
  <unicode hex="2020"/>
  <outline>
    <contour>
      <point x="218" y="660" type="line"/>
      <point x="218" y="-100" type="line"/>
      <point x="347" y="-100" type="line"/>
      <point x="347" y="660" type="line"/>
    </contour>
    <contour>
      <point x="36" y="458" type="line"/>
      <point x="36" y="350" type="line"/>
      <point x="529" y="350" type="line"/>
      <point x="529" y="458" type="line"/>
    </contour>
  </outline>
</glyph>
<glyph name="zerosuperior" format="2">
  <advance width="407"/>
  <unicode hex="2070"/>
  <outline>
    <contour>
      <point x="379" y="531" type="curve" smooth="yes"/>
      <point x="379" y="667"/>
      <point x="321" y="735"/>
      <point x="203" y="735" type="curve" smooth="yes"/>
      <point x="86" y="735"/>
      <point x="28" y="667"/>
      <point x="28" y="531" type="curve" smooth="yes"/>
      <point x="28" y="395"/>
      <point x="86" y="327"/>
      <point x="203" y="327" type="curve" smooth="yes"/>
      <point x="321" y="327"/>
      <point x="379" y="395"/>
    </contour>
    <contour>
      <point x="131" y="531" type="curve" smooth="yes"/>
      <point x="131" y="620"/>
      <point x="153" y="658"/>
      <point x="203" y="658" type="curve" smooth="yes"/>
      <point x="254" y="658"/>
      <point x="275" y="620"/>
      <point x="275" y="531" type="curve" smooth="yes"/>
      <point x="275" y="442"/>
      <point x="254" y="404"/>
      <point x="203" y="404" type="curve" smooth="yes"/>
      <point x="153" y="404"/>
      <point x="131" y="442"/>
    </contour>
  </outline>
</glyph>
<glyph name="sixsuperior" format="2">
  <advance width="392"/>
  <unicode hex="2076"/>
  <anchor x="207" y="531" name="_indexring"/>
  <outline>
    <contour>
      <point x="367" y="454" type="curve" smooth="yes"/>
      <point x="367" y="535"/>
      <point x="310" y="577"/>
      <point x="232" y="577" type="curve" smooth="yes"/>
      <point x="184" y="577"/>
      <point x="152" y="562"/>
      <point x="128" y="530" type="curve"/>
      <point x="127" y="530" type="line"/>
      <point x="127" y="533"/>
      <point x="127" y="537"/>
      <point x="127" y="542" type="curve" smooth="yes"/>
      <point x="127" y="606"/>
      <point x="158" y="659"/>
      <point x="215" y="659" type="curve" smooth="yes"/>
      <point x="251" y="659"/>
      <point x="272" y="639"/>
      <point x="280" y="610" type="curve"/>
      <point x="362" y="650" type="line"/>
      <point x="336" y="712"/>
      <point x="286" y="735"/>
      <point x="214" y="735" type="curve" smooth="yes"/>
      <point x="109" y="735"/>
      <point x="29" y="669"/>
      <point x="29" y="531" type="curve" smooth="yes"/>
      <point x="29" y="395"/>
      <point x="93" y="327"/>
      <point x="204" y="327" type="curve" smooth="yes"/>
      <point x="307" y="327"/>
      <point x="367" y="375"/>
    </contour>
    <contour>
      <point x="143" y="457" type="curve" smooth="yes"/>
      <point x="143" y="487"/>
      <point x="168" y="512"/>
      <point x="207" y="512" type="curve" smooth="yes"/>
      <point x="246" y="512"/>
      <point x="270" y="491"/>
      <point x="270" y="457" type="curve" smooth="yes"/>
      <point x="270" y="421"/>
      <point x="246" y="401"/>
      <point x="206" y="401" type="curve" smooth="yes"/>
      <point x="167" y="401"/>
      <point x="143" y="422"/>
    </contour>
  </outline>
</glyph>
<glyph name="ninesuperior" format="2">
  <advance width="397"/>
  <unicode hex="2079"/>
  <anchor x="188" y="531" name="_indexring"/>
  <outline>
    <contour>
      <point x="27" y="605" type="curve" smooth="yes"/>
      <point x="27" y="529"/>
      <point x="83" y="480"/>
      <point x="173" y="480" type="curve" smooth="yes"/>
      <point x="216" y="480"/>
      <point x="256" y="501"/>
      <point x="268" y="526" type="curve"/>
      <point x="269" y="526" type="line"/>
      <point x="270" y="521"/>
      <point x="270" y="515"/>
      <point x="270" y="510" type="curve" smooth="yes"/>
      <point x="270" y="454"/>
      <point x="250" y="402"/>
      <point x="191" y="402" type="curve" smooth="yes"/>
      <point x="148" y="402"/>
      <point x="129" y="418"/>
      <point x="123" y="449" type="curve"/>
      <point x="32" y="418" type="line"/>
      <point x="53" y="352"/>
      <point x="109" y="327"/>
      <point x="185" y="327" type="curve" smooth="yes"/>
      <point x="294" y="327"/>
      <point x="367" y="391"/>
      <point x="367" y="530" type="curve" smooth="yes"/>
      <point x="367" y="665"/>
      <point x="302" y="735"/>
      <point x="191" y="735" type="curve" smooth="yes"/>
      <point x="91" y="735"/>
      <point x="27" y="687"/>
    </contour>
    <contour>
      <point x="254" y="604" type="curve" smooth="yes"/>
      <point x="254" y="572"/>
      <point x="229" y="549"/>
      <point x="190" y="549" type="curve" smooth="yes"/>
      <point x="149" y="549"/>
      <point x="127" y="569"/>
      <point x="127" y="604" type="curve" smooth="yes"/>
      <point x="127" y="640"/>
      <point x="149" y="660"/>
      <point x="190" y="660" type="curve" smooth="yes"/>
      <point x="229" y="660"/>
      <point x="254" y="638"/>
    </contour>
  </outline>
</glyph>
<glyph name="minussuperior" format="2">
  <advance width="349"/>
  <unicode hex="207B"/>
  <outline>
    <contour>
      <point x="319" y="492" type="line"/>
      <point x="319" y="568" type="line"/>
      <point x="30" y="568" type="line"/>
      <point x="30" y="492" type="line"/>
    </contour>
  </outline>
</glyph>
<glyph name="uni2113" format="2">
  <advance width="431"/>
  <unicode hex="2113"/>
  <outline>
    <contour>
      <point x="378" y="6" type="curve"/>
      <point x="385" y="98" type="line"/>
      <point x="357" y="89"/>
      <point x="336" y="85"/>
      <point x="299" y="85" type="curve" smooth="yes"/>
      <point x="252" y="85"/>
      <point x="233" y="115"/>
      <point x="233" y="155" type="curve" smooth="yes"/>
      <point x="233" y="526" type="line" smooth="yes"/>
      <point x="233" y="570"/>
      <point x="242" y="593"/>
      <point x="270" y="593" type="curve" smooth="yes"/>
      <point x="295" y="593"/>
      <point x="305" y="577"/>
      <point x="305" y="534" type="curve" smooth="yes"/>
      <point x="305" y="400"/>
      <point x="220" y="280"/>
      <point x="41" y="249" type="curve"/>
      <point x="41" y="172" type="line"/>
      <point x="243" y="211"/>
      <point x="379" y="369"/>
      <point x="379" y="529" type="curve" smooth="yes"/>
      <point x="379" y="614"/>
      <point x="349" y="670"/>
      <point x="248" y="670" type="curve" smooth="yes"/>
      <point x="150" y="670"/>
      <point x="110" y="612"/>
      <point x="110" y="512" type="curve" smooth="yes"/>
      <point x="110" y="139" type="line" smooth="yes"/>
      <point x="110" y="33"/>
      <point x="160" y="-10"/>
      <point x="275" y="-10" type="curve" smooth="yes"/>
      <point x="316" y="-10"/>
      <point x="349" y="-5"/>
    </contour>
  </outline>
</glyph>
<glyph name="uparrow" format="2">
  <advance width="750"/>
  <unicode hex="2191"/>
  <outline>
    <contour>
      <point x="391" y="613" type="curve"/>
      <point x="357" y="613" type="line"/>
      <point x="381" y="512"/>
      <point x="469" y="380"/>
      <point x="640" y="267" type="curve"/>
      <point x="715" y="371" type="line"/>
      <point x="557" y="466"/>
      <point x="458" y="554"/>
      <point x="377" y="666" type="curve"/>
      <point x="371" y="666" type="line"/>
      <point x="290" y="554"/>
      <point x="192" y="466"/>
      <point x="33" y="371" type="curve"/>
      <point x="108" y="267" type="line"/>
      <point x="279" y="380"/>
      <point x="367" y="512"/>
    </contour>
    <contour>
      <point x="443" y="0" type="line"/>
      <point x="443" y="279" type="line" smooth="yes"/>
      <point x="443" y="379"/>
      <point x="432" y="464"/>
      <point x="417" y="535" type="curve"/>
      <point x="374" y="610" type="line"/>
      <point x="331" y="535" type="line"/>
      <point x="316" y="464"/>
      <point x="306" y="379"/>
      <point x="306" y="279" type="curve" smooth="yes"/>
      <point x="306" y="0" type="line"/>
    </contour>
  </outline>
</glyph>
<glyph name="partialdiff" format="2">
  <advance width="645"/>
  <unicode hex="2202"/>
  <outline>
    <contour>
      <point x="86" y="591" type="curve"/>
      <point x="147" y="501" type="line"/>
      <point x="189" y="543"/>
      <point x="228" y="558"/>
      <point x="285" y="558" type="curve" smooth="yes"/>
      <point x="389" y="558"/>
      <point x="456" y="496"/>
      <point x="456" y="317" type="curve" smooth="yes"/>
      <point x="456" y="166"/>
      <point x="404" y="99"/>
      <point x="316" y="99" type="curve" smooth="yes"/>
      <point x="242" y="99"/>
      <point x="204" y="142"/>
      <point x="204" y="212" type="curve" smooth="yes"/>
      <point x="204" y="282"/>
      <point x="244" y="325"/>
      <point x="314" y="325" type="curve" smooth="yes"/>
      <point x="396" y="325"/>
      <point x="438" y="274"/>
      <point x="452" y="215" type="curve"/>
      <point x="488" y="224" type="line"/>
      <point x="480" y="351"/>
      <point x="405" y="427"/>
      <point x="292" y="427" type="curve" smooth="yes"/>
      <point x="166" y="427"/>
      <point x="64" y="343"/>
      <point x="64" y="209" type="curve" smooth="yes"/>
      <point x="64" y="71"/>
      <point x="168" y="-10"/>
      <point x="299" y="-10" type="curve" smooth="yes"/>
      <point x="482" y="-10"/>
      <point x="582" y="100"/>
      <point x="582" y="337" type="curve" smooth="yes"/>
      <point x="582" y="548"/>
      <point x="490" y="670"/>
      <point x="301" y="670" type="curve" smooth="yes"/>
      <point x="210" y="670"/>
      <point x="149" y="644"/>
    </contour>
  </outline>
</glyph>
<glyph name="uni2206" format="2">
  <advance width="721"/>
  <unicode hex="2206"/>
  <outline>
    <contour>
      <point x="288" y="660" type="line"/>
      <point x="40" y="91" type="line"/>
      <point x="40" y="0" type="line"/>
      <point x="681" y="0" type="line"/>
      <point x="681" y="91" type="line"/>
      <point x="433" y="660" type="line"/>
    </contour>
    <contour>
      <point x="567" y="101" type="line"/>
      <point x="153" y="101" type="line"/>
      <point x="360" y="575" type="line"/>
    </contour>
  </outline>
</glyph>
<glyph name="product" format="2">
  <advance width="698"/>
  <unicode hex="220F"/>
  <outline>
    <contour>
      <point x="493" y="660" type="line"/>
      <point x="493" y="-128" type="line"/>
      <point x="623" y="-128" type="line"/>
      <point x="623" y="660" type="line"/>
    </contour>
    <contour>
      <point x="75" y="660" type="line"/>
      <point x="75" y="-128" type="line"/>
      <point x="206" y="-128" type="line"/>
      <point x="206" y="660" type="line"/>
    </contour>
    <contour>
      <point x="143" y="660" type="line"/>
      <point x="143" y="549" type="line"/>
      <point x="558" y="549" type="line"/>
      <point x="558" y="660" type="line"/>
    </contour>
  </outline>
</glyph>
<glyph name="summation" format="2">
  <advance width="660"/>
  <unicode hex="2211"/>
  <outline>
    <contour>
      <point x="347" y="267" type="line"/>
      <point x="57" y="-24" type="line"/>
      <point x="173" y="-61" type="line"/>
      <point x="493" y="255" type="line"/>
      <point x="493" y="267" type="line"/>
    </contour>
    <contour>
      <point x="57" y="-24" type="line"/>
      <point x="57" y="-128" type="line"/>
      <point x="600" y="-128" type="line"/>
      <point x="600" y="-24" type="line"/>
    </contour>
    <contour>
      <point x="57" y="552" type="line"/>
      <point x="347" y="267" type="line"/>
      <point x="493" y="267" type="line"/>
      <point x="493" y="279" type="line"/>
      <point x="173" y="590" type="line"/>
    </contour>
    <contour>
      <point x="57" y="660" type="line"/>
      <point x="57" y="552" type="line"/>
      <point x="600" y="552" type="line"/>
      <point x="600" y="660" type="line"/>
    </contour>
  </outline>
</glyph>
<glyph name="infinity" format="2">
  <advance width="921"/>
  <unicode hex="221E"/>
  <outline>
    <contour>
      <point x="427" y="330" type="curve" smooth="yes"/>
      <point x="297" y="183"/>
      <point x="277" y="168"/>
      <point x="233" y="168" type="curve" smooth="yes"/>
      <point x="192" y="168"/>
      <point x="157" y="203"/>
      <point x="157" y="273" type="curve" smooth="yes"/>
      <point x="157" y="344"/>
      <point x="193" y="378"/>
      <point x="237" y="378" type="curve" smooth="yes"/>
      <point x="289" y="378"/>
      <point x="324" y="350"/>
      <point x="415" y="250" type="curve" smooth="yes"/>
      <point x="526" y="128"/>
      <point x="589" y="80"/>
      <point x="679" y="80" type="curve" smooth="yes"/>
      <point x="786" y="80"/>
      <point x="870" y="144"/>
      <point x="870" y="298" type="curve" smooth="yes"/>
      <point x="870" y="453"/>
      <point x="785" y="516"/>
      <point x="689" y="516" type="curve" smooth="yes"/>
      <point x="622" y="516"/>
      <point x="581" y="505"/>
    </contour>
    <contour>
      <point x="51" y="298" type="curve" smooth="yes"/>
      <point x="51" y="144"/>
      <point x="136" y="80"/>
      <point x="231" y="80" type="curve" smooth="yes"/>
      <point x="316" y="80"/>
      <point x="348" y="101"/>
      <point x="496" y="270" type="curve" smooth="yes"/>
      <point x="624" y="416"/>
      <point x="647" y="429"/>
      <point x="690" y="429" type="curve" smooth="yes"/>
      <point x="734" y="429"/>
      <point x="764" y="391"/>
      <point x="764" y="324" type="curve" smooth="yes"/>
      <point x="764" y="256"/>
      <point x="733" y="217"/>
      <point x="684" y="218" type="curve" smooth="yes"/>
      <point x="634" y="219"/>
      <point x="586" y="253"/>
      <point x="509" y="345" type="curve" smooth="yes"/>
      <point x="389" y="483"/>
      <point x="317" y="516"/>
      <point x="232" y="516" type="curve" smooth="yes"/>
      <point x="137" y="516"/>
      <point x="51" y="453"/>
    </contour>
  </outline>
</glyph>
<glyph name="blackSmallSquare" format="2">
  <advance width="600"/>
  <unicode hex="25AA"/>
  <outline>
    <contour>
      <point x="50" y="0" type="line"/>
      <point x="550" y="0" type="line"/>
      <point x="550" y="500" type="line"/>
      <point x="50" y="500" type="line"/>
    </contour>
  </outline>
</glyph>
<glyph name="whiteSmallSquare" format="2">
  <advance width="600"/>
  <unicode hex="25AB"/>
  <outline>
    <contour>
      <point x="554" y="0" type="line"/>
      <point x="554" y="500" type="line"/>
      <point x="46" y="500" type="line"/>
      <point x="46" y="0" type="line"/>
    </contour>
    <contour>
      <point x="152" y="405" type="line"/>
      <point x="448" y="405" type="line"/>
      <point x="448" y="95" type="line"/>
      <point x="152" y="95" type="line"/>
    </contour>
  </outline>
</glyph>
<glyph name="Adieresis.titl.001" format="2">
  <advance width="671"/>
  <outline>
    <contour>
      <point x="153" y="0" type="line"/>
      <point x="305" y="451" type="line"/>
      <point x="333" y="549" type="line"/>
      <point x="335" y="549" type="line"/>
      <point x="365" y="449" type="line"/>
      <point x="516" y="0" type="line"/>
      <point x="659" y="0" type="line"/>
      <point x="418" y="660" type="line"/>
      <point x="253" y="660" type="line"/>
      <point x="12" y="0" type="line"/>
    </contour>
    <contour>
      <point x="516" y="161" type="line"/>
      <point x="516" y="263" type="line"/>
      <point x="154" y="263" type="line"/>
      <point x="154" y="161" type="line"/>
    </contour>
    <contour>
      <point x="181" y="535" type="curve"/>
      <point x="219" y="639" type="line"/>
      <point x="208" y="653"/>
      <point x="190" y="662"/>
      <point x="167" y="662" type="curve" smooth="yes"/>
      <point x="125" y="662"/>
      <point x="98" y="637"/>
      <point x="98" y="598" type="curve" smooth="yes"/>
      <point x="98" y="558"/>
      <point x="125" y="534"/>
      <point x="167" y="534" type="curve" smooth="yes"/>
      <point x="172" y="534"/>
      <point x="177" y="534"/>
    </contour>
    <contour>
      <point x="573" y="598" type="curve" smooth="yes"/>
      <point x="573" y="637"/>
      <point x="547" y="662"/>
      <point x="504" y="662" type="curve" smooth="yes"/>
      <point x="482" y="662"/>
      <point x="463" y="653"/>
      <point x="453" y="639" type="curve"/>
      <point x="490" y="535" type="line"/>
      <point x="494" y="534"/>
      <point x="499" y="534"/>
      <point x="504" y="534" type="curve" smooth="yes"/>
      <point x="547" y="534"/>
      <point x="573" y="558"/>
    </contour>
  </outline>
</glyph>
<glyph name="Aogonek_j" format="2">
  <advance width="952"/>
  <anchor x="598" y="0" name="bottomC"/>
  <anchor x="335" y="660" name="top"/>
  <anchor x="659" y="0" name="ogonek"/>
  <anchor x="335" y="0" name="bottom"/>
  <outline>
    <contour>
      <point x="881" y="-40" type="curve" smooth="yes"/>
      <point x="881" y="500" type="line"/>
      <point x="744" y="500" type="line"/>
      <point x="744" y="-34" type="line" smooth="yes"/>
      <point x="744" y="-89"/>
      <point x="731" y="-108"/>
      <point x="702" y="-108" type="curve" smooth="yes"/>
      <point x="685" y="-108"/>
      <point x="672" y="-105"/>
      <point x="661" y="-98" type="curve"/>
      <point x="641" y="-202" type="line"/>
      <point x="662" y="-211"/>
      <point x="683" y="-215"/>
      <point x="713" y="-215" type="curve" smooth="yes"/>
      <point x="798" y="-215"/>
      <point x="881" y="-180"/>
    </contour>
    <contour>
      <point x="604" y="-198" type="curve"/>
      <point x="607" y="-123" type="line"/>
      <point x="595" y="-132"/>
      <point x="584" y="-134"/>
      <point x="570" y="-134" type="curve" smooth="yes"/>
      <point x="538" y="-134"/>
      <point x="516" y="-116"/>
      <point x="516" y="-88" type="curve" smooth="yes"/>
      <point x="516" y="-45"/>
      <point x="561" y="-19"/>
      <point x="659" y="0" type="curve"/>
      <point x="588" y="28" type="line"/>
      <point x="494" y="12"/>
      <point x="418" y="-34"/>
      <point x="418" y="-118" type="curve" smooth="yes"/>
      <point x="418" y="-175"/>
      <point x="462" y="-215"/>
      <point x="532" y="-215" type="curve" smooth="yes"/>
      <point x="561" y="-215"/>
      <point x="585" y="-210"/>
    </contour>
    <contour>
      <point x="897" y="645" type="curve" smooth="yes"/>
      <point x="897" y="692"/>
      <point x="867" y="719"/>
      <point x="812" y="719" type="curve" smooth="yes"/>
      <point x="757" y="719"/>
      <point x="727" y="692"/>
      <point x="727" y="645" type="curve" smooth="yes"/>
      <point x="727" y="598"/>
      <point x="757" y="572"/>
      <point x="812" y="572" type="curve" smooth="yes"/>
      <point x="867" y="572"/>
      <point x="897" y="598"/>
    </contour>
    <component base="A"/>
  </outline>
</glyph>
<glyph name="L.swsh" format="2">
  <advance width="675"/>
  <anchor x="442" y="350" name="center"/>
  <anchor x="372" y="0" name="bottom"/>
  <anchor x="155" y="660" name="top"/>
  <anchor x="337" y="0" name="bottomC"/>
  <anchor x="333" y="700" name="topright"/>
  <anchor x="434" y="0" name="ogonek"/>
  <outline>
    <contour>
      <point x="434" y="0" type="line" smooth="yes"/>
      <point x="581" y="0"/>
      <point x="665" y="67"/>
      <point x="665" y="196" type="curve" smooth="yes"/>
      <point x="665" y="294"/>
      <point x="609" y="378"/>
      <point x="488" y="382" type="curve"/>
      <point x="445" y="289" type="line"/>
      <point x="506" y="288"/>
      <point x="542" y="256"/>
      <point x="542" y="198" type="curve" smooth="yes"/>
      <point x="542" y="137"/>
      <point x="499" y="111"/>
      <point x="424" y="111" type="curve" smooth="yes"/>
      <point x="296" y="111" type="line"/>
      <point x="296" y="0" type="line"/>
    </contour>
    <contour>
      <point x="353" y="0" type="line"/>
      <point x="369" y="111" type="line"/>
      <point x="155" y="111" type="line"/>
      <point x="155" y="0" type="line"/>
    </contour>
    <contour>
      <point x="224" y="0" type="line"/>
      <point x="224" y="660" type="line"/>
      <point x="86" y="660" type="line"/>
      <point x="86" y="0" type="line"/>
    </contour>
  </outline>
</glyph>
<glyph name="Lslash.swsh" format="2">
  <advance width="713"/>
  <anchor x="479" y="350" name="center"/>
  <anchor x="410" y="0" name="bottom"/>
  <anchor x="192" y="660" name="top"/>
  <anchor x="410" y="0" name="bottomC"/>
  <anchor x="371" y="700" name="topright"/>
  <anchor x="472" y="0" name="ogonek"/>
  <outline>
    <contour>
      <point x="15" y="287" type="line"/>
      <point x="15" y="177" type="line"/>
      <point x="435" y="388" type="line"/>
      <point x="435" y="498" type="line"/>
    </contour>
    <component base="L.swsh" xOffset="38"/>
  </outline>
</glyph>
<glyph name="M.swsh.001" format="2">
  <advance width="1127"/>
  <anchor x="682" y="660" name="top"/>
  <anchor x="1041" y="0" name="ogonek"/>
  <anchor x="682" y="0" name="bottom"/>
  <anchor x="705" y="0" name="bottomC"/>
  <outline>
    <contour>
      <point x="234" y="364" type="line"/>
      <point x="176" y="372"/>
      <point x="137" y="410"/>
      <point x="137" y="462" type="curve" smooth="yes"/>
      <point x="137" y="522"/>
      <point x="179" y="557"/>
      <point x="252" y="557" type="curve" smooth="yes"/>
      <point x="469" y="557" type="line"/>
      <point x="469" y="660" type="line"/>
      <point x="241" y="660" type="line" smooth="yes"/>
      <point x="95" y="660"/>
      <point x="10" y="587"/>
      <point x="10" y="464" type="curve" smooth="yes"/>
      <point x="10" y="350"/>
      <point x="89" y="277"/>
      <point x="191" y="268" type="curve"/>
    </contour>
    <component base="M" xOffset="237"/>
  </outline>
</glyph>
<glyph name="M.swsh" format="2">
  <advance width="1127"/>
  <anchor x="682" y="660" name="top"/>
  <anchor x="1041" y="0" name="ogonek"/>
  <anchor x="682" y="0" name="bottom"/>
  <anchor x="705" y="0" name="bottomC"/>
  <outline>
    <contour>
      <point x="739" y="0" type="line"/>
      <point x="922" y="537" type="line"/>
      <point x="923" y="537" type="line"/>
      <point x="917" y="344" type="line"/>
      <point x="917" y="0" type="line"/>
      <point x="1041" y="0" type="line"/>
      <point x="1041" y="660" type="line"/>
      <point x="847" y="660" type="line"/>
      <point x="729" y="299" type="line"/>
      <point x="686" y="151" type="line"/>
      <point x="684" y="151" type="line"/>
      <point x="642" y="300" type="line"/>
      <point x="523" y="660" type="line"/>
      <point x="323" y="660" type="line"/>
      <point x="323" y="197" type="line"/>
      <point x="448" y="197" type="line"/>
      <point x="448" y="344" type="line"/>
      <point x="441" y="537" type="line"/>
      <point x="443" y="537" type="line"/>
      <point x="626" y="0" type="line"/>
    </contour>
    <contour>
      <point x="234" y="364" type="line"/>
      <point x="176" y="372"/>
      <point x="137" y="410"/>
      <point x="137" y="462" type="curve" smooth="yes"/>
      <point x="137" y="522"/>
      <point x="179" y="557"/>
      <point x="252" y="557" type="curve" smooth="yes"/>
      <point x="469" y="557" type="line"/>
      <point x="469" y="660" type="line"/>
      <point x="241" y="660" type="line" smooth="yes"/>
      <point x="95" y="660"/>
      <point x="10" y="587"/>
      <point x="10" y="464" type="curve" smooth="yes"/>
      <point x="10" y="350"/>
      <point x="89" y="277"/>
      <point x="191" y="268" type="curve"/>
    </contour>
    <component base="swash_bttmleft" xOffset="57"/>
  </outline>
</glyph>
<glyph name="Odieresis.titl.001" format="2">
  <advance width="741"/>
  <outline>
    <contour>
      <point x="53" y="330" type="curve" smooth="yes"/>
      <point x="53" y="118"/>
      <point x="175" y="-10"/>
      <point x="371" y="-10" type="curve" smooth="yes"/>
      <point x="567" y="-10"/>
      <point x="688" y="118"/>
      <point x="688" y="330" type="curve" smooth="yes"/>
      <point x="688" y="542"/>
      <point x="567" y="670"/>
      <point x="371" y="670" type="curve" smooth="yes"/>
      <point x="175" y="670"/>
      <point x="53" y="542"/>
    </contour>
    <contour>
      <point x="545" y="330" type="curve" smooth="yes"/>
      <point x="545" y="183"/>
      <point x="481" y="103"/>
      <point x="371" y="103" type="curve" smooth="yes"/>
      <point x="260" y="103"/>
      <point x="196" y="183"/>
      <point x="196" y="330" type="curve" smooth="yes"/>
      <point x="196" y="477"/>
      <point x="260" y="557"/>
      <point x="371" y="557" type="curve" smooth="yes"/>
      <point x="481" y="557"/>
      <point x="545" y="477"/>
    </contour>
    <contour>
      <point x="672" y="609" type="curve" smooth="yes"/>
      <point x="672" y="646"/>
      <point x="646" y="670"/>
      <point x="606" y="670" type="curve" smooth="yes"/>
      <point x="581" y="670"/>
      <point x="562" y="660"/>
      <point x="552" y="643" type="curve"/>
      <point x="589" y="621"/>
      <point x="619" y="594"/>
      <point x="644" y="557" type="curve"/>
      <point x="662" y="567"/>
      <point x="672" y="586"/>
    </contour>
    <contour>
      <point x="134" y="670" type="curve" smooth="yes"/>
      <point x="95" y="670"/>
      <point x="70" y="646"/>
      <point x="70" y="609" type="curve" smooth="yes"/>
      <point x="70" y="586"/>
      <point x="80" y="568"/>
      <point x="97" y="558" type="curve"/>
      <point x="122" y="593"/>
      <point x="150" y="620"/>
      <point x="189" y="643" type="curve"/>
      <point x="179" y="660"/>
      <point x="159" y="670"/>
    </contour>
  </outline>
</glyph>
<glyph name="R.ss03" format="2">
  <advance width="674"/>
  <anchor x="327" y="660" name="top"/>
  <anchor x="627" y="0" name="ogonek"/>
  <anchor x="364" y="0" name="bottom"/>
  <anchor x="566" y="0" name="bottomC"/>
  <outline>
    <contour>
      <point x="222" y="0" type="line"/>
      <point x="222" y="253" type="line"/>
      <point x="329" y="253" type="line" smooth="yes"/>
      <point x="411" y="253"/>
      <point x="449" y="222"/>
      <point x="456" y="155" type="curve" smooth="yes"/>
      <point x="464" y="72"/>
      <point x="468" y="31"/>
      <point x="481" y="0" type="curve"/>
      <point x="627" y="0" type="line"/>
      <point x="627" y="4" type="line"/>
      <point x="610" y="33"/>
      <point x="601" y="66"/>
      <point x="592" y="168" type="curve" smooth="yes"/>
      <point x="587" y="229"/>
      <point x="556" y="275"/>
      <point x="484" y="290" type="curve"/>
      <point x="484" y="292" type="line"/>
      <point x="566" y="314"/>
      <point x="617" y="367"/>
      <point x="617" y="460" type="curve" smooth="yes"/>
      <point x="617" y="586"/>
      <point x="527" y="660"/>
      <point x="377" y="660" type="curve" smooth="yes"/>
      <point x="86" y="660" type="line"/>
      <point x="86" y="0" type="line"/>
    </contour>
    <contour>
      <point x="222" y="550" type="line"/>
      <point x="359" y="550" type="line" smooth="yes"/>
      <point x="439" y="550"/>
      <point x="476" y="520"/>
      <point x="476" y="454" type="curve" smooth="yes"/>
      <point x="476" y="388"/>
      <point x="439" y="358"/>
      <point x="359" y="358" type="curve" smooth="yes"/>
      <point x="222" y="358" type="line"/>
    </contour>
  </outline>
</glyph>
<glyph name="R.swsh.001" format="2">
  <advance width="721"/>
  <anchor x="327" y="660" name="top"/>
  <anchor x="646" y="-92" name="ogonek"/>
  <anchor x="364" y="0" name="bottom"/>
  <anchor x="660" y="-71" name="bottomC"/>
  <outline>
    <contour>
      <point x="377" y="253" type="line" smooth="yes"/>
      <point x="527" y="253"/>
      <point x="617" y="327"/>
      <point x="617" y="456" type="curve" smooth="yes"/>
      <point x="617" y="586"/>
      <point x="527" y="660"/>
      <point x="377" y="660" type="curve" smooth="yes"/>
      <point x="171" y="660" type="line"/>
      <point x="171" y="550" type="line"/>
      <point x="359" y="550" type="line" smooth="yes"/>
      <point x="439" y="550"/>
      <point x="476" y="520"/>
      <point x="476" y="454" type="curve" smooth="yes"/>
      <point x="476" y="388"/>
      <point x="439" y="358"/>
      <point x="359" y="358" type="curve" smooth="yes"/>
      <point x="171" y="358" type="line"/>
      <point x="171" y="253" type="line"/>
    </contour>
    <contour>
      <point x="222" y="0" type="line"/>
      <point x="222" y="660" type="line"/>
      <point x="86" y="660" type="line"/>
      <point x="86" y="0" type="line"/>
    </contour>
    <contour>
      <point x="721" y="-10" type="line"/>
      <point x="669" y="3"/>
      <point x="608" y="53"/>
      <point x="567" y="107" type="curve" smooth="yes"/>
      <point x="405" y="329" type="line"/>
      <point x="294" y="289" type="line"/>
      <point x="467" y="41" type="line" smooth="yes"/>
      <point x="506" y="-15"/>
      <point x="546" y="-57"/>
      <point x="646" y="-92" type="curve"/>
    </contour>
  </outline>
</glyph>
<glyph name="R.swsh" format="2">
  <advance width="917"/>
  <anchor x="564" y="660" name="top"/>
  <anchor x="893" y="0" name="ogonek"/>
  <anchor x="601" y="0" name="bottom"/>
  <anchor x="824" y="0" name="bottomC"/>
  <outline>
    <contour>
      <point x="614" y="253" type="line" smooth="yes"/>
      <point x="764" y="253"/>
      <point x="854" y="327"/>
      <point x="854" y="456" type="curve" smooth="yes"/>
      <point x="854" y="586"/>
      <point x="764" y="660"/>
      <point x="614" y="660" type="curve" smooth="yes"/>
      <point x="408" y="660" type="line"/>
      <point x="408" y="550" type="line"/>
      <point x="596" y="550" type="line" smooth="yes"/>
      <point x="676" y="550"/>
      <point x="713" y="520"/>
      <point x="713" y="454" type="curve" smooth="yes"/>
      <point x="713" y="388"/>
      <point x="676" y="358"/>
      <point x="596" y="358" type="curve" smooth="yes"/>
      <point x="408" y="358" type="line"/>
      <point x="408" y="253" type="line"/>
    </contour>
    <contour>
      <point x="459" y="98" type="curve" smooth="yes"/>
      <point x="459" y="206" type="line"/>
      <point x="323" y="206" type="line"/>
      <point x="323" y="107" type="line" smooth="yes"/>
      <point x="323" y="41"/>
      <point x="285" y="-4"/>
      <point x="223" y="-4" type="curve" smooth="yes"/>
      <point x="161" y="-4"/>
      <point x="129" y="22"/>
      <point x="111" y="85" type="curve"/>
      <point x="46" y="7" type="line"/>
      <point x="71" y="-68"/>
      <point x="132" y="-110"/>
      <point x="236" y="-110" type="curve" smooth="yes"/>
      <point x="375" y="-110"/>
      <point x="459" y="-34"/>
    </contour>
    <contour>
      <point x="459" y="194" type="line"/>
      <point x="459" y="660" type="line"/>
      <point x="323" y="660" type="line"/>
      <point x="323" y="194" type="line"/>
    </contour>
    <contour>
      <point x="893" y="0" type="line"/>
      <point x="679" y="329" type="line"/>
      <point x="561" y="289" type="line"/>
      <point x="738" y="0" type="line"/>
    </contour>
    <component base="__swash_topleft" xOffset="-48"/>
  </outline>
</glyph>
<glyph name="T.swsh" format="2">
  <advance width="761"/>
  <anchor x="447" y="0" name="bottom"/>
  <anchor x="443" y="660" name="top"/>
  <anchor x="512" y="0" name="ogonek"/>
  <anchor x="443" y="333" name="center"/>
  <anchor x="472" y="0" name="bottomC"/>
  <outline>
    <contour>
      <point x="234" y="364" type="line"/>
      <point x="173" y="372"/>
      <point x="137" y="410"/>
      <point x="137" y="462" type="curve" smooth="yes"/>
      <point x="137" y="521"/>
      <point x="180" y="549"/>
      <point x="255" y="549" type="curve" smooth="yes"/>
      <point x="437" y="549" type="line"/>
      <point x="437" y="660" type="line"/>
      <point x="241" y="660" type="line" smooth="yes"/>
      <point x="95" y="660"/>
      <point x="10" y="587"/>
      <point x="10" y="464" type="curve" smooth="yes"/>
      <point x="10" y="353"/>
      <point x="89" y="277"/>
      <point x="191" y="268" type="curve"/>
    </contour>
    <contour>
      <point x="512" y="0" type="line"/>
      <point x="512" y="660" type="line"/>
      <point x="374" y="660" type="line"/>
      <point x="374" y="0" type="line"/>
    </contour>
    <contour>
      <point x="733" y="549" type="line"/>
      <point x="733" y="660" type="line"/>
      <point x="308" y="660" type="line"/>
      <point x="308" y="549" type="line"/>
    </contour>
  </outline>
</glyph>
<glyph name="Udieresis.titl" format="2">
  <advance width="715"/>
  <outline>
    <contour>
      <point x="464" y="550" type="curve" smooth="yes"/>
      <point x="464" y="585"/>
      <point x="440" y="608"/>
      <point x="402" y="608" type="curve" smooth="yes"/>
      <point x="365" y="608"/>
      <point x="342" y="585"/>
      <point x="342" y="550" type="curve" smooth="yes"/>
      <point x="342" y="515"/>
      <point x="365" y="493"/>
      <point x="402" y="493" type="curve" smooth="yes"/>
      <point x="440" y="493"/>
      <point x="464" y="515"/>
    </contour>
    <contour>
      <point x="375" y="605" type="curve" smooth="yes"/>
      <point x="375" y="640"/>
      <point x="351" y="662"/>
      <point x="313" y="662" type="curve" smooth="yes"/>
      <point x="277" y="662"/>
      <point x="253" y="640"/>
      <point x="253" y="605" type="curve" smooth="yes"/>
      <point x="253" y="569"/>
      <point x="277" y="547"/>
      <point x="313" y="547" type="curve" smooth="yes"/>
      <point x="351" y="547"/>
      <point x="375" y="569"/>
    </contour>
    <contour>
      <point x="501" y="660" type="line"/>
      <point x="501" y="266" type="line" smooth="yes"/>
      <point x="501" y="155"/>
      <point x="455" y="103"/>
      <point x="358" y="103" type="curve" smooth="yes"/>
      <point x="261" y="103"/>
      <point x="214" y="155"/>
      <point x="214" y="266" type="curve" smooth="yes"/>
      <point x="214" y="660" type="line"/>
      <point x="76" y="660" type="line"/>
      <point x="76" y="260" type="line" smooth="yes"/>
      <point x="76" y="80"/>
      <point x="174" y="-10"/>
      <point x="358" y="-10" type="curve" smooth="yes"/>
      <point x="542" y="-10"/>
      <point x="640" y="80"/>
      <point x="640" y="260" type="curve" smooth="yes"/>
      <point x="640" y="660" type="line"/>
    </contour>
  </outline>
</glyph>
<glyph name="Ydieresis.titl" format="2">
  <advance width="626"/>
  <outline>
    <contour>
      <point x="471" y="682" type="curve" smooth="yes"/>
      <point x="471" y="724"/>
      <point x="443" y="750"/>
      <point x="398" y="750" type="curve" smooth="yes"/>
      <point x="353" y="750"/>
      <point x="325" y="724"/>
      <point x="325" y="682" type="curve" smooth="yes"/>
      <point x="325" y="639"/>
      <point x="353" y="613"/>
      <point x="398" y="613" type="curve" smooth="yes"/>
      <point x="443" y="613"/>
      <point x="471" y="639"/>
    </contour>
    <contour>
      <point x="300" y="682" type="curve" smooth="yes"/>
      <point x="300" y="724"/>
      <point x="272" y="750"/>
      <point x="226" y="750" type="curve" smooth="yes"/>
      <point x="182" y="750"/>
      <point x="154" y="724"/>
      <point x="154" y="682" type="curve" smooth="yes"/>
      <point x="154" y="639"/>
      <point x="182" y="613"/>
      <point x="226" y="613" type="curve" smooth="yes"/>
      <point x="272" y="613"/>
      <point x="300" y="639"/>
    </contour>
    <contour>
      <point x="470" y="660" type="line"/>
      <point x="364" y="463" type="line"/>
      <point x="313" y="359" type="line"/>
      <point x="263" y="463" type="line"/>
      <point x="157" y="660" type="line"/>
      <point x="10" y="660" type="line"/>
      <point x="244" y="247" type="line"/>
      <point x="244" y="0" type="line"/>
      <point x="382" y="0" type="line"/>
      <point x="382" y="247" type="line"/>
      <point x="616" y="660" type="line"/>
    </contour>
  </outline>
</glyph>
<glyph name="__swash_topleft" format="2">
  <advance width="511"/>
  <outline>
    <contour>
      <point x="282" y="364" type="line"/>
      <point x="224" y="372"/>
      <point x="185" y="410"/>
      <point x="185" y="462" type="curve" smooth="yes"/>
      <point x="185" y="522"/>
      <point x="227" y="557"/>
      <point x="300" y="557" type="curve" smooth="yes"/>
      <point x="517" y="557" type="line"/>
      <point x="517" y="660" type="line"/>
      <point x="289" y="660" type="line" smooth="yes"/>
      <point x="143" y="660"/>
      <point x="58" y="587"/>
      <point x="58" y="464" type="curve" smooth="yes"/>
      <point x="58" y="350"/>
      <point x="137" y="277"/>
      <point x="239" y="268" type="curve"/>
    </contour>
  </outline>
</glyph>
<glyph name="a.sc" format="2">
  <advance width="617"/>
  <anchor x="308" y="560" name="top"/>
  <anchor x="604" y="0" name="ogonek"/>
  <anchor x="308" y="0" name="bottom"/>
  <anchor x="541" y="0" name="bottomC"/>
  <outline>
    <contour>
      <point x="146" y="0" type="line"/>
      <point x="264" y="320" type="line"/>
      <point x="305" y="456" type="line"/>
      <point x="308" y="456" type="line"/>
      <point x="349" y="320" type="line"/>
      <point x="466" y="0" type="line"/>
      <point x="604" y="0" type="line"/>
      <point x="390" y="560" type="line"/>
      <point x="226" y="560" type="line"/>
      <point x="13" y="0" type="line"/>
    </contour>
    <contour>
      <point x="472" y="130" type="line"/>
      <point x="472" y="227" type="line"/>
      <point x="144" y="227" type="line"/>
      <point x="144" y="130" type="line"/>
    </contour>
  </outline>
</glyph>
<glyph name="ae.sc" format="2">
  <advance width="840"/>
  <anchor x="433" y="560" name="top"/>
  <anchor x="433" y="0" name="bottom"/>
  <outline>
    <contour>
      <point x="259" y="560" type="line"/>
      <point x="-8" y="0" type="line"/>
      <point x="123" y="0" type="line"/>
      <point x="373" y="560" type="line"/>
    </contour>
    <contour>
      <point x="178" y="264" type="line"/>
      <point x="130" y="166" type="line"/>
      <point x="438" y="166" type="line"/>
      <point x="438" y="264" type="line"/>
    </contour>
    <contour>
      <point x="435" y="99" type="line"/>
      <point x="435" y="0" type="line"/>
      <point x="803" y="0" type="line"/>
      <point x="803" y="99" type="line"/>
    </contour>
    <contour>
      <point x="369" y="560" type="line"/>
      <point x="369" y="0" type="line"/>
      <point x="497" y="0" type="line"/>
      <point x="497" y="560" type="line"/>
    </contour>
    <contour>
      <point x="435" y="330" type="line"/>
      <point x="435" y="232" type="line"/>
      <point x="719" y="232" type="line"/>
      <point x="719" y="330" type="line"/>
    </contour>
    <contour>
      <point x="311" y="560" type="line"/>
      <point x="273" y="463" type="line"/>
      <point x="428" y="463" type="line"/>
      <point x="456" y="461" type="line"/>
      <point x="790" y="461" type="line"/>
      <point x="790" y="560" type="line"/>
    </contour>
  </outline>
</glyph>
<glyph name="aring.sc" format="2">
  <advance width="617"/>
  <anchor x="309" y="748" name="top"/>
  <anchor x="604" y="0" name="ogonek"/>
  <anchor x="308" y="0" name="bottom"/>
  <anchor x="552" y="0" name="bottomC"/>
  <outline>
    <contour>
      <point x="147" y="0" type="line"/>
      <point x="265" y="320" type="line"/>
      <point x="306" y="452" type="line"/>
      <point x="309" y="452" type="line"/>
      <point x="348" y="320" type="line"/>
      <point x="467" y="0" type="line"/>
      <point x="604" y="0" type="line"/>
      <point x="387" y="560" type="line"/>
      <point x="229" y="560" type="line"/>
      <point x="13" y="0" type="line"/>
    </contour>
    <contour>
      <point x="473" y="130" type="line"/>
      <point x="473" y="227" type="line"/>
      <point x="144" y="227" type="line"/>
      <point x="144" y="130" type="line"/>
    </contour>
    <contour>
      <point x="167" y="632" type="curve" smooth="yes"/>
      <point x="167" y="557"/>
      <point x="222" y="512"/>
      <point x="309" y="512" type="curve" smooth="yes"/>
      <point x="392" y="512"/>
      <point x="449" y="557"/>
      <point x="449" y="632" type="curve" smooth="yes"/>
      <point x="449" y="707"/>
      <point x="395" y="758"/>
      <point x="309" y="758" type="curve" smooth="yes"/>
      <point x="222" y="758"/>
      <point x="167" y="707"/>
    </contour>
    <contour>
      <point x="371" y="629" type="curve" smooth="yes"/>
      <point x="371" y="593"/>
      <point x="346" y="568"/>
      <point x="308" y="568" type="curve" smooth="yes"/>
      <point x="270" y="568"/>
      <point x="245" y="593"/>
      <point x="245" y="629" type="curve" smooth="yes"/>
      <point x="245" y="665"/>
      <point x="270" y="690"/>
      <point x="308" y="690" type="curve" smooth="yes"/>
      <point x="346" y="690"/>
      <point x="371" y="665"/>
    </contour>
  </outline>
</glyph>
<glyph name="blackCircle.case" format="2">
  <advance width="795"/>
  <outline>
    <contour>
      <point x="738" y="330" type="curve" smooth="yes"/>
      <point x="738" y="524"/>
      <point x="592" y="670"/>
      <point x="398" y="670" type="curve" smooth="yes"/>
      <point x="204" y="670"/>
      <point x="58" y="524"/>
      <point x="58" y="330" type="curve" smooth="yes"/>
      <point x="58" y="136"/>
      <point x="204" y="-10"/>
      <point x="398" y="-10" type="curve" smooth="yes"/>
      <point x="592" y="-10"/>
      <point x="738" y="136"/>
    </contour>
  </outline>
</glyph>
<glyph name="blackDiamond.case" format="2">
  <advance width="795"/>
  <outline>
    <contour>
      <point x="740" y="330" type="line"/>
      <point x="398" y="672" type="line"/>
      <point x="56" y="330" type="line"/>
      <point x="398" y="-12" type="line"/>
    </contour>
  </outline>
</glyph>
<glyph name="bracketleft.case" format="2">
  <advance width="375"/>
  <outline>
    <contour>
      <point x="86" y="752" type="line"/>
      <point x="86" y="-97" type="line"/>
      <point x="206" y="-97" type="line"/>
      <point x="206" y="752" type="line"/>
    </contour>
    <contour>
      <point x="148" y="4" type="line"/>
      <point x="148" y="-97" type="line"/>
      <point x="347" y="-97" type="line"/>
      <point x="347" y="4" type="line"/>
    </contour>
    <contour>
      <point x="148" y="752" type="line"/>
      <point x="148" y="651" type="line"/>
      <point x="347" y="651" type="line"/>
      <point x="347" y="752" type="line"/>
    </contour>
  </outline>
</glyph>
<glyph name="c_t" format="2">
  <advance width="935"/>
  <outline>
    <contour>
      <point x="531" y="141" type="curve"/>
      <point x="408" y="181" type="line"/>
      <point x="395" y="124"/>
      <point x="361" y="92"/>
      <point x="304" y="92" type="curve" smooth="yes"/>
      <point x="230" y="92"/>
      <point x="183" y="142"/>
      <point x="183" y="249" type="curve" smooth="yes"/>
      <point x="183" y="354"/>
      <point x="227" y="408"/>
      <point x="305" y="408" type="curve" smooth="yes"/>
      <point x="356" y="408"/>
      <point x="389" y="376"/>
      <point x="401" y="317" type="curve"/>
      <point x="529" y="363" type="line"/>
      <point x="504" y="414"/>
      <point x="479" y="476"/>
      <point x="479" y="534" type="curve" smooth="yes"/>
      <point x="479" y="604"/>
      <point x="508" y="625"/>
      <point x="547" y="625" type="curve" smooth="yes"/>
      <point x="587" y="625"/>
      <point x="617" y="597"/>
      <point x="617" y="523" type="curve" smooth="yes"/>
      <point x="617" y="141" type="line" smooth="yes"/>
      <point x="617" y="31"/>
      <point x="686" y="-10"/>
      <point x="785" y="-10" type="curve" smooth="yes"/>
      <point x="838" y="-10"/>
      <point x="889" y="5"/>
      <point x="921" y="31" type="curve"/>
      <point x="900" y="122" type="line"/>
      <point x="879" y="104"/>
      <point x="856" y="94"/>
      <point x="823" y="94" type="curve" smooth="yes"/>
      <point x="781" y="94"/>
      <point x="754" y="115"/>
      <point x="754" y="163" type="curve" smooth="yes"/>
      <point x="754" y="553" type="line" smooth="yes"/>
      <point x="754" y="678"/>
      <point x="656" y="727"/>
      <point x="559" y="727" type="curve" smooth="yes"/>
      <point x="453" y="727"/>
      <point x="373" y="673"/>
      <point x="373" y="559" type="curve" smooth="yes"/>
      <point x="373" y="505"/>
      <point x="393" y="473"/>
      <point x="417" y="450" type="curve"/>
      <point x="420" y="476" type="line"/>
      <point x="381" y="500"/>
      <point x="345" y="510"/>
      <point x="301" y="510" type="curve" smooth="yes"/>
      <point x="141" y="510"/>
      <point x="46" y="414"/>
      <point x="46" y="250" type="curve" smooth="yes"/>
      <point x="46" y="86"/>
      <point x="140" y="-10"/>
      <point x="306" y="-10" type="curve" smooth="yes"/>
      <point x="433" y="-10"/>
      <point x="511" y="52"/>
    </contour>
    <contour>
      <point x="917" y="398" type="line"/>
      <point x="917" y="500" type="line"/>
      <point x="665" y="500" type="line"/>
      <point x="665" y="398" type="line"/>
    </contour>
  </outline>
</glyph>
<glyph name="caroncmb.cap" format="2">
  <anchor x="0" y="660" name="_top"/>
  <outline>
    <contour>
      <point x="71" y="892" type="line"/>
      <point x="0" y="795" type="line"/>
      <point x="-71" y="892" type="line"/>
      <point x="-173" y="892" type="line"/>
      <point x="-69" y="730" type="line"/>
      <point x="69" y="730" type="line"/>
      <point x="173" y="892" type="line"/>
    </contour>
  </outline>
</glyph>
<glyph name="daggerdblsuperior" format="2">
  <advance width="458"/>
  <outline>
    <contour>
      <point x="32" y="600" type="line"/>
      <point x="32" y="520" type="line"/>
      <point x="426" y="520" type="line"/>
      <point x="426" y="600" type="line"/>
    </contour>
    <contour>
      <point x="281" y="730" type="line"/>
      <point x="178" y="730" type="line"/>
      <point x="178" y="222" type="line"/>
      <point x="281" y="222" type="line"/>
    </contour>
    <contour>
      <point x="426" y="432" type="line"/>
      <point x="32" y="432" type="line"/>
      <point x="32" y="352" type="line"/>
      <point x="426" y="352" type="line"/>
    </contour>
  </outline>
</glyph>
<glyph name="daggersuperior" format="2">
  <advance width="458"/>
  <outline>
    <contour>
      <point x="178" y="730" type="line"/>
      <point x="178" y="222" type="line"/>
      <point x="281" y="222" type="line"/>
      <point x="281" y="730" type="line"/>
    </contour>
    <contour>
      <point x="32" y="589" type="line"/>
      <point x="32" y="501" type="line"/>
      <point x="426" y="501" type="line"/>
      <point x="426" y="589" type="line"/>
    </contour>
  </outline>
</glyph>
<glyph name="dcroat.sc" format="2">
  <advance width="673"/>
  <anchor x="317" y="0" name="bottom"/>
  <anchor x="317" y="560" name="top"/>
  <anchor x="330" y="0" name="ogonek"/>
  <anchor x="235" y="173" name="center"/>
  <anchor x="313" y="0" name="bottomC"/>
  <outline>
    <contour>
      <point x="15" y="314" type="line"/>
      <point x="15" y="247" type="line"/>
      <point x="364" y="247" type="line"/>
      <point x="364" y="314" type="line"/>
    </contour>
    <component base="d.sc" xOffset="19"/>
  </outline>
</glyph>
<glyph name="e.sc" format="2">
  <advance width="578"/>
  <anchor x="300" y="560" name="top"/>
  <anchor x="541" y="0" name="ogonek"/>
  <anchor x="307" y="0" name="bottom"/>
  <anchor x="312" y="0" name="bottomC"/>
  <outline>
    <contour>
      <point x="78" y="560" type="line"/>
      <point x="78" y="0" type="line"/>
      <point x="214" y="0" type="line"/>
      <point x="214" y="560" type="line"/>
    </contour>
    <contour>
      <point x="148" y="101" type="line"/>
      <point x="148" y="0" type="line"/>
      <point x="541" y="0" type="line"/>
      <point x="541" y="101" type="line"/>
    </contour>
    <contour>
      <point x="148" y="331" type="line"/>
      <point x="148" y="234" type="line"/>
      <point x="462" y="234" type="line"/>
      <point x="462" y="331" type="line"/>
    </contour>
    <contour>
      <point x="148" y="560" type="line"/>
      <point x="148" y="459" type="line"/>
      <point x="532" y="459" type="line"/>
      <point x="532" y="560" type="line"/>
    </contour>
  </outline>
</glyph>
<glyph name="eight.sc" format="2">
  <advance width="567"/>
  <outline>
    <contour>
      <point x="519" y="151" type="curve" smooth="yes"/>
      <point x="519" y="214"/>
      <point x="480" y="263"/>
      <point x="409" y="288" type="curve"/>
      <point x="409" y="290" type="line"/>
      <point x="471" y="313"/>
      <point x="503" y="357"/>
      <point x="503" y="411" type="curve" smooth="yes"/>
      <point x="503" y="509"/>
      <point x="417" y="567"/>
      <point x="283" y="567" type="curve" smooth="yes"/>
      <point x="149" y="567"/>
      <point x="64" y="509"/>
      <point x="64" y="411" type="curve" smooth="yes"/>
      <point x="64" y="357"/>
      <point x="96" y="313"/>
      <point x="158" y="290" type="curve"/>
      <point x="158" y="288" type="line"/>
      <point x="86" y="263"/>
      <point x="48" y="214"/>
      <point x="48" y="151" type="curve" smooth="yes"/>
      <point x="48" y="53"/>
      <point x="138" y="-8"/>
      <point x="283" y="-8" type="curve" smooth="yes"/>
      <point x="429" y="-8"/>
      <point x="519" y="53"/>
    </contour>
    <contour>
      <point x="179" y="166" type="curve" smooth="yes"/>
      <point x="179" y="214"/>
      <point x="220" y="243"/>
      <point x="283" y="243" type="curve" smooth="yes"/>
      <point x="347" y="243"/>
      <point x="388" y="214"/>
      <point x="388" y="166" type="curve" smooth="yes"/>
      <point x="388" y="118"/>
      <point x="348" y="89"/>
      <point x="283" y="89" type="curve" smooth="yes"/>
      <point x="219" y="89"/>
      <point x="179" y="118"/>
    </contour>
    <contour>
      <point x="192" y="401" type="curve" smooth="yes"/>
      <point x="192" y="445"/>
      <point x="227" y="470"/>
      <point x="283" y="470" type="curve" smooth="yes"/>
      <point x="339" y="470"/>
      <point x="375" y="445"/>
      <point x="375" y="401" type="curve" smooth="yes"/>
      <point x="375" y="357"/>
      <point x="339" y="331"/>
      <point x="283" y="331" type="curve" smooth="yes"/>
      <point x="228" y="331"/>
      <point x="192" y="357"/>
    </contour>
  </outline>
</glyph>
<glyph name="euro.part.tf" format="2">
  <advance width="604"/>
  <outline>
    <contour>
      <point x="93" y="330" type="curve" smooth="yes"/>
      <point x="93" y="118"/>
      <point x="189" y="-10"/>
      <point x="355" y="-10" type="curve" smooth="yes"/>
      <point x="479" y="-10"/>
      <point x="567" y="58"/>
      <point x="590" y="170" type="curve"/>
      <point x="483" y="202" type="line"/>
      <point x="473" y="129"/>
      <point x="428" y="92"/>
      <point x="358" y="92" type="curve" smooth="yes"/>
      <point x="268" y="92"/>
      <point x="213" y="180"/>
      <point x="213" y="330" type="curve" smooth="yes"/>
      <point x="213" y="481"/>
      <point x="275" y="568"/>
      <point x="366" y="568" type="curve" smooth="yes"/>
      <point x="426" y="568"/>
      <point x="466" y="534"/>
      <point x="475" y="468" type="curve"/>
      <point x="581" y="518" type="line"/>
      <point x="556" y="621"/>
      <point x="482" y="670"/>
      <point x="361" y="670" type="curve" smooth="yes"/>
      <point x="194" y="670"/>
      <point x="93" y="542"/>
    </contour>
  </outline>
</glyph>
<glyph name="exclam.sc" format="2">
  <advance width="270"/>
  <outline>
    <contour>
      <point x="65" y="560" type="line"/>
      <point x="65" y="382" type="line"/>
      <point x="81" y="187" type="line"/>
      <point x="190" y="187" type="line"/>
      <point x="205" y="382" type="line"/>
      <point x="205" y="560" type="line"/>
    </contour>
    <component base="period" xScale="0.9248" yScale="0.8934" xOffset="5"/>
  </outline>
</glyph>
<glyph name="f.sc" format="2">
  <advance width="563"/>
  <anchor x="306" y="560" name="top"/>
  <anchor x="215" y="0" name="ogonek"/>
  <anchor x="147" y="0" name="bottom"/>
  <anchor x="159" y="0" name="bottomC"/>
  <outline>
    <contour>
      <point x="78" y="560" type="line"/>
      <point x="78" y="0" type="line"/>
      <point x="214" y="0" type="line"/>
      <point x="214" y="560" type="line"/>
    </contour>
    <contour>
      <point x="148" y="327" type="line"/>
      <point x="148" y="226" type="line"/>
      <point x="462" y="226" type="line"/>
      <point x="462" y="327" type="line"/>
    </contour>
    <contour>
      <point x="148" y="560" type="line"/>
      <point x="148" y="459" type="line"/>
      <point x="532" y="459" type="line"/>
      <point x="532" y="560" type="line"/>
    </contour>
  </outline>
</glyph>
<glyph name="f_t.liga" format="2">
  <advance width="780"/>
  <anchor x="605" y="0" name="bottom"/>
  <anchor x="512" y="250" name="center"/>
  <anchor x="672" y="767" name="topright"/>
  <outline>
    <contour>
      <point x="108" y="560" type="curve" smooth="yes"/>
      <point x="108" y="0" type="line"/>
      <point x="245" y="0" type="line"/>
      <point x="245" y="454" type="line"/>
      <point x="239" y="481" type="line"/>
      <point x="239" y="550" type="line" smooth="yes"/>
      <point x="239" y="605"/>
      <point x="271" y="627"/>
      <point x="319" y="627" type="curve" smooth="yes"/>
      <point x="342" y="627"/>
      <point x="358" y="622"/>
      <point x="373" y="613" type="curve"/>
      <point x="388" y="704" type="line"/>
      <point x="368" y="719"/>
      <point x="334" y="730"/>
      <point x="291" y="730" type="curve" smooth="yes"/>
      <point x="184" y="730"/>
      <point x="108" y="673"/>
    </contour>
    <contour>
      <point x="21" y="500" type="line"/>
      <point x="21" y="398" type="line"/>
      <point x="397" y="398" type="line"/>
      <point x="397" y="500" type="line"/>
    </contour>
    <contour>
      <point x="462" y="615" type="line"/>
      <point x="462" y="141" type="line" smooth="yes"/>
      <point x="463" y="31"/>
      <point x="531" y="-10"/>
      <point x="630" y="-10" type="curve" smooth="yes"/>
      <point x="683" y="-10"/>
      <point x="734" y="5"/>
      <point x="766" y="31" type="curve"/>
      <point x="745" y="122" type="line"/>
      <point x="724" y="104"/>
      <point x="701" y="94"/>
      <point x="669" y="94" type="curve" smooth="yes"/>
      <point x="626" y="94"/>
      <point x="599" y="115"/>
      <point x="599" y="163" type="curve" smooth="yes"/>
      <point x="599" y="653" type="line"/>
    </contour>
    <contour>
      <point x="371" y="500" type="line"/>
      <point x="371" y="398" type="line"/>
      <point x="762" y="398" type="line"/>
      <point x="762" y="500" type="line"/>
    </contour>
  </outline>
</glyph>
<glyph name="five.osf" format="2">
  <advance width="569"/>
  <outline>
    <contour>
      <point x="180" y="273" type="curve"/>
      <point x="179" y="273" type="line"/>
      <point x="180" y="276"/>
      <point x="181" y="285"/>
      <point x="182" y="290" type="curve"/>
      <point x="202" y="455" type="line"/>
      <point x="497" y="455" type="line"/>
      <point x="497" y="560" type="line"/>
      <point x="100" y="560" type="line"/>
      <point x="58" y="186" type="line"/>
      <point x="164" y="172" type="line"/>
      <point x="190" y="205"/>
      <point x="228" y="226"/>
      <point x="284" y="226" type="curve" smooth="yes"/>
      <point x="358" y="226"/>
      <point x="398" y="183"/>
      <point x="398" y="109" type="curve" smooth="yes"/>
      <point x="398" y="34"/>
      <point x="356" y="-9"/>
      <point x="281" y="-9" type="curve" smooth="yes"/>
      <point x="207" y="-9"/>
      <point x="170" y="35"/>
      <point x="156" y="98" type="curve"/>
      <point x="38" y="37" type="line"/>
      <point x="81" y="-67"/>
      <point x="166" y="-110"/>
      <point x="286" y="-110" type="curve" smooth="yes"/>
      <point x="425" y="-110"/>
      <point x="524" y="-32"/>
      <point x="524" y="118" type="curve" smooth="yes"/>
      <point x="524" y="241"/>
      <point x="451" y="325"/>
      <point x="322" y="325" type="curve" smooth="yes"/>
      <point x="258" y="325"/>
      <point x="208" y="304"/>
    </contour>
  </outline>
</glyph>
<glyph name="five.sc" format="2">
  <advance width="534"/>
  <outline>
    <contour>
      <point x="174" y="312" type="curve"/>
      <point x="173" y="312" type="line"/>
      <point x="175" y="317"/>
      <point x="179" y="338"/>
      <point x="180" y="343" type="curve"/>
      <point x="194" y="459" type="line"/>
      <point x="462" y="459" type="line"/>
      <point x="462" y="560" type="line"/>
      <point x="92" y="560" type="line"/>
      <point x="56" y="239" type="line"/>
      <point x="161" y="228" type="line"/>
      <point x="182" y="256"/>
      <point x="220" y="269"/>
      <point x="263" y="269" type="curve" smooth="yes"/>
      <point x="324" y="269"/>
      <point x="361" y="239"/>
      <point x="362" y="183" type="curve" smooth="yes"/>
      <point x="363" y="130"/>
      <point x="325" y="95"/>
      <point x="263" y="95" type="curve" smooth="yes"/>
      <point x="197" y="95"/>
      <point x="170" y="123"/>
      <point x="153" y="168" type="curve"/>
      <point x="39" y="109" type="line"/>
      <point x="81" y="28"/>
      <point x="156" y="-8"/>
      <point x="268" y="-8" type="curve" smooth="yes"/>
      <point x="404" y="-8"/>
      <point x="487" y="65"/>
      <point x="487" y="186" type="curve" smooth="yes"/>
      <point x="487" y="289"/>
      <point x="416" y="359"/>
      <point x="309" y="359" type="curve" smooth="yes"/>
      <point x="234" y="359"/>
      <point x="200" y="338"/>
    </contour>
  </outline>
</glyph>
<glyph name="florin.tf" format="2">
  <advance width="604"/>
  <outline>
    <contour>
      <point x="295" y="563" type="curve" smooth="yes"/>
      <point x="203" y="53" type="line" smooth="yes"/>
      <point x="194" y="1"/>
      <point x="163" y="-27"/>
      <point x="114" y="-27" type="curve" smooth="yes"/>
      <point x="88" y="-27"/>
      <point x="67" y="-21"/>
      <point x="49" y="-8" type="curve"/>
      <point x="30" y="-102" type="line"/>
      <point x="63" y="-122"/>
      <point x="88" y="-128"/>
      <point x="136" y="-128" type="curve" smooth="yes"/>
      <point x="240" y="-128"/>
      <point x="305" y="-70"/>
      <point x="324" y="38" type="curve" smooth="yes"/>
      <point x="415" y="548" type="line" smooth="yes"/>
      <point x="425" y="601"/>
      <point x="455" y="629"/>
      <point x="505" y="629" type="curve" smooth="yes"/>
      <point x="530" y="629"/>
      <point x="550" y="623"/>
      <point x="570" y="610" type="curve"/>
      <point x="588" y="704" type="line"/>
      <point x="555" y="724"/>
      <point x="531" y="730"/>
      <point x="483" y="730" type="curve" smooth="yes"/>
      <point x="379" y="730"/>
      <point x="315" y="672"/>
    </contour>
    <contour>
      <point x="102" y="411" type="line"/>
      <point x="102" y="310" type="line"/>
      <point x="547" y="310" type="line"/>
      <point x="547" y="411" type="line"/>
    </contour>
  </outline>
</glyph>
<glyph name="four.sc" format="2">
  <advance width="587"/>
  <outline>
    <contour>
      <point x="461" y="0" type="line"/>
      <point x="461" y="124" type="line"/>
      <point x="557" y="124" type="line"/>
      <point x="557" y="222" type="line"/>
      <point x="461" y="222" type="line"/>
      <point x="461" y="560" type="line"/>
      <point x="295" y="560" type="line"/>
      <point x="39" y="197" type="line"/>
      <point x="39" y="124" type="line"/>
      <point x="335" y="124" type="line"/>
      <point x="335" y="0" type="line"/>
    </contour>
    <contour>
      <point x="289" y="394" type="line" smooth="yes"/>
      <point x="303" y="415"/>
      <point x="324" y="448"/>
      <point x="335" y="473" type="curve"/>
      <point x="338" y="473" type="line"/>
      <point x="336" y="222" type="line"/>
      <point x="167" y="222" type="line"/>
    </contour>
  </outline>
</glyph>
<glyph name="g.sc" format="2">
  <advance width="646"/>
  <anchor x="338" y="560" name="top"/>
  <anchor x="384" y="0" name="ogonek"/>
  <anchor x="349" y="0" name="bottom"/>
  <anchor x="328" y="0" name="bottomC"/>
  <outline>
    <contour>
      <point x="47" y="280" type="curve" smooth="yes"/>
      <point x="47" y="98"/>
      <point x="156" y="-8"/>
      <point x="318" y="-8" type="curve" smooth="yes"/>
      <point x="467" y="-8"/>
      <point x="522" y="98"/>
      <point x="522" y="199" type="curve"/>
      <point x="474" y="200" type="line"/>
      <point x="474" y="135"/>
      <point x="425" y="94"/>
      <point x="345" y="94" type="curve" smooth="yes"/>
      <point x="240" y="94"/>
      <point x="183" y="159"/>
      <point x="183" y="280" type="curve" smooth="yes"/>
      <point x="183" y="399"/>
      <point x="247" y="464"/>
      <point x="340" y="464" type="curve" smooth="yes"/>
      <point x="402" y="464"/>
      <point x="449" y="438"/>
      <point x="469" y="374" type="curve"/>
      <point x="588" y="417" type="line"/>
      <point x="550" y="517"/>
      <point x="464" y="568"/>
      <point x="336" y="568" type="curve" smooth="yes"/>
      <point x="159" y="568"/>
      <point x="47" y="461"/>
    </contour>
    <contour>
      <point x="330" y="212" type="line"/>
      <point x="474" y="212" type="line"/>
      <point x="474" y="151" type="line"/>
      <point x="491" y="124" type="line"/>
      <point x="498" y="0" type="line"/>
      <point x="590" y="0" type="line"/>
      <point x="590" y="294" type="line"/>
      <point x="330" y="294" type="line"/>
    </contour>
  </outline>
</glyph>
<glyph name="g.sc.ss04" format="2">
  <advance width="642"/>
  <anchor x="340" y="560" name="top"/>
  <anchor x="410" y="0" name="ogonek"/>
  <anchor x="369" y="0" name="bottom"/>
  <anchor x="343" y="0" name="bottomC"/>
  <outline>
    <contour>
      <point x="596" y="244" type="curve" smooth="yes"/>
      <point x="596" y="294" type="line"/>
      <point x="332" y="294" type="line"/>
      <point x="332" y="212" type="line"/>
      <point x="558" y="212" type="line"/>
      <point x="480" y="247" type="line"/>
      <point x="480" y="208" type="line" smooth="yes"/>
      <point x="480" y="155"/>
      <point x="443" y="94"/>
      <point x="344" y="94" type="curve" smooth="yes"/>
      <point x="240" y="94"/>
      <point x="186" y="159"/>
      <point x="186" y="280" type="curve" smooth="yes"/>
      <point x="186" y="397"/>
      <point x="247" y="464"/>
      <point x="341" y="464" type="curve" smooth="yes"/>
      <point x="410" y="464"/>
      <point x="451" y="434"/>
      <point x="470" y="377" type="curve"/>
      <point x="590" y="417" type="line"/>
      <point x="551" y="521"/>
      <point x="461" y="568"/>
      <point x="338" y="568" type="curve" smooth="yes"/>
      <point x="159" y="568"/>
      <point x="49" y="459"/>
      <point x="49" y="279" type="curve" smooth="yes"/>
      <point x="49" y="97"/>
      <point x="159" y="-8"/>
      <point x="337" y="-8" type="curve" smooth="yes"/>
      <point x="507" y="-8"/>
      <point x="596" y="83"/>
    </contour>
  </outline>
</glyph>
<glyph name="g.ss01_j.liga" format="2">
  <advance width="896"/>
  <anchor x="301" y="500" name="top"/>
  <outline>
    <contour>
      <point x="436" y="500" type="line"/>
      <point x="426" y="380" type="line"/>
      <point x="419" y="363" type="line"/>
      <point x="419" y="7" type="line" smooth="yes"/>
      <point x="419" y="-72"/>
      <point x="371" y="-121"/>
      <point x="301" y="-121" type="curve" smooth="yes"/>
      <point x="235" y="-121"/>
      <point x="201" y="-94"/>
      <point x="194" y="-38" type="curve"/>
      <point x="63" y="-78" type="line"/>
      <point x="81" y="-180"/>
      <point x="173" y="-215"/>
      <point x="286" y="-215" type="curve" smooth="yes"/>
      <point x="455" y="-215"/>
      <point x="556" y="-140"/>
      <point x="556" y="40" type="curve" smooth="yes"/>
      <point x="556" y="383" type="line"/>
      <point x="556" y="500" type="line"/>
    </contour>
    <contour>
      <point x="48" y="258" type="curve" smooth="yes"/>
      <point x="48" y="101"/>
      <point x="129" y="9"/>
      <point x="262" y="9" type="curve" smooth="yes"/>
      <point x="379" y="9"/>
      <point x="451" y="93"/>
      <point x="451" y="196" type="curve"/>
      <point x="419" y="254" type="line"/>
      <point x="419" y="164"/>
      <point x="373" y="113"/>
      <point x="303" y="113" type="curve" smooth="yes"/>
      <point x="230" y="113"/>
      <point x="186" y="164"/>
      <point x="186" y="259" type="curve" smooth="yes"/>
      <point x="186" y="354"/>
      <point x="230" y="405"/>
      <point x="303" y="405" type="curve" smooth="yes"/>
      <point x="375" y="405"/>
      <point x="419" y="353"/>
      <point x="419" y="264" type="curve"/>
      <point x="446" y="323" type="line"/>
      <point x="446" y="427"/>
      <point x="379" y="510"/>
      <point x="262" y="510" type="curve" smooth="yes"/>
      <point x="130" y="510"/>
      <point x="48" y="417"/>
    </contour>
    <contour>
      <point x="701" y="500" type="line"/>
      <point x="701" y="-32" type="line" smooth="yes"/>
      <point x="701" y="-88"/>
      <point x="679" y="-108"/>
      <point x="646" y="-108" type="curve" smooth="yes"/>
      <point x="619" y="-108"/>
      <point x="599" y="-98"/>
      <point x="584" y="-85" type="curve"/>
      <point x="562" y="-189" type="line"/>
      <point x="588" y="-205"/>
      <point x="619" y="-215"/>
      <point x="658" y="-215" type="curve" smooth="yes"/>
      <point x="743" y="-215"/>
      <point x="838" y="-180"/>
      <point x="838" y="-40" type="curve" smooth="yes"/>
      <point x="838" y="500" type="line"/>
    </contour>
    <contour>
      <point x="685" y="645" type="curve" smooth="yes"/>
      <point x="685" y="598"/>
      <point x="714" y="572"/>
      <point x="769" y="572" type="curve" smooth="yes"/>
      <point x="825" y="572"/>
      <point x="855" y="598"/>
      <point x="855" y="645" type="curve" smooth="yes"/>
      <point x="855" y="692"/>
      <point x="825" y="719"/>
      <point x="769" y="719" type="curve" smooth="yes"/>
      <point x="714" y="719"/>
      <point x="685" y="692"/>
    </contour>
  </outline>
</glyph>
<glyph name="g_idieresis" format="2">
  <advance width="831"/>
  <anchor x="690" y="500" name="top"/>
  <anchor x="752" y="4" name="ogonek"/>
  <anchor x="690" y="0" name="bottom"/>
  <anchor x="690" y="0" name="bottomC"/>
  <outline>
    <contour>
      <point x="371" y="465" type="curve"/>
      <point x="424" y="445" type="line"/>
      <point x="423" y="497"/>
      <point x="462" y="528"/>
      <point x="530" y="521" type="curve"/>
      <point x="508" y="619" type="line"/>
      <point x="413" y="624"/>
      <point x="366" y="551"/>
    </contour>
    <component base="gbase" xOffset="-8"/>
    <component base="idieresis" xOffset="549"/>
  </outline>
</glyph>
<glyph name="g_j.liga" format="2">
  <advance width="849"/>
  <outline>
    <contour>
      <point x="379" y="465" type="curve"/>
      <point x="435" y="445" type="line"/>
      <point x="434" y="496"/>
      <point x="475" y="528"/>
      <point x="549" y="521" type="curve"/>
      <point x="531" y="619" type="line"/>
      <point x="433" y="624"/>
      <point x="378" y="551"/>
    </contour>
    <contour>
      <point x="43" y="105" type="curve" smooth="yes"/>
      <point x="43" y="19"/>
      <point x="141" y="-17"/>
      <point x="219" y="-17" type="curve" smooth="yes"/>
      <point x="339" y="-17" type="line" smooth="yes"/>
      <point x="399" y="-17"/>
      <point x="418" y="-33"/>
      <point x="418" y="-59" type="curve" smooth="yes"/>
      <point x="418" y="-93"/>
      <point x="371" y="-121"/>
      <point x="278" y="-121" type="curve" smooth="yes"/>
      <point x="180" y="-121"/>
      <point x="133" y="-100"/>
      <point x="133" y="-64" type="curve" smooth="yes"/>
      <point x="133" y="-34"/>
      <point x="161" y="-17"/>
      <point x="221" y="-17" type="curve"/>
      <point x="186" y="18" type="line"/>
      <point x="77" y="18"/>
      <point x="25" y="-29"/>
      <point x="25" y="-92" type="curve" smooth="yes"/>
      <point x="25" y="-165"/>
      <point x="106" y="-215"/>
      <point x="271" y="-215" type="curve" smooth="yes"/>
      <point x="424" y="-215"/>
      <point x="529" y="-154"/>
      <point x="529" y="-45" type="curve" smooth="yes"/>
      <point x="529" y="45"/>
      <point x="465" y="94"/>
      <point x="354" y="94" type="curve" smooth="yes"/>
      <point x="221" y="94" type="line" smooth="yes"/>
      <point x="167" y="94"/>
      <point x="144" y="110"/>
      <point x="144" y="137" type="curve" smooth="yes"/>
      <point x="144" y="165"/>
      <point x="168" y="183"/>
      <point x="228" y="184" type="curve"/>
      <point x="182" y="216" type="line"/>
      <point x="103" y="214"/>
      <point x="43" y="170"/>
    </contour>
    <contour>
      <point x="47" y="340" type="curve" smooth="yes"/>
      <point x="47" y="234"/>
      <point x="132" y="171"/>
      <point x="278" y="171" type="curve" smooth="yes"/>
      <point x="424" y="171"/>
      <point x="504" y="234"/>
      <point x="504" y="340" type="curve" smooth="yes"/>
      <point x="504" y="447"/>
      <point x="424" y="510"/>
      <point x="278" y="510" type="curve" smooth="yes"/>
      <point x="132" y="510"/>
      <point x="47" y="447"/>
    </contour>
    <contour>
      <point x="370" y="341" type="curve" smooth="yes"/>
      <point x="370" y="289"/>
      <point x="335" y="258"/>
      <point x="276" y="258" type="curve" smooth="yes"/>
      <point x="216" y="258"/>
      <point x="181" y="289"/>
      <point x="181" y="341" type="curve" smooth="yes"/>
      <point x="181" y="392"/>
      <point x="216" y="423"/>
      <point x="276" y="423" type="curve" smooth="yes"/>
      <point x="335" y="423"/>
      <point x="370" y="392"/>
    </contour>
    <contour>
      <point x="641" y="500" type="line"/>
      <point x="641" y="-32" type="line" smooth="yes"/>
      <point x="641" y="-88"/>
      <point x="627" y="-108"/>
      <point x="597" y="-108" type="curve" smooth="yes"/>
      <point x="579" y="-108"/>
      <point x="567" y="-105"/>
      <point x="554" y="-97" type="curve"/>
      <point x="534" y="-202" type="line"/>
      <point x="556" y="-211"/>
      <point x="578" y="-215"/>
      <point x="610" y="-215" type="curve" smooth="yes"/>
      <point x="695" y="-215"/>
      <point x="778" y="-180"/>
      <point x="778" y="-40" type="curve" smooth="yes"/>
      <point x="778" y="500" type="line"/>
    </contour>
    <contour>
      <point x="624" y="645" type="curve" smooth="yes"/>
      <point x="624" y="598"/>
      <point x="654" y="572"/>
      <point x="709" y="572" type="curve" smooth="yes"/>
      <point x="764" y="572"/>
      <point x="794" y="598"/>
      <point x="794" y="645" type="curve" smooth="yes"/>
      <point x="794" y="692"/>
      <point x="764" y="719"/>
      <point x="709" y="719" type="curve" smooth="yes"/>
      <point x="654" y="719"/>
      <point x="624" y="692"/>
    </contour>
  </outline>
</glyph>
<glyph name="gbase" format="2">
  <advance width="555"/>
  <outline>
    <contour>
      <point x="51" y="105" type="curve" smooth="yes"/>
      <point x="51" y="19"/>
      <point x="150" y="-17"/>
      <point x="228" y="-17" type="curve" smooth="yes"/>
      <point x="363" y="-17" type="line" smooth="yes"/>
      <point x="422" y="-17"/>
      <point x="442" y="-33"/>
      <point x="442" y="-59" type="curve" smooth="yes"/>
      <point x="442" y="-93"/>
      <point x="395" y="-121"/>
      <point x="294" y="-121" type="curve" smooth="yes"/>
      <point x="188" y="-121"/>
      <point x="142" y="-100"/>
      <point x="142" y="-64" type="curve" smooth="yes"/>
      <point x="142" y="-34"/>
      <point x="169" y="-17"/>
      <point x="230" y="-17" type="curve"/>
      <point x="195" y="18" type="line"/>
      <point x="85" y="18"/>
      <point x="33" y="-29"/>
      <point x="33" y="-92" type="curve" smooth="yes"/>
      <point x="33" y="-165"/>
      <point x="107" y="-215"/>
      <point x="283" y="-215" type="curve" smooth="yes"/>
      <point x="444" y="-215"/>
      <point x="553" y="-154"/>
      <point x="553" y="-45" type="curve" smooth="yes"/>
      <point x="553" y="45"/>
      <point x="488" y="94"/>
      <point x="377" y="94" type="curve" smooth="yes"/>
      <point x="229" y="94" type="line" smooth="yes"/>
      <point x="175" y="94"/>
      <point x="153" y="110"/>
      <point x="153" y="137" type="curve" smooth="yes"/>
      <point x="153" y="165"/>
      <point x="176" y="183"/>
      <point x="237" y="184" type="curve"/>
      <point x="191" y="216" type="line"/>
      <point x="112" y="214"/>
      <point x="51" y="170"/>
    </contour>
    <contour>
      <point x="55" y="340" type="curve" smooth="yes"/>
      <point x="55" y="234"/>
      <point x="141" y="171"/>
      <point x="287" y="171" type="curve" smooth="yes"/>
      <point x="432" y="171"/>
      <point x="518" y="234"/>
      <point x="518" y="340" type="curve" smooth="yes"/>
      <point x="518" y="447"/>
      <point x="432" y="510"/>
      <point x="287" y="510" type="curve" smooth="yes"/>
      <point x="141" y="510"/>
      <point x="55" y="447"/>
    </contour>
    <contour>
      <point x="381" y="341" type="curve" smooth="yes"/>
      <point x="381" y="289"/>
      <point x="347" y="258"/>
      <point x="287" y="258" type="curve" smooth="yes"/>
      <point x="227" y="258"/>
      <point x="192" y="289"/>
      <point x="192" y="341" type="curve" smooth="yes"/>
      <point x="192" y="392"/>
      <point x="227" y="423"/>
      <point x="287" y="423" type="curve" smooth="yes"/>
      <point x="347" y="423"/>
      <point x="381" y="392"/>
    </contour>
  </outline>
</glyph>
<glyph name="i.sc" format="2">
  <advance width="294"/>
  <anchor x="147" y="560" name="top"/>
  <anchor x="215" y="0" name="ogonek"/>
  <anchor x="147" y="0" name="bottom"/>
  <anchor x="147" y="0" name="bottomC"/>
  <outline>
    <contour>
      <point x="78" y="560" type="line"/>
      <point x="78" y="0" type="line"/>
      <point x="215" y="0" type="line"/>
      <point x="215" y="560" type="line"/>
    </contour>
  </outline>
</glyph>
<glyph name="iacute_j.loclNLD" format="2">
  <advance width="563"/>
  <anchor x="141" y="500" name="top"/>
  <anchor x="202" y="4" name="ogonek"/>
  <anchor x="141" y="0" name="bottom"/>
  <anchor x="141" y="0" name="bottomC"/>
  <outline>
    <contour>
      <point x="354" y="500" type="line"/>
      <point x="354" y="-24" type="line" smooth="yes"/>
      <point x="354" y="-87"/>
      <point x="327" y="-109"/>
      <point x="285" y="-109" type="curve" smooth="yes"/>
      <point x="256" y="-109"/>
      <point x="231" y="-99"/>
      <point x="215" y="-85" type="curve"/>
      <point x="193" y="-183" type="line"/>
      <point x="223" y="-203"/>
      <point x="264" y="-215"/>
      <point x="313" y="-215" type="curve" smooth="yes"/>
      <point x="414" y="-215"/>
      <point x="491" y="-168"/>
      <point x="491" y="-37" type="curve" smooth="yes"/>
      <point x="491" y="500" type="line"/>
    </contour>
    <component base="iacute"/>
    <component base="acute" xOffset="173"/>
  </outline>
</glyph>
<glyph name="ij.sc.ss05" format="2">
  <advance width="590"/>
  <outline>
    <contour>
      <point x="70" y="560" type="line"/>
      <point x="70" y="252" type="line"/>
      <point x="207" y="252" type="line"/>
      <point x="207" y="560" type="line"/>
    </contour>
    <contour>
      <point x="384" y="560" type="line"/>
      <point x="384" y="218" type="line" smooth="yes"/>
      <point x="384" y="136"/>
      <point x="351" y="99"/>
      <point x="291" y="99" type="curve" smooth="yes"/>
      <point x="230" y="99"/>
      <point x="198" y="127"/>
      <point x="205" y="189" type="curve"/>
      <point x="71" y="189" type="line"/>
      <point x="56" y="62"/>
      <point x="133" y="-8"/>
      <point x="289" y="-8" type="curve" smooth="yes"/>
      <point x="429" y="-8"/>
      <point x="521" y="73"/>
      <point x="521" y="212" type="curve" smooth="yes"/>
      <point x="521" y="560" type="line"/>
    </contour>
  </outline>
</glyph>
<glyph name="indexring" format="2">
  <advance width="910"/>
  <anchor x="455" y="330" name="indexring"/>
  <outline>
    <contour>
      <point x="833" y="330" type="curve" smooth="yes"/>
      <point x="833" y="551"/>
      <point x="681" y="700"/>
      <point x="455" y="700" type="curve" smooth="yes"/>
      <point x="229" y="700"/>
      <point x="77" y="551"/>
      <point x="77" y="330" type="curve" smooth="yes"/>
      <point x="77" y="109"/>
      <point x="229" y="-40"/>
      <point x="455" y="-40" type="curve" smooth="yes"/>
      <point x="681" y="-40"/>
      <point x="833" y="109"/>
    </contour>
    <contour>
      <point x="157" y="330" type="curve" smooth="yes"/>
      <point x="157" y="508"/>
      <point x="278" y="628"/>
      <point x="455" y="628" type="curve" smooth="yes"/>
      <point x="632" y="628"/>
      <point x="753" y="508"/>
      <point x="753" y="330" type="curve" smooth="yes"/>
      <point x="753" y="152"/>
      <point x="632" y="32"/>
      <point x="455" y="32" type="curve" smooth="yes"/>
      <point x="278" y="32"/>
      <point x="157" y="152"/>
    </contour>
  </outline>
</glyph>
<glyph name="j.sc" format="2">
  <advance width="551"/>
  <anchor x="413" y="560" name="top"/>
  <anchor x="325" y="0" name="ogonek"/>
  <anchor x="260" y="0" name="bottom"/>
  <anchor x="261" y="0" name="bottomC"/>
  <outline>
    <contour>
      <point x="344" y="560" type="line"/>
      <point x="344" y="222" type="line" smooth="yes"/>
      <point x="344" y="140"/>
      <point x="320" y="99"/>
      <point x="247" y="99" type="curve" smooth="yes"/>
      <point x="180" y="99"/>
      <point x="153" y="137"/>
      <point x="167" y="241" type="curve"/>
      <point x="38" y="218" type="line"/>
      <point x="12" y="85"/>
      <point x="84" y="-8"/>
      <point x="249" y="-8" type="curve" smooth="yes"/>
      <point x="399" y="-8"/>
      <point x="481" y="65"/>
      <point x="481" y="208" type="curve" smooth="yes"/>
      <point x="481" y="560" type="line"/>
    </contour>
  </outline>
</glyph>
<glyph name="l.sc" format="2">
  <advance width="583"/>
  <anchor x="323" y="0" name="bottom"/>
  <anchor x="152" y="560" name="top"/>
  <anchor x="524" y="0" name="ogonek"/>
  <anchor x="315" y="560" name="topright"/>
  <anchor x="323" y="0" name="bottomC"/>
  <outline>
    <contour>
      <point x="78" y="560" type="line"/>
      <point x="78" y="0" type="line"/>
      <point x="215" y="0" type="line"/>
      <point x="215" y="560" type="line"/>
    </contour>
    <contour>
      <point x="148" y="107" type="line"/>
      <point x="148" y="0" type="line"/>
      <point x="524" y="0" type="line"/>
      <point x="524" y="107" type="line"/>
    </contour>
  </outline>
</glyph>
<glyph name="l.ss02" format="2">
  <advance width="284"/>
  <anchor x="142" y="0" name="bottom"/>
  <anchor x="142" y="719" name="top"/>
  <anchor x="204" y="4" name="ogonek"/>
  <anchor x="280" y="719" name="topright"/>
  <anchor x="142" y="0" name="bottomC"/>
  <outline>
    <contour>
      <point x="74" y="719" type="line"/>
      <point x="74" y="0" type="line"/>
      <point x="211" y="0" type="line"/>
      <point x="211" y="719" type="line"/>
    </contour>
  </outline>
</glyph>
<glyph name="m.sc" format="2">
  <advance width="816"/>
  <anchor x="408" y="560" name="top"/>
  <anchor x="738" y="0" name="ogonek"/>
  <anchor x="408" y="0" name="bottom"/>
  <anchor x="431" y="0" name="bottomC"/>
  <outline>
    <contour>
      <point x="203" y="0" type="line"/>
      <point x="203" y="252" type="line"/>
      <point x="196" y="437" type="line"/>
      <point x="197" y="437" type="line"/>
      <point x="354" y="0" type="line"/>
      <point x="462" y="0" type="line"/>
      <point x="619" y="437" type="line"/>
      <point x="621" y="437" type="line"/>
      <point x="612" y="252" type="line"/>
      <point x="612" y="0" type="line"/>
      <point x="738" y="0" type="line"/>
      <point x="738" y="560" type="line"/>
      <point x="548" y="560" type="line"/>
      <point x="444" y="259" type="line"/>
      <point x="411" y="148" type="line"/>
      <point x="407" y="148" type="line"/>
      <point x="374" y="259" type="line"/>
      <point x="269" y="560" type="line"/>
      <point x="78" y="560" type="line"/>
      <point x="78" y="0" type="line"/>
    </contour>
  </outline>
</glyph>
<glyph name="n.sc" format="2">
  <advance width="680"/>
  <anchor x="344" y="560" name="top"/>
  <anchor x="601" y="0" name="ogonek"/>
  <anchor x="352" y="0" name="bottom"/>
  <anchor x="518" y="0" name="bottomC"/>
  <outline>
    <contour>
      <point x="474" y="560" type="line"/>
      <point x="474" y="248" type="line"/>
      <point x="479" y="143" type="line"/>
      <point x="477" y="143" type="line"/>
      <point x="432" y="230" type="line"/>
      <point x="239" y="560" type="line"/>
      <point x="78" y="560" type="line"/>
      <point x="78" y="0" type="line"/>
      <point x="206" y="0" type="line"/>
      <point x="206" y="312" type="line"/>
      <point x="200" y="417" type="line"/>
      <point x="202" y="417" type="line"/>
      <point x="247" y="330" type="line"/>
      <point x="441" y="0" type="line"/>
      <point x="601" y="0" type="line"/>
      <point x="601" y="560" type="line"/>
    </contour>
  </outline>
</glyph>
<glyph name="nine.tf" format="2">
  <advance width="604"/>
  <outline>
    <contour>
      <point x="44" y="450" type="curve" smooth="yes"/>
      <point x="44" y="317"/>
      <point x="134" y="236"/>
      <point x="261" y="238" type="curve" smooth="yes"/>
      <point x="337" y="239"/>
      <point x="406" y="266"/>
      <point x="426" y="339" type="curve"/>
      <point x="429" y="339" type="line"/>
      <point x="429" y="334"/>
      <point x="429" y="330"/>
      <point x="429" y="325" type="curve" smooth="yes"/>
      <point x="429" y="185"/>
      <point x="393" y="100"/>
      <point x="289" y="100" type="curve" smooth="yes"/>
      <point x="216" y="100"/>
      <point x="191" y="134"/>
      <point x="175" y="190" type="curve"/>
      <point x="47" y="136" type="line"/>
      <point x="86" y="39"/>
      <point x="162" y="-10"/>
      <point x="285" y="-10" type="curve" smooth="yes"/>
      <point x="458" y="-10"/>
      <point x="552" y="97"/>
      <point x="552" y="328" type="curve" smooth="yes"/>
      <point x="552" y="544"/>
      <point x="456" y="670"/>
      <point x="287" y="670" type="curve" smooth="yes"/>
      <point x="136" y="670"/>
      <point x="44" y="585"/>
    </contour>
    <contour>
      <point x="396" y="450" type="curve" smooth="yes"/>
      <point x="396" y="386"/>
      <point x="353" y="344"/>
      <point x="286" y="344" type="curve" smooth="yes"/>
      <point x="215" y="344"/>
      <point x="175" y="384"/>
      <point x="175" y="450" type="curve" smooth="yes"/>
      <point x="175" y="517"/>
      <point x="215" y="557"/>
      <point x="286" y="557" type="curve" smooth="yes"/>
      <point x="353" y="557"/>
      <point x="396" y="515"/>
    </contour>
  </outline>
</glyph>
<glyph name="odieresis.titl.sc" format="2">
  <advance width="667"/>
  <outline>
    <contour>
      <point x="52" y="581" type="curve" smooth="yes"/>
      <point x="52" y="541"/>
      <point x="79" y="516"/>
      <point x="123" y="516" type="curve" smooth="yes"/>
      <point x="168" y="516"/>
      <point x="195" y="541"/>
      <point x="195" y="581" type="curve" smooth="yes"/>
      <point x="195" y="622"/>
      <point x="168" y="647"/>
      <point x="123" y="647" type="curve" smooth="yes"/>
      <point x="79" y="647"/>
      <point x="52" y="622"/>
    </contour>
    <contour>
      <point x="477" y="581" type="curve" smooth="yes"/>
      <point x="477" y="541"/>
      <point x="504" y="516"/>
      <point x="548" y="516" type="curve" smooth="yes"/>
      <point x="593" y="516"/>
      <point x="621" y="541"/>
      <point x="621" y="581" type="curve" smooth="yes"/>
      <point x="621" y="622"/>
      <point x="593" y="647"/>
      <point x="548" y="647" type="curve" smooth="yes"/>
      <point x="504" y="647"/>
      <point x="477" y="622"/>
    </contour>
    <contour>
      <point x="50" y="280" type="curve" smooth="yes"/>
      <point x="50" y="100"/>
      <point x="159" y="-8"/>
      <point x="336" y="-8" type="curve" smooth="yes"/>
      <point x="514" y="-8"/>
      <point x="623" y="100"/>
      <point x="623" y="280" type="curve" smooth="yes"/>
      <point x="623" y="460"/>
      <point x="514" y="568"/>
      <point x="336" y="568" type="curve" smooth="yes"/>
      <point x="159" y="568"/>
      <point x="50" y="460"/>
    </contour>
    <contour>
      <point x="485" y="280" type="curve" smooth="yes"/>
      <point x="485" y="161"/>
      <point x="431" y="99"/>
      <point x="336" y="99" type="curve" smooth="yes"/>
      <point x="242" y="99"/>
      <point x="187" y="161"/>
      <point x="187" y="280" type="curve" smooth="yes"/>
      <point x="187" y="399"/>
      <point x="242" y="461"/>
      <point x="336" y="461" type="curve" smooth="yes"/>
      <point x="431" y="461"/>
      <point x="485" y="399"/>
    </contour>
  </outline>
</glyph>
<glyph name="ogonek.E" format="2">
  <advance width="642"/>
  <anchor x="598" y="0" name="_ogonek"/>
  <outline>
    <contour>
      <point x="557" y="26" type="line"/>
      <point x="446" y="8"/>
      <point x="379" y="-32"/>
      <point x="379" y="-109" type="curve" smooth="yes"/>
      <point x="379" y="-178"/>
      <point x="434" y="-215"/>
      <point x="510" y="-215" type="curve" smooth="yes"/>
      <point x="547" y="-215"/>
      <point x="582" y="-209"/>
      <point x="606" y="-193" type="curve"/>
      <point x="586" y="-123" type="line"/>
      <point x="572" y="-132"/>
      <point x="552" y="-134"/>
      <point x="536" y="-134" type="curve" smooth="yes"/>
      <point x="500" y="-134"/>
      <point x="478" y="-117"/>
      <point x="478" y="-87" type="curve" smooth="yes"/>
      <point x="478" y="-52"/>
      <point x="503" y="-23"/>
      <point x="598" y="0" type="curve"/>
    </contour>
  </outline>
</glyph>
<glyph name="one.osf" format="2">
  <advance width="409"/>
  <outline>
    <contour>
      <point x="330" y="560" type="line"/>
      <point x="218" y="560" type="line"/>
      <point x="207" y="514"/>
      <point x="196" y="440"/>
      <point x="196" y="392" type="curve" smooth="yes"/>
      <point x="196" y="0" type="line"/>
      <point x="330" y="0" type="line"/>
      <point x="330" y="406" type="line"/>
    </contour>
    <contour>
      <point x="279" y="533" type="curve"/>
      <point x="218" y="560" type="line"/>
      <point x="184" y="511"/>
      <point x="90" y="462"/>
      <point x="24" y="450" type="curve"/>
      <point x="40" y="337" type="line"/>
      <point x="146" y="354"/>
      <point x="244" y="450"/>
    </contour>
  </outline>
</glyph>
<glyph name="one.sc" format="2">
  <advance width="398"/>
  <outline>
    <contour>
      <point x="319" y="560" type="line"/>
      <point x="204" y="560" type="line"/>
      <point x="191" y="486"/>
      <point x="182" y="395"/>
      <point x="182" y="332" type="curve" smooth="yes"/>
      <point x="182" y="0" type="line"/>
      <point x="319" y="0" type="line"/>
      <point x="319" y="406" type="line"/>
    </contour>
    <contour>
      <point x="268" y="528" type="curve"/>
      <point x="204" y="560" type="line"/>
      <point x="166" y="514"/>
      <point x="76" y="471"/>
      <point x="18" y="464" type="curve"/>
      <point x="35" y="354" type="line"/>
      <point x="139" y="371"/>
      <point x="233" y="445"/>
    </contour>
  </outline>
</glyph>
<glyph name="one.tf" format="2">
  <advance width="604"/>
  <outline>
    <contour>
      <point x="404" y="0" type="line"/>
      <point x="404" y="506" type="line"/>
      <point x="404" y="660" type="line"/>
      <point x="292" y="660" type="line"/>
      <point x="282" y="609"/>
      <point x="275" y="541"/>
      <point x="275" y="490" type="curve" smooth="yes"/>
      <point x="275" y="0" type="line"/>
    </contour>
    <contour>
      <point x="569" y="0" type="line"/>
      <point x="569" y="109" type="line"/>
      <point x="89" y="109" type="line"/>
      <point x="89" y="0" type="line"/>
    </contour>
    <contour>
      <point x="353" y="626" type="curve"/>
      <point x="292" y="660" type="line"/>
      <point x="257" y="611"/>
      <point x="142" y="553"/>
      <point x="81" y="546" type="curve"/>
      <point x="99" y="435" type="line"/>
      <point x="205" y="452"/>
      <point x="317" y="544"/>
    </contour>
  </outline>
</glyph>
<glyph name="one.tosf" format="2">
  <advance width="604"/>
  <outline>
    <contour>
      <point x="573" y="0" type="line"/>
      <point x="573" y="105" type="line"/>
      <point x="92" y="105" type="line"/>
      <point x="92" y="0" type="line"/>
    </contour>
    <contour>
      <point x="408" y="560" type="line"/>
      <point x="303" y="560" type="line"/>
      <point x="290" y="509"/>
      <point x="281" y="432"/>
      <point x="281" y="380" type="curve" smooth="yes"/>
      <point x="281" y="0" type="line"/>
      <point x="408" y="0" type="line"/>
      <point x="408" y="406" type="line"/>
    </contour>
    <contour>
      <point x="362" y="532" type="curve"/>
      <point x="303" y="560" type="line"/>
      <point x="268" y="511"/>
      <point x="154" y="453"/>
      <point x="92" y="446" type="curve"/>
      <point x="110" y="342" type="line"/>
      <point x="218" y="359"/>
      <point x="327" y="449"/>
    </contour>
  </outline>
</glyph>
<glyph name="oslash.sc" format="2">
  <advance width="667"/>
  <anchor x="334" y="560" name="top"/>
  <anchor x="407" y="0" name="ogonek"/>
  <anchor x="334" y="0" name="bottom"/>
  <anchor x="334" y="0" name="bottomC"/>
  <outline>
    <contour>
      <point x="535" y="576" type="line"/>
      <point x="455" y="470" type="line"/>
      <point x="489" y="435" type="line"/>
      <point x="599" y="576" type="line"/>
    </contour>
    <contour>
      <point x="181" y="111" type="line"/>
      <point x="220" y="78" type="line"/>
      <point x="486" y="436" type="line"/>
      <point x="447" y="469" type="line"/>
    </contour>
    <contour>
      <point x="133" y="-22" type="line"/>
      <point x="212" y="83" type="line"/>
      <point x="177" y="118" type="line"/>
      <point x="69" y="-22" type="line"/>
    </contour>
    <component base="o.sc"/>
  </outline>
</glyph>
<glyph name="p.sc" format="2">
  <advance width="590"/>
  <anchor x="301" y="560" name="top"/>
  <anchor x="147" y="0" name="bottom"/>
  <outline>
    <contour>
      <point x="339" y="192" type="line" smooth="yes"/>
      <point x="472" y="192"/>
      <point x="555" y="260"/>
      <point x="555" y="375" type="curve" smooth="yes"/>
      <point x="555" y="492"/>
      <point x="472" y="560"/>
      <point x="339" y="560" type="curve" smooth="yes"/>
      <point x="161" y="560" type="line"/>
      <point x="161" y="460" type="line"/>
      <point x="321" y="460" type="line" smooth="yes"/>
      <point x="386" y="460"/>
      <point x="420" y="431"/>
      <point x="420" y="374" type="curve" smooth="yes"/>
      <point x="420" y="318"/>
      <point x="386" y="290"/>
      <point x="321" y="290" type="curve" smooth="yes"/>
      <point x="161" y="290" type="line"/>
      <point x="161" y="192" type="line"/>
    </contour>
    <contour>
      <point x="214" y="0" type="line"/>
      <point x="214" y="560" type="line"/>
      <point x="78" y="560" type="line"/>
      <point x="78" y="0" type="line"/>
    </contour>
  </outline>
</glyph>
<glyph name="periodsuperior" format="2">
  <advance width="212"/>
  <outline>
    <contour>
      <point x="42" y="385" type="curve" smooth="yes"/>
      <point x="42" y="349"/>
      <point x="66" y="327"/>
      <point x="106" y="327" type="curve" smooth="yes"/>
      <point x="146" y="327"/>
      <point x="170" y="349"/>
      <point x="170" y="385" type="curve" smooth="yes"/>
      <point x="170" y="422"/>
      <point x="146" y="444"/>
      <point x="106" y="444" type="curve" smooth="yes"/>
      <point x="66" y="444"/>
      <point x="42" y="422"/>
    </contour>
  </outline>
</glyph>
<glyph name="r.sc.ss03" format="2">
  <advance width="615"/>
  <anchor x="300" y="560" name="top"/>
  <anchor x="572" y="0" name="ogonek"/>
  <anchor x="328" y="0" name="bottom"/>
  <anchor x="503" y="0" name="bottomC"/>
  <outline>
    <contour>
      <point x="214" y="0" type="line"/>
      <point x="214" y="207" type="line"/>
      <point x="300" y="207" type="line" smooth="yes"/>
      <point x="365" y="207"/>
      <point x="399" y="184"/>
      <point x="405" y="131" type="curve" smooth="yes"/>
      <point x="413" y="68"/>
      <point x="416" y="29"/>
      <point x="428" y="0" type="curve"/>
      <point x="572" y="0" type="line"/>
      <point x="572" y="4" type="line"/>
      <point x="556" y="31"/>
      <point x="549" y="63"/>
      <point x="540" y="144" type="curve" smooth="yes"/>
      <point x="535" y="192"/>
      <point x="505" y="231"/>
      <point x="441" y="243" type="curve"/>
      <point x="441" y="245" type="line"/>
      <point x="516" y="260"/>
      <point x="563" y="310"/>
      <point x="563" y="390" type="curve" smooth="yes"/>
      <point x="563" y="495"/>
      <point x="480" y="560"/>
      <point x="344" y="560" type="curve" smooth="yes"/>
      <point x="78" y="560" type="line"/>
      <point x="78" y="0" type="line"/>
    </contour>
    <contour>
      <point x="214" y="460" type="line"/>
      <point x="326" y="460" type="line" smooth="yes"/>
      <point x="393" y="460"/>
      <point x="428" y="433"/>
      <point x="428" y="379" type="curve" smooth="yes"/>
      <point x="428" y="325"/>
      <point x="393" y="298"/>
      <point x="326" y="298" type="curve" smooth="yes"/>
      <point x="214" y="298" type="line"/>
    </contour>
  </outline>
</glyph>
<glyph name="registeredsuperior" format="2">
  <advance width="586"/>
  <outline>
    <contour>
      <point x="563" y="404" type="curve" smooth="yes"/>
      <point x="563" y="564"/>
      <point x="456" y="670"/>
      <point x="293" y="670" type="curve" smooth="yes"/>
      <point x="130" y="670"/>
      <point x="23" y="564"/>
      <point x="23" y="404" type="curve" smooth="yes"/>
      <point x="23" y="244"/>
      <point x="130" y="138"/>
      <point x="293" y="138" type="curve" smooth="yes"/>
      <point x="456" y="138"/>
      <point x="563" y="244"/>
    </contour>
    <contour>
      <point x="258" y="265" type="line"/>
      <point x="258" y="548" type="line"/>
      <point x="191" y="548" type="line"/>
      <point x="191" y="265" type="line"/>
    </contour>
    <contour>
      <point x="423" y="265" type="line"/>
      <point x="338" y="395" type="line"/>
      <point x="285" y="373" type="line"/>
      <point x="348" y="265" type="line"/>
    </contour>
    <contour>
      <point x="94" y="404" type="curve" smooth="yes"/>
      <point x="94" y="525"/>
      <point x="174" y="605"/>
      <point x="293" y="605" type="curve" smooth="yes"/>
      <point x="412" y="605"/>
      <point x="492" y="525"/>
      <point x="492" y="404" type="curve" smooth="yes"/>
      <point x="492" y="284"/>
      <point x="412" y="204"/>
      <point x="293" y="204" type="curve" smooth="yes"/>
      <point x="174" y="204"/>
      <point x="94" y="284"/>
    </contour>
    <contour>
      <point x="311" y="361" type="line" smooth="yes"/>
      <point x="377" y="361"/>
      <point x="417" y="394"/>
      <point x="417" y="452" type="curve" smooth="yes"/>
      <point x="417" y="510"/>
      <point x="373" y="548"/>
      <point x="309" y="548" type="curve" smooth="yes"/>
      <point x="230" y="548" type="line"/>
      <point x="230" y="493" type="line"/>
      <point x="302" y="493" type="line" smooth="yes"/>
      <point x="333" y="493"/>
      <point x="349" y="479"/>
      <point x="349" y="451" type="curve" smooth="yes"/>
      <point x="349" y="423"/>
      <point x="333" y="410"/>
      <point x="302" y="410" type="curve" smooth="yes"/>
      <point x="230" y="410" type="line"/>
      <point x="230" y="361" type="line"/>
    </contour>
  </outline>
</glyph>
<glyph name="seven.sc" format="2">
  <advance width="536"/>
  <outline>
    <contour>
      <point x="38" y="453" type="line"/>
      <point x="428" y="453" type="line"/>
      <point x="403" y="486" type="line"/>
      <point x="246" y="353"/>
      <point x="180" y="177"/>
      <point x="179" y="0" type="curve"/>
      <point x="313" y="0" type="line"/>
      <point x="314" y="161"/>
      <point x="356" y="327"/>
      <point x="504" y="459" type="curve"/>
      <point x="504" y="560" type="line"/>
      <point x="38" y="560" type="line"/>
    </contour>
  </outline>
</glyph>
<glyph name="seven.tosf" format="2">
  <advance width="604"/>
  <outline>
    <contour>
      <point x="48" y="452" type="line"/>
      <point x="485" y="452" type="line"/>
      <point x="458" y="483" type="line"/>
      <point x="280" y="315"/>
      <point x="199" y="118"/>
      <point x="199" y="-100" type="curve"/>
      <point x="336" y="-100" type="line"/>
      <point x="336" y="110"/>
      <point x="394" y="289"/>
      <point x="559" y="455" type="curve"/>
      <point x="559" y="560" type="line"/>
      <point x="48" y="560" type="line"/>
    </contour>
  </outline>
</glyph>
<glyph name="six.sc" format="2">
  <advance width="547"/>
  <outline>
    <contour>
      <point x="507" y="177" type="curve" smooth="yes"/>
      <point x="506" y="288"/>
      <point x="425" y="349"/>
      <point x="319" y="349" type="curve" smooth="yes"/>
      <point x="253" y="349"/>
      <point x="189" y="319"/>
      <point x="168" y="267" type="curve"/>
      <point x="164" y="267" type="line"/>
      <point x="164" y="273"/>
      <point x="164" y="278"/>
      <point x="164" y="282" type="curve" smooth="yes"/>
      <point x="164" y="393"/>
      <point x="217" y="464"/>
      <point x="293" y="464" type="curve" smooth="yes"/>
      <point x="349" y="464"/>
      <point x="379" y="440"/>
      <point x="393" y="398" type="curve"/>
      <point x="499" y="447" type="line"/>
      <point x="460" y="532"/>
      <point x="398" y="568"/>
      <point x="293" y="568" type="curve" smooth="yes"/>
      <point x="147" y="568"/>
      <point x="42" y="470"/>
      <point x="42" y="282" type="curve" smooth="yes"/>
      <point x="42" y="93"/>
      <point x="130" y="-8"/>
      <point x="292" y="-8" type="curve" smooth="yes"/>
      <point x="430" y="-8"/>
      <point x="508" y="67"/>
    </contour>
    <contour>
      <point x="194" y="174" type="curve" smooth="yes"/>
      <point x="194" y="224"/>
      <point x="231" y="259"/>
      <point x="289" y="259" type="curve" smooth="yes"/>
      <point x="348" y="259"/>
      <point x="383" y="228"/>
      <point x="383" y="174" type="curve" smooth="yes"/>
      <point x="383" y="120"/>
      <point x="348" y="89"/>
      <point x="289" y="89" type="curve" smooth="yes"/>
      <point x="231" y="89"/>
      <point x="194" y="122"/>
    </contour>
  </outline>
</glyph>
<glyph name="t.swsh" format="2">
  <advance width="487"/>
  <anchor x="161" y="250" name="center"/>
  <anchor x="254" y="0" name="bottom"/>
  <anchor x="179" y="730" name="top"/>
  <anchor x="294" y="0" name="bottomC"/>
  <anchor x="321" y="767" name="topright"/>
  <anchor x="386" y="14" name="ogonek"/>
  <outline>
    <contour>
      <point x="111" y="615" type="line"/>
      <point x="111" y="141" type="line" smooth="yes"/>
      <point x="111" y="31"/>
      <point x="179" y="-10"/>
      <point x="278" y="-10" type="curve" smooth="yes"/>
      <point x="331" y="-10"/>
      <point x="383" y="5"/>
      <point x="415" y="31" type="curve"/>
      <point x="394" y="122" type="line"/>
      <point x="373" y="104"/>
      <point x="350" y="94"/>
      <point x="317" y="94" type="curve" smooth="yes"/>
      <point x="274" y="94"/>
      <point x="248" y="115"/>
      <point x="248" y="163" type="curve" smooth="yes"/>
      <point x="248" y="653" type="line"/>
    </contour>
    <contour>
      <point x="383" y="500" type="curve" smooth="yes"/>
      <point x="20" y="500" type="line"/>
      <point x="20" y="398" type="line"/>
      <point x="385" y="398" type="line" smooth="yes"/>
      <point x="484" y="398"/>
      <point x="541" y="417"/>
      <point x="584" y="467" type="curve"/>
      <point x="539" y="546" type="line"/>
      <point x="501" y="511"/>
      <point x="460" y="500"/>
    </contour>
  </outline>
</glyph>
<glyph name="thorn.sc" format="2">
  <advance width="599"/>
  <anchor x="147" y="560" name="top"/>
  <anchor x="147" y="0" name="bottom"/>
  <outline>
    <contour>
      <point x="331" y="99" type="line" smooth="yes"/>
      <point x="479" y="99"/>
      <point x="558" y="167"/>
      <point x="558" y="284" type="curve" smooth="yes"/>
      <point x="558" y="401"/>
      <point x="479" y="468"/>
      <point x="331" y="468" type="curve" smooth="yes"/>
      <point x="158" y="468" type="line"/>
      <point x="158" y="369" type="line"/>
      <point x="322" y="369" type="line" smooth="yes"/>
      <point x="388" y="369"/>
      <point x="424" y="342"/>
      <point x="424" y="284" type="curve" smooth="yes"/>
      <point x="424" y="225"/>
      <point x="388" y="198"/>
      <point x="322" y="198" type="curve" smooth="yes"/>
      <point x="158" y="198" type="line"/>
      <point x="158" y="99" type="line"/>
    </contour>
    <contour>
      <point x="214" y="0" type="line"/>
      <point x="214" y="560" type="line"/>
      <point x="78" y="560" type="line"/>
      <point x="78" y="0" type="line"/>
    </contour>
  </outline>
</glyph>
<glyph name="three.osf" format="2">
  <advance width="550"/>
  <outline>
    <contour>
      <point x="30" y="410" type="curve"/>
      <point x="147" y="366" type="line"/>
      <point x="157" y="435"/>
      <point x="196" y="469"/>
      <point x="261" y="469" type="curve" smooth="yes"/>
      <point x="325" y="469"/>
      <point x="358" y="437"/>
      <point x="358" y="371" type="curve" smooth="yes"/>
      <point x="358" y="308"/>
      <point x="319" y="273"/>
      <point x="248" y="273" type="curve" smooth="yes"/>
      <point x="220" y="273" type="line"/>
      <point x="220" y="185" type="line"/>
      <point x="253" y="185" type="line" smooth="yes"/>
      <point x="332" y="185"/>
      <point x="372" y="160"/>
      <point x="372" y="94" type="curve" smooth="yes"/>
      <point x="372" y="33"/>
      <point x="330" y="-9"/>
      <point x="259" y="-9" type="curve" smooth="yes"/>
      <point x="183" y="-9"/>
      <point x="144" y="32"/>
      <point x="130" y="107" type="curve"/>
      <point x="11" y="52" type="line"/>
      <point x="50" y="-59"/>
      <point x="131" y="-110"/>
      <point x="260" y="-110" type="curve" smooth="yes"/>
      <point x="402" y="-110"/>
      <point x="501" y="-35"/>
      <point x="501" y="84" type="curve" smooth="yes"/>
      <point x="501" y="179"/>
      <point x="438" y="228"/>
      <point x="369" y="231" type="curve"/>
      <point x="369" y="234" type="line"/>
      <point x="426" y="242"/>
      <point x="487" y="285"/>
      <point x="487" y="388" type="curve" smooth="yes"/>
      <point x="487" y="492"/>
      <point x="410" y="570"/>
      <point x="266" y="570" type="curve" smooth="yes"/>
      <point x="148" y="570"/>
      <point x="56" y="519"/>
    </contour>
  </outline>
</glyph>
<glyph name="three.sc" format="2">
  <advance width="541"/>
  <outline>
    <contour>
      <point x="52" y="430" type="curve"/>
      <point x="172" y="391" type="line"/>
      <point x="178" y="438"/>
      <point x="210" y="465"/>
      <point x="265" y="465" type="curve" smooth="yes"/>
      <point x="320" y="465"/>
      <point x="348" y="438"/>
      <point x="348" y="394" type="curve" smooth="yes"/>
      <point x="347" y="347"/>
      <point x="316" y="322"/>
      <point x="256" y="322" type="curve" smooth="yes"/>
      <point x="226" y="322" type="line"/>
      <point x="226" y="238" type="line"/>
      <point x="264" y="238" type="line" smooth="yes"/>
      <point x="328" y="238"/>
      <point x="360" y="219"/>
      <point x="360" y="171" type="curve" smooth="yes"/>
      <point x="360" y="124"/>
      <point x="324" y="95"/>
      <point x="265" y="95" type="curve" smooth="yes"/>
      <point x="196" y="95"/>
      <point x="168" y="124"/>
      <point x="158" y="181" type="curve"/>
      <point x="34" y="131" type="line"/>
      <point x="69" y="33"/>
      <point x="146" y="-8"/>
      <point x="268" y="-8" type="curve" smooth="yes"/>
      <point x="399" y="-8"/>
      <point x="491" y="58"/>
      <point x="491" y="162" type="curve" smooth="yes"/>
      <point x="491" y="248"/>
      <point x="424" y="282"/>
      <point x="367" y="281" type="curve"/>
      <point x="367" y="283" type="line"/>
      <point x="415" y="284"/>
      <point x="479" y="322"/>
      <point x="479" y="415" type="curve" smooth="yes"/>
      <point x="479" y="499"/>
      <point x="407" y="568"/>
      <point x="272" y="568" type="curve" smooth="yes"/>
      <point x="162" y="568"/>
      <point x="71" y="520"/>
    </contour>
  </outline>
</glyph>
<glyph name="two.osf" format="2">
  <advance width="557"/>
  <outline>
    <contour>
      <point x="39" y="368" type="curve"/>
      <point x="161" y="330" type="line"/>
      <point x="153" y="418"/>
      <point x="201" y="469"/>
      <point x="272" y="469" type="curve" smooth="yes"/>
      <point x="326" y="469"/>
      <point x="375" y="445"/>
      <point x="375" y="374" type="curve" smooth="yes"/>
      <point x="375" y="257"/>
      <point x="270" y="200"/>
      <point x="47" y="93" type="curve"/>
      <point x="47" y="0" type="line"/>
      <point x="524" y="0" type="line"/>
      <point x="524" y="100" type="line"/>
      <point x="319" y="100" type="line" smooth="yes"/>
      <point x="287" y="100"/>
      <point x="253" y="97"/>
      <point x="221" y="95" type="curve"/>
      <point x="221" y="97" type="line"/>
      <point x="243" y="104"/>
      <point x="259" y="110"/>
      <point x="278" y="119" type="curve" smooth="yes"/>
      <point x="395" y="177"/>
      <point x="507" y="245"/>
      <point x="507" y="379" type="curve" smooth="yes"/>
      <point x="507" y="493"/>
      <point x="430" y="570"/>
      <point x="273" y="570" type="curve" smooth="yes"/>
      <point x="109" y="570"/>
      <point x="38" y="478"/>
    </contour>
  </outline>
</glyph>
<glyph name="two.sc" format="2">
  <advance width="542"/>
  <outline>
    <contour>
      <point x="43" y="374" type="curve"/>
      <point x="160" y="335" type="line"/>
      <point x="154" y="408"/>
      <point x="193" y="461"/>
      <point x="262" y="461" type="curve" smooth="yes"/>
      <point x="325" y="461"/>
      <point x="356" y="425"/>
      <point x="356" y="375" type="curve" smooth="yes"/>
      <point x="356" y="293"/>
      <point x="273" y="215"/>
      <point x="54" y="90" type="curve"/>
      <point x="54" y="0" type="line"/>
      <point x="498" y="0" type="line"/>
      <point x="498" y="104" type="line"/>
      <point x="333" y="104" type="line" smooth="yes"/>
      <point x="305" y="104"/>
      <point x="264" y="102"/>
      <point x="236" y="99" type="curve"/>
      <point x="236" y="101" type="line"/>
      <point x="364" y="171"/>
      <point x="489" y="256"/>
      <point x="489" y="396" type="curve" smooth="yes"/>
      <point x="489" y="484"/>
      <point x="422" y="568"/>
      <point x="269" y="568" type="curve" smooth="yes"/>
      <point x="110" y="568"/>
      <point x="41" y="477"/>
    </contour>
  </outline>
</glyph>
<glyph name="u.sc" format="2">
  <advance width="653"/>
  <anchor x="326" y="560" name="top"/>
  <anchor x="450" y="14" name="ogonek"/>
  <anchor x="327" y="0" name="bottom"/>
  <anchor x="327" y="0" name="bottomC"/>
  <outline>
    <contour>
      <point x="447" y="560" type="line"/>
      <point x="447" y="228" type="line" smooth="yes"/>
      <point x="447" y="140"/>
      <point x="408" y="99"/>
      <point x="326" y="99" type="curve" smooth="yes"/>
      <point x="245" y="99"/>
      <point x="207" y="140"/>
      <point x="207" y="228" type="curve" smooth="yes"/>
      <point x="207" y="560" type="line"/>
      <point x="70" y="560" type="line"/>
      <point x="70" y="226" type="line" smooth="yes"/>
      <point x="70" y="72"/>
      <point x="156" y="-8"/>
      <point x="326" y="-8" type="curve" smooth="yes"/>
      <point x="497" y="-8"/>
      <point x="584" y="72"/>
      <point x="584" y="226" type="curve" smooth="yes"/>
      <point x="584" y="560" type="line"/>
    </contour>
  </outline>
</glyph>
<glyph name="uni20BA.tf" format="2">
  <advance width="604"/>
  <outline>
    <contour>
      <point x="451" y="279" type="line"/>
      <point x="451" y="163"/>
      <point x="403" y="104"/>
      <point x="302" y="104" type="curve" smooth="yes"/>
      <point x="182" y="104" type="line"/>
      <point x="182" y="0" type="line"/>
      <point x="316" y="0" type="line" smooth="yes"/>
      <point x="483" y="0"/>
      <point x="568" y="102"/>
      <point x="572" y="279" type="curve"/>
    </contour>
    <contour>
      <point x="125" y="660" type="line"/>
      <point x="125" y="0" type="line"/>
      <point x="256" y="0" type="line"/>
      <point x="256" y="660" type="line"/>
    </contour>
    <contour>
      <point x="14" y="292" type="line"/>
      <point x="14" y="231" type="line"/>
      <point x="444" y="353" type="line"/>
      <point x="444" y="414" type="line"/>
    </contour>
    <contour>
      <point x="14" y="436" type="line"/>
      <point x="14" y="376" type="line"/>
      <point x="444" y="498" type="line"/>
      <point x="444" y="558" type="line"/>
    </contour>
  </outline>
</glyph>
<glyph name="uni20BD.tf" format="2">
  <advance width="604"/>
  <outline>
    <contour>
      <point x="187" y="660" type="line"/>
      <point x="187" y="553" type="line"/>
      <point x="333" y="553" type="line" smooth="yes"/>
      <point x="412" y="553"/>
      <point x="448" y="518"/>
      <point x="448" y="449" type="curve" smooth="yes"/>
      <point x="448" y="380"/>
      <point x="412" y="344"/>
      <point x="333" y="344" type="curve" smooth="yes"/>
      <point x="25" y="344" type="line"/>
      <point x="25" y="266" type="line"/>
      <point x="347" y="266" type="line" smooth="yes"/>
      <point x="497" y="266"/>
      <point x="584" y="336"/>
      <point x="584" y="462" type="curve" smooth="yes"/>
      <point x="584" y="583"/>
      <point x="497" y="660"/>
      <point x="347" y="660" type="curve" smooth="yes"/>
    </contour>
    <contour>
      <point x="112" y="660" type="line"/>
      <point x="112" y="0" type="line"/>
      <point x="241" y="0" type="line"/>
      <point x="241" y="660" type="line"/>
    </contour>
    <contour>
      <point x="398" y="201" type="line"/>
      <point x="25" y="201" type="line"/>
      <point x="25" y="128" type="line"/>
      <point x="398" y="128" type="line"/>
    </contour>
  </outline>
</glyph>
<glyph name="w.sc" format="2">
  <advance width="914"/>
  <anchor x="457" y="560" name="top"/>
  <anchor x="731" y="0" name="ogonek"/>
  <anchor x="457" y="0" name="bottom"/>
  <anchor x="663" y="0" name="bottomC"/>
  <outline>
    <contour>
      <point x="459" y="439" type="line"/>
      <point x="497" y="255" type="line"/>
      <point x="565" y="0" type="line"/>
      <point x="731" y="0" type="line"/>
      <point x="897" y="560" type="line"/>
      <point x="756" y="560" type="line"/>
      <point x="677" y="245" type="line"/>
      <point x="642" y="103" type="line"/>
      <point x="530" y="560" type="line"/>
      <point x="386" y="560" type="line"/>
      <point x="276" y="104" type="line"/>
      <point x="241" y="245" type="line"/>
      <point x="162" y="560" type="line"/>
      <point x="17" y="560" type="line"/>
      <point x="183" y="0" type="line"/>
      <point x="353" y="0" type="line"/>
      <point x="420" y="255" type="line"/>
      <point x="457" y="439" type="line"/>
    </contour>
  </outline>
</glyph>
<glyph name="x.sc" format="2">
  <advance width="578"/>
  <anchor x="289" y="560" name="top"/>
  <anchor x="564" y="0" name="ogonek"/>
  <anchor x="289" y="0" name="bottom"/>
  <anchor x="564" y="0" name="bottomC"/>
  <outline>
    <contour>
      <point x="156" y="0" type="line"/>
      <point x="310" y="239" type="line"/>
      <point x="339" y="256" type="line"/>
      <point x="557" y="560" type="line"/>
      <point x="413" y="560" type="line"/>
      <point x="267" y="332" type="line"/>
      <point x="234" y="312" type="line"/>
      <point x="8" y="0" type="line"/>
    </contour>
    <contour>
      <point x="562" y="0" type="line"/>
      <point x="338" y="319" type="line"/>
      <point x="324" y="334" type="line"/>
      <point x="178" y="560" type="line"/>
      <point x="21" y="560" type="line"/>
      <point x="237" y="251" type="line"/>
      <point x="253" y="234" type="line"/>
      <point x="405" y="0" type="line"/>
    </contour>
  </outline>
</glyph>
<glyph name="y.swsh" format="2">
  <advance width="590"/>
  <anchor x="292" y="500" name="top"/>
  <anchor x="182" y="-210" name="ogonek"/>
  <anchor x="177" y="-210" name="bottom"/>
  <anchor x="140" y="-210" name="bottomC"/>
  <outline>
    <contour>
      <point x="349" y="-31" type="curve" smooth="yes"/>
      <point x="516" y="416" type="line" smooth="yes"/>
      <point x="533" y="466"/>
      <point x="556" y="485"/>
      <point x="596" y="485" type="curve" smooth="yes"/>
      <point x="620" y="485"/>
      <point x="631" y="480"/>
      <point x="643" y="472" type="curve"/>
      <point x="669" y="557" type="line"/>
      <point x="643" y="580"/>
      <point x="616" y="589"/>
      <point x="569" y="589" type="curve" smooth="yes"/>
      <point x="490" y="589"/>
      <point x="435" y="547"/>
      <point x="405" y="452" type="curve" smooth="yes"/>
      <point x="320" y="206" type="line"/>
      <point x="290" y="100" type="line"/>
      <point x="263" y="200" type="line"/>
      <point x="169" y="500" type="line"/>
      <point x="17" y="500" type="line"/>
      <point x="170" y="123" type="line"/>
      <point x="225" y="-7" type="line"/>
      <point x="207" y="-50" type="line" smooth="yes"/>
      <point x="189" y="-98"/>
      <point x="163" y="-110"/>
      <point x="125" y="-110" type="curve" smooth="yes"/>
      <point x="89" y="-110"/>
      <point x="63" y="-104"/>
      <point x="41" y="-79" type="curve"/>
      <point x="7" y="-176" type="line"/>
      <point x="39" y="-203"/>
      <point x="79" y="-215"/>
      <point x="134" y="-215" type="curve" smooth="yes"/>
      <point x="242" y="-215"/>
      <point x="303" y="-168"/>
    </contour>
  </outline>
</glyph>
<glyph name="ydieresis.titl.sc" format="2">
  <advance width="570"/>
  <outline>
    <contour>
      <point x="441" y="581" type="curve" smooth="yes"/>
      <point x="441" y="622"/>
      <point x="413" y="647"/>
      <point x="369" y="647" type="curve" smooth="yes"/>
      <point x="325" y="647"/>
      <point x="298" y="622"/>
      <point x="298" y="581" type="curve" smooth="yes"/>
      <point x="298" y="541"/>
      <point x="325" y="516"/>
      <point x="369" y="516" type="curve" smooth="yes"/>
      <point x="413" y="516"/>
      <point x="441" y="541"/>
    </contour>
    <contour>
      <point x="277" y="581" type="curve" smooth="yes"/>
      <point x="277" y="622"/>
      <point x="250" y="647"/>
      <point x="205" y="647" type="curve" smooth="yes"/>
      <point x="161" y="647"/>
      <point x="134" y="622"/>
      <point x="134" y="581" type="curve" smooth="yes"/>
      <point x="134" y="541"/>
      <point x="161" y="516"/>
      <point x="205" y="516" type="curve" smooth="yes"/>
      <point x="250" y="516"/>
      <point x="277" y="541"/>
    </contour>
    <contour>
      <point x="425" y="560" type="line"/>
      <point x="333" y="394" type="line"/>
      <point x="289" y="308" type="line"/>
      <point x="245" y="394" type="line"/>
      <point x="153" y="560" type="line"/>
      <point x="9" y="560" type="line"/>
      <point x="219" y="209" type="line"/>
      <point x="219" y="0" type="line"/>
      <point x="356" y="0" type="line"/>
      <point x="356" y="209" type="line"/>
      <point x="565" y="560" type="line"/>
    </contour>
  </outline>
</glyph>
<glyph name="yen.tf" format="2">
  <advance width="604"/>
  <outline>
    <contour>
      <point x="21" y="660" type="line"/>
      <point x="238" y="268" type="line"/>
      <point x="366" y="268" type="line"/>
      <point x="583" y="660" type="line"/>
      <point x="448" y="660" type="line"/>
      <point x="342" y="439" type="line"/>
      <point x="303" y="337" type="line"/>
      <point x="301" y="337" type="line"/>
      <point x="262" y="439" type="line"/>
      <point x="156" y="660" type="line"/>
    </contour>
    <contour>
      <point x="365" y="0" type="line"/>
      <point x="365" y="264" type="line"/>
      <point x="239" y="264" type="line"/>
      <point x="239" y="0" type="line"/>
    </contour>
    <contour>
      <point x="544" y="116" type="line"/>
      <point x="544" y="173" type="line"/>
      <point x="61" y="173" type="line"/>
      <point x="61" y="116" type="line"/>
    </contour>
    <contour>
      <point x="544" y="242" type="line"/>
      <point x="544" y="302" type="line"/>
      <point x="429" y="302" type="line"/>
      <point x="302" y="296" type="line"/>
      <point x="175" y="302" type="line"/>
      <point x="61" y="302" type="line"/>
      <point x="61" y="242" type="line"/>
    </contour>
  </outline>
</glyph>
